<svg xmlns="http://www.w3.org/2000/svg" width="18" height="18" fill="none"><defs><clipPath id="a"><rect width="18" height="18" rx="0"/></clipPath></defs><g clip-path="url(#a)"><path fill="#044DA5" d="M15.366 2.635A8.94 8.94 0 0 0 9.002 0a8.94 8.94 0 0 0-6.364 2.635A8.94 8.94 0 0 0 .002 9c0 2.405.935 4.665 2.635 6.365A8.94 8.94 0 0 0 9 18a8.95 8.95 0 0 0 6.366-2.636c3.509-3.509 3.51-9.219 0-12.729m-2.13 9.595c-.207.358-.596.481-.954.274L9.188 10.63c-.104-.06-.275-.145-.337-.239-.225-.129-.571-.362-.571-.64V4.5a.75.75 0 0 1 1.5 0v4.907l3.11 1.799c.36.207.553.665.346 1.024"/></g></svg>