<svg xmlns="http://www.w3.org/2000/svg" fill="none" width="16.477" height="12.942"><path d="M16.047 3.802h-1.543a.431.431 0 0 0-.202.054l-.695-2.092C13.385.574 12.545 0 11.514 0H4.977C3.793 0 3.075.77 2.884 1.763L2.187 3.86a.43.43 0 0 0-.214-.06H.43A.43.43 0 0 0 0 4.23v.372c0 .236.192.429.43.429l.584.1a2.687 2.687 0 0 0-.29 1.251L.509 8.85c0 .071.006.144.014.218a.824.824 0 0 0-.014.14v2.969c0 .423.344.765.767.765h1.17a.766.766 0 0 0 .767-.765v-.954H13.28v.954c0 .423.343.765.767.765h1.17a.766.766 0 0 0 .767-.765v-2.97a.713.713 0 0 0-.014-.14c.009-.073.014-.146.014-.217l-.217-2.468c0-.48-.105-.892-.29-1.253l.57-.097a.43.43 0 0 0 .431-.43v-.371a.431.431 0 0 0-.43-.43zM3.4 3.362l.51-1.356.007-.032c.05-.274.164-.323.332-.534h7.999c.17.217.275.272.321.532l.52 1.392.19.756c-.043.553-.71.99-1.263.99H4.472c-.554 0-1.22-.437-1.264-.99l.192-.757zm.357 6.454a1.16 1.16 0 1 1 .034-2.32 1.16 1.16 0 0 1-.034 2.32zm6.489-.855c-.001.19-.156.344-.346.344H6.641a.346.346 0 0 1-.345-.344v-.968c0-.19.155-.345.345-.345H9.9c.19 0 .346.154.346.344v.969zm2.485.855a1.16 1.16 0 0 1-1.162-1.159c.001-.64.521-1.16 1.162-1.158.64-.001 1.16.518 1.162 1.158a1.16 1.16 0 0 1-1.162 1.159z" fill="#044DA5"/></svg>