<svg xmlns="http://www.w3.org/2000/svg" fill="none" width="24.04" height="19.507"><defs><mask id="a" style="mask-type:alpha" maskUnits="objectBoundingBox"><rect width="24.04" height="19.507" rx="0" fill="#FFF"/></mask></defs><g mask="url(#a)"><path d="m17.378 2.457.54-2.43h6.127v1.945h-4.567l-2.161 9.722-.756 3.402H2.33l-.62-3.402L.033 2.457h17.346zM3.69 11.694l.265 1.457h11.048l.323-1.457 1.622-7.292H2.364l1.326 7.292zm10.633 6.32a1.457 1.457 0 1 0 2.914 0 1.457 1.457 0 0 0-2.914 0zm-12.639 0a1.457 1.457 0 1 0 2.914 0 1.457 1.457 0 0 0-2.914 0z" fill="#044DA5"/></g></svg>