<svg xmlns="http://www.w3.org/2000/svg" fill="none" width="10" height="10"><path d="M9.727 1.294c.209.22.303.527.265.849L9.43 5.139c-.062.466-.512.843-1.026.843l-4.809.33c-.009.003-.02.003-.027.003-.185 0-.343-.134-.356-.308-.013-.184.134-.342.329-.357l4.834-.332c.177-.002.326-.131.347-.28l.561-2.995a.399.399 0 0 0-.09-.31.232.232 0 0 0-.172-.072H2.85c-.197 0-.357-.15-.357-.332 0-.184.161-.333.357-.333h6.171c.273 0 .522.105.705.298zM8.909 6.98c.162 0 .357.17.357.356a.366.366 0 0 1-.357.357H3.12c-.514 0-.965-.426-1.027-.91l-.605-3.969L1.145.96C1.124.796.965.714.811.714H.357C.16.714 0 .515 0 .332 0 .15.161 0 .357 0h.454c.519 0 .977.332 1.05.959l.332 1.855.606 3.882a.34.34 0 0 0 .321.284h5.789zM2.857 9.286q0 .394 0 0a.714.714 0 1 1 1.429 0 .714.714 0 0 1-1.429 0zm4.286 0q0 .394 0 0a.714.714 0 1 1 1.429 0 .714.714 0 0 1-1.43 0z" fill="#FF5201"/></svg>