<svg class="icon" viewBox="0 0 1024 1024" xmlns="http://www.w3.org/2000/svg" width="128" height="128"><path d="M853.333 218.667a37.333 37.333 0 0 1 3.072 74.538l-3.072.128H362.667a37.333 37.333 0 0 1-3.072-74.538l3.072-.128h490.666zm0 256a37.333 37.333 0 0 1 3.072 74.538l-3.072.128H362.667a37.333 37.333 0 0 1-3.072-74.538l3.072-.128h490.666zm0 256a37.333 37.333 0 0 1 3.072 74.538l-3.072.128H362.667a37.333 37.333 0 0 1-3.072-74.538l3.072-.128h490.666zM149.333 256A53.333 53.333 0 1 0 256 256a53.333 53.333 0 1 0-106.667 0zM149.333 512A53.333 53.333 0 1 0 256 512a53.333 53.333 0 1 0-106.667 0zM149.333 768A53.333 53.333 0 1 0 256 768a53.333 53.333 0 1 0-106.667 0z"/></svg>