<svg xmlns="http://www.w3.org/2000/svg" width="47" height="47" fill="none"><defs><linearGradient id="b" x1=".5" x2=".5" y1="0" y2="1"><stop offset="5.313%" stop-color="#F9E3AA"/><stop offset="100%" stop-color="#D08931" stop-opacity=".58"/><stop offset="100%" stop-color="#F39E0B" stop-opacity=".31"/></linearGradient><clipPath id="c"><rect width="29" height="29" x="9" y="10" rx="14.5"/></clipPath><filter id="a" width="1" height="1" x="0" y="0" color-interpolation-filters="sRGB" filterUnits="objectBoundingBox"><feFlood flood-opacity="0" result="BackgroundImageFix"/><feBlend in="SourceGraphic" in2="BackgroundImageFix" result="shape"/><feGaussianBlur result="effect1_foregroundBlur"/></filter></defs><g filter="url(#a)"><rect width="47" height="47" fill="url(#b)" rx="23.5"/></g><g clip-path="url(#c)"><path fill="#FFF" d="M23.228 11.815c-6.188.14-11.16 5.106-11.053 11.034.053 2.99 1.37 5.68 3.46 7.615l6.678 6.259c.66.62 1.717.62 2.376 0l6.681-6.262c2.133-1.97 3.458-4.738 3.458-7.799 0-6.078-5.22-10.988-11.6-10.847m.28 18.983c-4.692 0-8.496-3.642-8.496-8.136s3.804-8.14 8.496-8.14 8.497 3.643 8.497 8.14c0 4.494-3.804 8.136-8.497 8.136" style="mix-blend-mode:passthrough"/><path fill="#FFF" d="M28.27 21.676h-3.74v-3.582c0-.535-.458-.977-1.019-.977s-1.02.439-1.02.977v4.56c0 .538.46.977 1.02.977h4.758c.56 0 1.02-.44 1.02-.977 0-.539-.46-.978-1.02-.978" style="mix-blend-mode:passthrough"/></g></svg>