<svg xmlns="http://www.w3.org/2000/svg" width="47" height="47" fill="none"><defs><linearGradient id="b" x1=".5" x2=".5" y1="0" y2="1"><stop offset="5.313%" stop-color="#F9E3AA"/><stop offset="100%" stop-color="#D08931" stop-opacity=".58"/><stop offset="100%" stop-color="#F39E0B" stop-opacity=".31"/></linearGradient><clipPath id="c"><rect width="25" height="25" x="10" y="12" rx="12.5"/></clipPath><filter id="a" width="1" height="1" x="0" y="0" color-interpolation-filters="sRGB" filterUnits="objectBoundingBox"><feFlood flood-opacity="0" result="BackgroundImageFix"/><feBlend in="SourceGraphic" in2="BackgroundImageFix" result="shape"/><feGaussianBlur result="effect1_foregroundBlur"/></filter></defs><g filter="url(#a)"><rect width="47" height="47" fill="url(#b)" rx="23.5"/></g><g clip-path="url(#c)"><path fill="#FFF" d="M20.925 30.675H16.1q-.675-.05-1.038-.563-.362-.512-.437-1.137.075-.625.438-1.025.362-.4 1.037-.45h4.825v-1.575L16.1 25.9q-.675-.05-1.038-.475-.362-.425-.437-1.075.075-.625.438-1.025.362-.4 1.037-.45h3.6l-3.35-5.9q-.25-.3-.475-.763-.225-.462-.2-1.012.125-.7.5-1.138t1.4-.562q.6.05 1.075.412.475.363.775.788l3.8 6.95 4.175-7q.3-.425.775-.75t1.075-.4q.375.025.688.1t.55.25.4.5.237.85q0 .725-.5 1.375l-3.875 6.3h3.675q.65.05 1.025.45t.425 1.025q-.05.65-.437 1.1-.388.45-1.038.5l-4.775.025V27.5h4.8q.65.05 1.025.5t.425 1.075q-.05.65-.425 1.087-.375.438-1.025.488l-4.8-.025v2.65q-.1 2.125-2.325 2.125-1.1 0-1.713-.525-.612-.525-.662-1.6z" style="mix-blend-mode:passthrough"/></g></svg>