<svg xmlns="http://www.w3.org/2000/svg" width="47" height="47" fill="none"><defs><linearGradient id="b" x1=".5" x2=".5" y1="0" y2="1"><stop offset="5.313%" stop-color="#F9E3AA"/><stop offset="100%" stop-color="#D08931" stop-opacity=".58"/><stop offset="100%" stop-color="#F39E0B" stop-opacity=".31"/></linearGradient><clipPath id="c"><rect width="25" height="25" x="11" y="11" rx="12.5"/></clipPath><filter id="a" width="1" height="1" x="0" y="0" color-interpolation-filters="sRGB" filterUnits="objectBoundingBox"><feFlood flood-opacity="0" result="BackgroundImageFix"/><feBlend in="SourceGraphic" in2="BackgroundImageFix" result="shape"/><feGaussianBlur result="effect1_foregroundBlur"/></filter></defs><g filter="url(#a)"><rect width="47" height="47" fill="url(#b)" rx="23.5"/></g><g clip-path="url(#c)"><path fill="#FFF" d="M13.312 16.875h20.375c.411 0 .75-.252.75-.562v-.985c0-.667-.71-1.203-1.593-1.203h-3.422c-.253 0-.469.153-.469.344s-.2.344-.453.344h-10c-.253 0-.453-.154-.453-.344s-.216-.344-.469-.344h-3.422c-.883 0-1.594.536-1.594 1.203v.985c0 .31.34.562.75.562M23.5 27.406a7.02 7.02 0 0 0 2.516 5.39H13.703c-.63 0-1.14-.51-1.14-1.14v-1.781c0-.444.251-.863.656-1.047a3.65 3.65 0 0 0 2.14-3.328c0-1.478-.875-2.74-2.14-3.312-.405-.191-.66-.6-.657-1.047v-1.782c0-.63.511-1.14 1.141-1.14h19.594c.63 0 1.14.51 1.14 1.14v1.532a1.2 1.2 0 0 1-.156.578 7 7 0 0 0-3.75-1.094 7.03 7.03 0 0 0-7.031 7.031m-1.484-2.015h-2L22.406 21h-.844l-2.265 4.297L17.047 21h-.89l2.374 4.39h-1.984v.72h2.344v1.374h-2.344v.735h2.344v2.156h.78v-2.156h2.345v-.735h-2.344V26.11h2.344zm5.875-1.953-2.391 1.64-.016.016-.187.125c-.285.195-.274.525.031.734a.62.62 0 0 0 .516.266h7.812a.625.625 0 0 0 0-1.25H27.86L29 24.187c.284-.195.273-.524-.031-.734s-.794-.21-1.078-.015M34 28.797l.016-.016.187-.125c.284-.195.273-.525-.031-.734a.62.62 0 0 0-.516-.266h-7.812a.625.625 0 1 0 0 1.25h5.797l-1.141.782c-.284.195-.274.524.031.734s.794.21 1.078.015z" style="mix-blend-mode:passthrough"/></g></svg>