<svg xmlns="http://www.w3.org/2000/svg" fill="none" width="49.006" height="49"><path d="M49.006 24.5q0 .601-.03 1.202-.03.6-.088 1.2-.06.598-.148 1.193-.088.595-.205 1.185-.117.59-.264 1.173-.146.583-.32 1.159-.175.576-.378 1.142-.202.566-.432 1.122-.23.555-.488 1.1-.257.543-.54 1.073-.284.53-.593 1.047-.31.515-.644 1.016-.334.5-.692.983-.359.483-.74.948-.382.465-.786.91-.404.446-.829.871-.425.425-.871.83-.446.403-.91.785-.466.381-.949.74-.483.358-.983.692-.5.334-1.016.643-.516.31-1.047.593-.53.284-1.074.54-.544.258-1.1.488-.555.23-1.121.433-.567.202-1.142.377-.576.175-1.16.32-.583.147-1.173.264-.59.118-1.185.206-.595.088-1.193.147-.6.059-1.2.089-.6.029-1.202.029t-1.202-.03q-.601-.029-1.2-.088-.598-.059-1.194-.147-.595-.088-1.184-.206-.59-.117-1.174-.263-.583-.146-1.159-.321-.576-.175-1.142-.377-.566-.203-1.122-.433-.556-.23-1.1-.487-.543-.257-1.074-.54-.53-.284-1.046-.594-.516-.309-1.016-.643t-.983-.692q-.484-.359-.949-.74-.465-.382-.91-.786-.446-.404-.871-.829-.426-.425-.83-.87-.404-.447-.785-.911-.382-.465-.74-.948-.358-.483-.693-.983-.334-.5-.643-1.017-.31-.515-.593-1.046-.283-.53-.54-1.074-.258-.544-.488-1.1-.23-.555-.433-1.121-.202-.566-.377-1.142t-.32-1.159Q.587 29.87.47 29.28q-.118-.59-.206-1.185Q.177 27.5.118 26.9q-.059-.598-.088-1.199Q0 25.102 0 24.5q0-.601.03-1.202.029-.6.088-1.2.059-.598.147-1.193.088-.595.206-1.185.117-.59.263-1.173.146-.583.321-1.159.175-.576.377-1.142.203-.566.433-1.122.23-.555.488-1.1.257-.543.54-1.073.284-.53.593-1.046.31-.516.643-1.016.335-.5.693-.984.358-.483.74-.948.381-.465.785-.91.404-.446.83-.871.425-.425.87-.83.446-.403.911-.785.465-.381.949-.74.483-.358.983-.692.5-.334 1.016-.643.516-.31 1.046-.593.53-.284 1.075-.54.543-.258 1.099-.488.556-.23 1.122-.433.566-.202 1.142-.377t1.16-.32q.583-.147 1.173-.264.59-.118 1.184-.206.596-.088 1.194-.147.599-.059 1.2-.088.6-.03 1.202-.03.601 0 1.202.03.6.029 1.2.088.598.059 1.193.147.595.088 1.185.206.59.117 1.174.263.583.146 1.159.321.575.175 1.142.377.566.203 1.122.433.555.23 1.1.487.543.257 1.073.54.53.284 1.047.594.516.309 1.016.643t.983.692q.483.359.948.74.465.382.911.786t.871.829q.425.425.83.87.403.446.785.911.381.465.74.948.358.483.692.984.334.5.644 1.016.309.515.592 1.046.284.53.541 1.074.257.544.488 1.1.23.555.432 1.121.203.567.378 1.142.174.576.32 1.159.146.583.264 1.173.117.59.206 1.185.088.595.147 1.194.059.598.088 1.199.03.6.03 1.202z" fill="#084890"/><path d="M28.112 7.286h-2.983v2.983a2.985 2.985 0 0 0 2.983-2.983z" fill="#EBB831"/><path d="M33.804 24.937a3.218 3.218 0 0 1 3.206 3.183v.034a1.368 1.368 0 0 1-1.366 1.343h-.954l-2.8-7.691-2.59.943 2.458 6.754h-.189a3.213 3.213 0 0 1-3.211-3.206v-11.88c0-.754.611-1.366 1.365-1.366h4.07a3.214 3.214 0 0 1 3.211 3.212c0 .754-.611 1.366-1.366 1.366a3.217 3.217 0 0 1-3.211-3.206l-.263.097-1.32.48-.623.229-.932.337c.52 2.897 2.989 5.131 5.99 5.291a4.605 4.605 0 0 0 4.95-4.589 6.447 6.447 0 0 0-6.442-6.44h-4.07a4.605 4.605 0 0 0-4.6 4.6v11.88c0 3.55 2.892 6.44 6.441 6.44h4.069c.12 0 .246-.005.366-.017a11.085 11.085 0 0 1-5.72 5.56v-.005c-.344.143-.698.274-1.052.383l1.103 3.028.005.017c.88-.28 1.72-.645 2.515-1.085 4.395-2.423 7.39-7.103 7.395-12.469v-.034a6.45 6.45 0 0 0-5.298-6.315l-.566 1.566-.571 1.56-.006.012.006-.012z" fill="#FFF"/><g><path d="M25.14 34.634 25.294 36h-.022l-.892-2.229h-.977v3.235h.897v-.863l-.149-1.366h.023l.892 2.229h.971V33.77h-.897v.863zM20.482 33.771l-1.08 3.235h.966l.177-.76h.983l.177.76h1l-1.08-3.235h-1.143zm.235 1.743.303-1.04h.022l.315 1.04h-.64zM8.767 34.566h.811v1.645h-.811v.795h2.571v-.795h-.817v-1.645h.817v-.795H8.767v.795zM14.373 35.137l-.406-.148c-.36-.132-.565-.212-.565-.378 0-.165.142-.24.354-.24.343 0 .543.086.806.258l.474-.595c-.349-.325-.8-.48-1.223-.48-.811 0-1.366.503-1.366 1.109 0 .514.314.84.755.994l.462.177c.223.086.492.172.498.366.005.114-.109.211-.395.211-.325 0-.645-.142-.914-.348l-.537.651c.4.349.92.515 1.388.515.926 0 1.43-.538 1.43-1.143-.007-.497-.27-.766-.76-.949zM17.1 33.771h-.95v3.235h2.47v-.795H17.1v-2.44zM28.032 33.771h-1.029v3.235h1.086c.966 0 1.686-.366 1.686-1.635 0-1.262-.72-1.6-1.743-1.6zm-.052 2.475h-.034V34.53h.034c.458 0 .823.006.823.84 0 .84-.365.875-.823.875z" fill="#FFF"/></g></svg>