<svg xmlns="http://www.w3.org/2000/svg" fill="none" width="46" height="46"><defs><clipPath id="a"><rect x="9" y="8" width="28" height="31" rx="0"/></clipPath></defs><circle cx="23" cy="23" fill="#FFF" r="23"/><g clip-path="url(#a)"><path d="M26.208 8h-2.65v2.685c1.463 0 2.65-1.203 2.65-2.685z" fill="#EBB831"/><path d="M31.274 23.896c1.565.004 2.839 1.285 2.85 2.868v.032a1.223 1.223 0 0 1-1.215 1.208h-.845l-2.494-6.927-2.302.848 2.186 6.08h-.167c-1.574 0-2.855-1.297-2.855-2.889V14.42c0-.679.544-1.23 1.214-1.23h3.622c1.575 0 2.856 1.297 2.856 2.89 0 .679-.545 1.23-1.215 1.23-1.574 0-2.854-1.295-2.855-2.889l-.233.086-1.174.432-.552.204-.827.304c.461 2.61 2.656 4.62 5.33 4.765h.001c.104.005.205.009.31.009 2.256 0 4.091-1.857 4.091-4.14 0-3.2-2.571-5.802-5.732-5.802h-3.622c-2.255 0-4.09 1.86-4.09 4.14v10.697c0 3.197 2.573 5.8 5.731 5.8h3.622c.11 0 .218-.004.327-.014a9.908 9.908 0 0 1-5.09 5.008l-.012.005c-.305.131-.619.247-.938.346l.982 2.726.004.013a12.62 12.62 0 0 0 2.239-.977A12.868 12.868 0 0 0 37 26.796v-.032c-.01-2.836-2.043-5.2-4.714-5.686l-.506 1.41-.507 1.408-.004.011.004-.011zM23.565 32.627l.139 1.227h-.02l-.793-2.002h-.871v2.909h.801v-.778l-.13-1.227h.018l.792 2.005h.867v-2.91h-.803v.776zM19.423 31.852l-.96 2.909h.862l.155-.684h.871l.155.684h.89l-.958-2.91h-1.015zm.208 1.567.272-.934h.02l.28.934h-.572zM9 32.563h.724v1.484H9v.714h2.289v-.714h-.724v-1.484h.724v-.711H9v.711zM13.99 33.079l-.363-.134c-.317-.12-.503-.193-.503-.342 0-.15.127-.219.313-.219.303 0 .484.078.715.234l.42-.535a1.59 1.59 0 0 0-1.085-.431c-.723 0-1.213.45-1.213 1 0 .464.281.756.67.896l.414.157c.196.078.436.153.443.33.004.105-.098.19-.353.19-.288 0-.572-.13-.812-.313l-.48.585c.357.312.818.46 1.233.46.822 0 1.272-.486 1.272-1.03-.002-.444-.236-.685-.672-.848zM16.412 31.852h-.84v2.909h2.195v-.714h-1.355v-2.195z" fill="#0D4C99"/><path d="M26.138 31.852h-.915v2.909h.963c.86 0 1.503-.331 1.503-1.47s-.64-1.44-1.55-1.44zm-.044 2.225h-.03v-1.543h.03c.406 0 .735.003.735.756s-.329.787-.735.787z" fill="#0D4C99"/></g></svg>