<svg xmlns="http://www.w3.org/2000/svg" fill="none" width="13" height="13"><path d="M6.5.5a6 6 0 1 0 0 12 6 6 0 0 0 0-12zm3.2 6.4H3.3v-.8h6.4v.8z" fill="#FFF"/><path d="M11.096 11.096Q13 9.192 13 6.5t-1.904-4.596Q9.192 0 6.5 0T1.904 1.904Q0 3.808 0 6.5t1.904 4.596Q3.808 13 6.5 13t4.596-1.904zm-.707-8.485Q12 4.22 12 6.5q0 2.278-1.611 3.889Q8.78 12 6.5 12q-2.278 0-3.889-1.611Q1 8.78 1 6.5q0-2.278 1.61-3.889Q4.223 1 6.5 1t3.889 1.61zM10.2 7.4V5.6H2.8v1.8h7.4z" fill-rule="evenodd" fill="#343434"/></svg>