<svg xmlns="http://www.w3.org/2000/svg" xmlns:xlink="http://www.w3.org/1999/xlink" fill="none" version="1.1" width="47" height="47" viewBox="0 0 47 47"><defs><filter id="master_svg0_423_08004" filterUnits="objectBoundingBox" color-interpolation-filters="sRGB" x="0" y="0" width="47" height="47"><feFlood flood-opacity="0" result="BackgroundImageFix"/><feBlend mode="normal" in="SourceGraphic" in2="BackgroundImageFix" result="shape"/><feGaussianBlur stdDeviation="0" result="effect1_foregroundBlur"/></filter><linearGradient x1="0.5" y1="0" x2="0.5" y2="1" id="master_svg1_423_07764"><stop offset="5.312500149011612%" stop-color="#F9E3AA" stop-opacity="1"/><stop offset="100%" stop-color="#D08931" stop-opacity="0.5799999833106995"/><stop offset="100%" stop-color="#F39E0B" stop-opacity="0.3100000023841858"/></linearGradient><clipPath id="master_svg2_423_06452"><rect x="9" y="9" width="29" height="29" rx="0"/></clipPath></defs><g><g filter="url(#master_svg0_423_08004)"><rect x="0" y="0" width="47" height="47" rx="20" fill="url(#master_svg1_423_07764)" fill-opacity="1"/></g><g clip-path="url(#master_svg2_423_06452)"><g><path d="M34.3750818359375,25.04181298828125L34.3750818359375,33.16661298828125C34.3750818359375,35.16871298828125,32.7520818359375,36.79161298828125,30.7500818359375,36.79161298828125L16.2500918359375,36.79161298828125C14.2480618359375,36.79161298828125,12.6250918359375,35.16871298828125,12.6250918359375,33.16661298828125L12.6250918359375,25.04181298828125C11.2234238359375,23.81781298828125,10.6663818359375,21.43861298828125,10.6663818359375,18.516812988281252C10.6663818359375,18.409272988281252,10.6796734359375,18.30535298828125,10.7062567359375,18.20748298828125C10.7178345359375,18.08520298828125,10.7479865359375,17.96541298828125,10.7956738359375,17.85223298828125L13.300551835937501,11.89998298828125C13.7782818359375,10.87419098828125,14.8043718359375,10.21553978828125,15.9359218359375,10.20831298828125L31.0642818359375,10.20831298828125C32.1903818359375,10.20831298828125,33.209081835937496,10.86927098828125,33.722581835937504,11.95073298828125L36.2020818359375,17.85343298828125C36.248281835937505,17.96325298828125,36.2780818359375,18.07930298828125,36.2902818359375,18.19781298828125C36.318081835937505,18.29931298828125,36.3337818359375,18.40564298828125,36.3337818359375,18.516812988281252C36.3337818359375,21.43851298828125,35.7767818359375,23.81651298828125,34.3750818359375,25.04181298828125ZM31.9583818359375,25.93601298828125C31.9052818359375,25.93801298828125,31.8520818359375,25.93921298828125,31.7988818359375,25.939612988281247C30.4334818359375,25.939612988281247,29.0946818359375,25.242412988281252,27.8246818359375,24.08601298828125C26.7263818359375,25.20251298828125,25.075781835937498,25.92031298828125,23.4988818359375,25.92031298828125C21.9207818359375,25.92031298828125,20.260541835937502,25.20251298828125,19.157331835937498,24.08601298828125C17.8885918359375,25.247212988281248,16.5678818359375,25.939612988281247,15.200041835937501,25.939612988281247C15.1468818359375,25.939612988281247,15.093711835937501,25.939612988281247,15.0417518359375,25.93721298828125L15.0417518359375,33.16661298828125C15.0417518359375,33.834012988281245,15.582741835937501,34.37501298828125,16.2500918359375,34.37501298828125L30.7500818359375,34.37501298828125C31.4173818359375,34.37501298828125,31.9583818359375,33.834012988281245,31.9583818359375,33.16661298828125L31.9583818359375,25.93721298828125L31.9583818359375,25.93601298828125ZM33.9158818359375,18.64973298828125L31.5173818359375,12.939142988281251C31.4401818359375,12.75534298828125,31.2634818359375,12.63286298828125,31.0642818359375,12.62498298828125L15.9359218359375,12.62498298828125C15.7554818359375,12.62751298828125,15.5906918359375,12.72796298828125,15.5057618359375,12.88719298828125L13.0842518359375,18.64731298828125C13.1060018359375,21.63191298828125,13.855171835937501,23.52291298828125,15.2012518359375,23.52291298828125C16.0470918359375,23.52291298828125,17.1853418359375,22.76291298828125,18.3260018359375,21.48811298828125C18.5971018359375,21.11971298828125,19.0537518359375,20.93701298828125,19.5041318359375,21.016812988281252C19.934841835937497,21.08771298828125,20.2932818359375,21.38651298828125,20.4405918359375,21.797412988281252C20.8960818359375,22.71581298828125,22.2832818359375,23.503612988281247,23.501281835937498,23.503612988281247C24.7120818359375,23.503612988281247,26.0822818359375,22.718212988281252,26.5402818359375,21.797412988281252C26.6877818359375,21.38671298828125,27.0460818359375,21.08801298828125,27.4766818359375,21.016812988281252C27.9270818359375,20.93701298828125,28.3837818359375,21.11971298828125,28.6548818359375,21.48811298828125C29.7870818359375,22.75321298828125,30.9506818359375,23.52291298828125,31.8000818359375,23.52291298828125C33.1461818359375,23.52291298828125,33.8953818359375,21.633112988281248,33.9171818359375,18.65094298828125L33.9158818359375,18.64973298828125Z" fill="#FFFFFF" fill-opacity="1" style="mix-blend-mode:passthrough"/></g></g></g></svg>
