<svg xmlns="http://www.w3.org/2000/svg" fill="none" width="15" height="15"><defs><clipPath id="a"><rect width="15" height="15" rx="0"/></clipPath></defs><g clip-path="url(#a)"><path d="M7.5 0a7.5 7.5 0 1 0 0 15 7.5 7.5 0 0 0 0-15zm3.753 7.917H7.917v3.336a.414.414 0 0 1-.417.414.418.418 0 0 1-.417-.414V7.917H3.747a.414.414 0 0 1-.414-.417c0-.23.19-.417.414-.417h3.336V3.747c0-.229.185-.414.417-.414.23 0 .417.19.417.414v3.336h3.336c.229 0 .414.185.414.417 0 .23-.19.417-.414.417z" fill="#343434"/></g></svg>