<svg xmlns="http://www.w3.org/2000/svg" fill="none" width="20" height="20"><defs><clipPath id="a"><rect width="20" height="20" rx="0"/></clipPath></defs><g clip-path="url(#a)"><path d="M20 10q0 .245-.012.49-.012.246-.036.49-.024.245-.06.487-.036.243-.084.484-.048.24-.108.479-.06.238-.13.473-.072.235-.155.466-.082.231-.176.458-.094.227-.2.448-.104.223-.22.439t-.242.427q-.126.21-.262.415-.137.204-.283.401-.146.197-.302.387t-.32.372q-.165.181-.339.355-.174.174-.355.338-.182.165-.372.321t-.387.302q-.197.146-.401.283-.204.136-.415.262-.21.126-.427.242-.216.116-.439.22-.221.106-.448.2-.227.094-.458.176-.231.083-.466.154-.235.072-.473.131-.238.06-.48.108-.24.048-.483.084-.242.036-.487.06-.244.024-.49.036Q10.246 20 10 20t-.49-.012q-.246-.012-.49-.036-.244-.024-.487-.06t-.484-.084q-.24-.048-.479-.108-.238-.06-.473-.13-.235-.072-.466-.155-.231-.082-.458-.176-.227-.094-.449-.2-.221-.104-.438-.22-.216-.116-.427-.242-.21-.126-.415-.262-.204-.137-.401-.283-.197-.146-.387-.302t-.372-.32q-.181-.165-.355-.339-.174-.174-.339-.355-.164-.182-.32-.372t-.302-.387q-.146-.197-.283-.401-.136-.204-.262-.415-.126-.21-.242-.427-.116-.216-.22-.439-.106-.221-.2-.448-.094-.227-.176-.458-.083-.231-.154-.466-.072-.235-.131-.473-.06-.238-.108-.48-.048-.24-.084-.483-.036-.242-.06-.487-.024-.244-.036-.49Q0 10.246 0 10t.012-.49q.012-.246.036-.49.024-.244.06-.487t.084-.484Q.24 7.81.3 7.57q.06-.238.13-.473.072-.235.155-.466.082-.231.176-.458.094-.227.2-.449.104-.221.22-.438.116-.216.242-.427.126-.21.262-.415.137-.204.283-.401.146-.197.302-.387t.32-.372q.165-.181.339-.355.174-.174.355-.339.182-.164.372-.32t.387-.302q.197-.146.401-.283.204-.136.415-.262.21-.126.427-.242.217-.116.438-.22.222-.106.45-.2Q6.4.667 6.63.585q.231-.083.466-.154Q7.332.359 7.57.3q.238-.06.48-.108.24-.048.483-.084.243-.036.487-.06t.49-.036Q9.754 0 10 0t.49.012q.246.012.49.036.245.024.487.06.243.036.484.084.24.048.479.108.238.06.473.13.235.072.466.155.231.082.458.176.227.094.448.2.223.104.439.22t.427.242q.21.126.415.262.204.137.401.283.197.146.387.302t.372.32q.181.165.355.339.174.174.338.355.165.182.321.372t.302.387q.146.197.283.401.136.204.262.415.126.21.242.427.116.217.22.438.106.222.2.45.094.226.176.457.083.231.154.466.072.235.131.473.06.238.108.48.048.24.084.483.036.243.06.487t.036.49Q20 9.754 20 10z" fill="#000"/><path d="M10 5.6q.4 0 .4.4v4q0 .4-.4.4t-.4-.4V6q0-.4.4-.4z" fill="#EBBA50"/><path d="M10 9.6h2.8q.4 0 .4.4t-.4.4H10q-.4 0-.4-.4t.4-.4z" fill="#EBBA50"/></g></svg>