<svg xmlns="http://www.w3.org/2000/svg" fill="none" width="12" height="12"><defs><clipPath id="a"><rect x="12" width="12" height="12" rx="0"/></clipPath></defs><g transform="matrix(-1 0 0 1 24 0)" clip-path="url(#a)"><path d="M21.938 2.719v7.875h-6.563V2.719h6.563zm0-.656h-6.563a.657.657 0 0 0-.656.656v7.875c0 .362.294.656.656.656h6.563a.657.657 0 0 0 .656-.656V2.719a.657.657 0 0 0-.657-.656z" fill="#231815"/><path d="M13.406 1.406v7.875c0 .362.294.656.656.656h.488v-.656h-.488V1.406H21.282a.657.657 0 0 0-.656-.656h-6.563a.657.657 0 0 0-.656.656z" fill="#231815"/><path d="M20.31 5.134h-3.3c-.183 0-.33-.195-.33-.437s.147-.437.33-.437h3.3c.183 0 .33.195.33.437s-.149.437-.33.437zm0 1.963h-3.3c-.183 0-.33-.195-.33-.437s.147-.437.33-.437h3.3c.183 0 .33.195.33.437s-.149.437-.33.437zm0 2.023h-3.3c-.183 0-.33-.195-.33-.437s.147-.437.33-.437h3.3c.183 0 .33.195.33.437s-.149.437-.33.437z" fill="#231815"/></g></svg>