<svg xmlns="http://www.w3.org/2000/svg" fill="none" width="24" height="24"><defs><clipPath id="a"><rect width="24" height="24" rx="0"/></clipPath></defs><g clip-path="url(#a)"><path d="M6 0a1 1 0 0 1 1 1v3a1 1 0 0 1-2 0V1a1 1 0 0 1 1-1zm4 0a1 1 0 0 1 1 1v3a1 1 0 1 1-2 0V1a1 1 0 0 1 1-1zm4 0a1 1 0 0 1 1 1v3a1 1 0 1 1-2 0V1a1 1 0 0 1 1-1zM1 8a1 1 0 0 1 1-1h17a5 5 0 1 1 0 10 5 5 0 0 1-5 5H6a5 5 0 0 1-5-5V8zm18 7a3 3 0 0 0 0-6v6zm-2-6v8a3 3 0 0 1-3 3H6a3 3 0 0 1-3-3V9h14z" fill-rule="evenodd" fill="#000"/></g></svg>