<svg xmlns="http://www.w3.org/2000/svg" data-name="图层 1" viewBox="0 0 76.1 64.21"><defs><linearGradient id="a" x1="38.05" x2="38.05" y1="64.21" y2="0" data-name="未命名的渐变 32" gradientUnits="userSpaceOnUse"><stop offset="0" stop-color="#cdb9f5"/><stop offset="1" stop-color="#b191e2"/></linearGradient></defs><path d="M76.1 54.7v2.79c0 1.26-.5 2.47-1.4 3.37h-.01a11.37 11.37 0 0 1-8.09 3.36H9.44c-1.5 0-2.97-.3-4.33-.85s-2.62-1.38-3.69-2.43A4.751 4.751 0 0 1 0 57.55v-2.84c0-1.32 1.06-2.38 2.38-2.38h71.34c1.32 0 2.38 1.06 2.38 2.38Zm0-40.42c0 4.19-1.43 8.12-3.87 11.24s-5.91 5.46-9.97 6.48c-1.56.06-2.8 1.35-2.8 2.91v5.51c0 3.94-3.2 7.13-7.13 7.13H16.65c-3.94 0-7.13-3.2-7.13-7.13V0h52.32c3.94 0 7.51 1.6 10.09 4.18 2.58 2.59 4.18 6.15 4.18 10.1Zm-47.78-1.09c1.29 0 2.33-1.04 2.33-2.33h-2.33v2.33Zm11.83 4.79c0-.77-.12-1.52-.46-2.22-.85-1.74-2.24-2.76-4.18-2.93-1.24-.11-2.49-.03-3.73-.03-.15 0-.3.02-.44.04-1.84.35-3.02 1.78-3.02 3.64v9.12c0 .36.03.72.1 1.07.42 2.2 2.37 3.94 4.6 4.03 1.26.05 2.52 0 3.8 0-.03.07-.04.11-.06.15a8.629 8.629 0 0 1-2.28 2.91c-.82.68-1.73 1.19-2.74 1.53-.08.03-.17.03-.12.18.27.71.52 1.42.77 2.13.04.11.08.13.19.09.18-.07.37-.13.55-.21 4.31-1.78 7.01-5.81 7.01-10.47v-9.06Zm31.19-3.71c0-2.57-1.01-4.99-2.85-6.79-1.81-1.76-4.24-2.72-6.77-2.72h-1.08a1.2 1.2 0 0 0-1.19 1.19v20.21c0 .65.54 1.19 1.19 1.19h.6c1.43-.37 2.77-.97 4-1.78a13.56 13.56 0 0 0 3.24-2.99c.91-1.17 1.62-2.47 2.11-3.86.5-1.43.75-2.93.75-4.45Z" style="fill:url(#a);stroke-width:0"/></svg>