<svg xmlns="http://www.w3.org/2000/svg" fill="none" width="25.5" height="23.924"><defs><linearGradient x1=".5" y1="0" x2=".5" y2="1" id="a"><stop offset="0%" stop-color="#3080D9"/><stop offset="100%" stop-color="#2467B0"/></linearGradient><linearGradient x1=".5" y1="0" x2=".5" y2="1" id="b"><stop offset="0%" stop-color="#3080D9"/><stop offset="100%" stop-color="#2467B0"/></linearGradient><linearGradient x1="14.454" y1="10.463" x2="14.454" y2="11.463" gradientUnits="userSpaceOnUse" id="c"><stop offset="0%" stop-color="#3080D9"/><stop offset="100%" stop-color="#2467B0"/></linearGradient><linearGradient x1="14.454" y1="13.92" x2="14.454" y2="14.92" gradientUnits="userSpaceOnUse" id="d"><stop offset="0%" stop-color="#3080D9"/><stop offset="100%" stop-color="#2467B0"/></linearGradient><linearGradient x1=".5" y1="0" x2=".5" y2="1" id="e"><stop offset="0%" stop-color="#3080D9"/><stop offset="100%" stop-color="#2467B0"/></linearGradient></defs><path d="M19.543 0h-9.93q-.075 0-.147.014-.073.015-.14.043-.07.028-.13.07-.062.04-.114.093-.052.052-.093.113-.041.062-.07.13-.028.068-.042.14-.015.073-.015.147t.015.146q.014.073.042.14.029.07.07.13.04.062.093.114.052.052.114.093.06.041.13.07.067.028.14.042.072.015.146.015h9.931q.613 0 1.048.438.438.441.438 1.065v1.203q0 .074.014.146.014.073.043.141.028.068.069.13.041.061.093.113.052.053.114.094.061.04.13.07.068.027.14.042.073.014.147.014.073 0 .146-.014.072-.015.14-.043.069-.028.13-.07.062-.04.114-.093.052-.052.093-.113.041-.062.07-.13.028-.068.042-.14.015-.073.015-.147V3.003q0-1.242-.873-2.121Q20.781 0 19.543 0z" fill-rule="evenodd" fill="url(#a)"/><path d="M2.985 1.5H6.11q.074 0 .147-.015.072-.014.14-.042.069-.029.13-.07.062-.04.114-.093.052-.052.093-.113.041-.062.07-.13.028-.068.042-.14.014-.073.014-.147T6.845.604Q6.831.53 6.802.463q-.028-.068-.069-.13Q6.692.272 6.64.22 6.588.167 6.526.126q-.061-.04-.13-.07-.068-.027-.14-.042Q6.183 0 6.109 0H2.985Q1.748 0 .873.882 0 1.762 0 3.002V13.01q0 1.243.873 2.122.874.88 2.112.88h.736q.074 0 .147-.014.072-.014.14-.043.069-.028.13-.069.061-.041.114-.093.052-.052.093-.114.041-.061.07-.13.028-.068.042-.14.014-.073.014-.147 0-.073-.014-.146-.014-.072-.043-.14-.028-.069-.069-.13-.041-.062-.093-.114-.053-.052-.114-.093-.061-.041-.13-.07-.068-.028-.14-.042-.073-.015-.147-.015h-.736q-.613 0-1.048-.437-.437-.44-.437-1.065V3.003q0-.624.437-1.065.435-.438 1.048-.438z" fill-rule="evenodd" fill="url(#b)"/><path stroke="url(#c)" stroke-width="1.5" stroke-linecap="ROUND" stroke-linejoin="round" d="M10.464 9.713h7.98"/><path stroke="url(#d)" stroke-width="1.5" stroke-linecap="ROUND" stroke-linejoin="round" d="M10.464 13.17h7.98"/><ellipse cx="7.893" cy=".808" rx=".629" ry=".634" fill="#3284DE"/><path d="M13.745 23.742q.053.045.112.08.06.034.124.058.065.023.133.034.068.012.137.01.069-.001.136-.015.068-.014.132-.04.064-.026.122-.063.058-.038.108-.085l4.532-4.253h3.234q1.237 0 2.112-.882.873-.88.873-2.121V6.459q0-1.241-.873-2.12-.875-.883-2.112-.883H5.957q-1.238 0-2.113.882-.873.88-.873 2.121v10.009q0 1.241.873 2.12.875.883 2.113.883h2.845l4.943 4.27zm.47-1.577 4.256-3.994q.104-.098.237-.15.133-.053.276-.053h3.53q.614 0 1.049-.439.437-.44.437-1.064V6.459q0-.624-.437-1.064-.435-.439-1.048-.439H5.957q-.613 0-1.048.439-.438.44-.438 1.064v10.009q0 .624.438 1.064.435.439 1.048.439H9.08q.135 0 .261.047.127.047.23.135l4.643 4.012z" fill-rule="evenodd" fill="url(#e)"/></svg>