<svg xmlns="http://www.w3.org/2000/svg" width="83" height="63" fill="none"><defs><clipPath id="a"><rect width="83" height="63" rx="0"/></clipPath></defs><g clip-path="url(#a)"><path fill="#777" d="m67.039 23.917-4.285 14.95c-3.301-11.644-.851-7.69-.635-11.14-1.445-.423-2.83-.519-4.162.124.262 3.715 2.585-1.607-.74 11.035l-4.12-15.057c-8.136 1.548-13.09 5.63-14.987 13.115-1.553 6.225-1.302 8.446 4.204 10.127 4.006 1.223 9.19 1.672 13.623 1.831 7.384.263 23.149.355 26.658-4.647 1.989-6.337-3.365-19.45-15.556-20.338M32.174 40.695c-1.187-.782-3.966-3.164-4.445-4.186l4.387.044c.62 1.337.986 3.068 2.044 4.115l.971-4.978-.141-1.756a14 14 0 0 0-.39-.263c.662.651-.765-.497 0 0l-.065-.066c-1.2-1.157-1.356-6.57-1.488-8.14 5.316.081 7.208.822 9.983-1.118 3.325-2.327 2.207-.429 1.957-2.841l.032-7.156 4.18-.177-.451-2.63-3.792.04-.025-7.576c1.455.102 1.151-.11 2.253.659l1.418 1.086C48.957 5.04 50.668.98 50.722.78 32.826-3.078 20.425 7.936 19.134 21.82c-.691 7.447 1.428 9.897 3.296 14.96.86.573 1.718 2.227 2.303 2.941.331.407 2.519 2.584 2.924 2.911 1.803 1.46 4.656 3.22 7.507 4.195-1.677-3.754.005-4.166-2.99-6.133m.883-18.019c.201-2.874.402-5.772 1.328-8.337l7.665-.034.044 8.355zM42.08 4.012l.008 7.555-6.856.008c1.273-3.296 3.337-7.344 6.848-7.563m-7.193 1.921a21.1 21.1 0 0 0-2.668 5.64l-1.599-.012h-1.47l-1.474.027c1.246-2.115 4.332-4.475 7.211-5.655m-9.923 9.87c.957-2.378.943-1.211 6.25-1.513l-.986 8.38-6.896.018c.12-2.503.798-4.814 1.632-6.884m.739 17.86c-1.331-2.09-2.202-5.242-2.379-8.188l6.761.006 1.242 8.32zm39.131-10.86c.095.04.106-.25 0 0m-10.74-5.724c.605.921 1.638 1.792 1.926 2.845.398 1.453-.22 1.532-.522 2.765-.012.05-.022.184-.03.223a.7.7 0 0 0-.018.224c2.67.984 6.68 1.214 9.294-.077q.038-.132.089-.26c-.04-.016-.093-.092-.16-.288-1.058-3.128-.913-1.83 1.357-5.251C69.397 12.188 70.674.48 60.342.277c-6.21-.122-8.938 3.752-8.493 9.903.188 2.608 1.066 5.11 2.244 6.899" style="mix-blend-mode:passthrough"/></g></svg>