<svg xmlns="http://www.w3.org/2000/svg" width="37.601" height="26.858" fill="none"><defs><linearGradient id="b" x1=".5" x2=".5" y1="0" y2="1"><stop offset="0%" stop-color="#C0A0F6"/><stop offset="100%" stop-color="#956BD5"/></linearGradient><mask id="a" maskUnits="objectBoundingBox" style="mask-type:alpha"><rect width="37.601" height="26.858" fill="#FFF" rx="0"/></mask></defs><g mask="url(#a)"><path fill="url(#b)" d="M17.005 0H13.43C6.01 0 0 6.012 0 13.43s6.011 13.43 13.429 13.43h10.743c7.417 0 13.429-6.013 13.429-13.43S31.576 0 24.163 0h-7.157m-4.48 11.043L9 7.5l3 8q-.257-3-1-3c-.738 0 1.5-.757 1.5-1.5 0 0 1.054-.725.929-1.6S12 7.5 12 7.5L6.737 9.543c-.739 0-.48 4.182-.48 3.438 0-.738.6-1.342 1.344-1.342v1.79L9.839 9.4a1.343 1.343 0 0 1 2.686 0v2.239h2.237c.74 0-4.368-1.482-1.262-.139-.004.743-3.213-4.486-.975-.457M24.5 8c-.62 0-1.75-.729-2.127 0s0 2.915 0 2.296c0-1.24 3.235 4.029 4.476 4.029C28.089 14.325 28 6.76 28 8c0 1.236-2.265 0-3.5 0m4.5 9c-1.24 0-2.151-.498-2.151-1.738S21.76 8.5 23 8.5s-.627 5.923-.627 7.163S30.236 17 29 17"/></g><path fill="#FFF" d="M27.98 13.483C27.98 8.246 23.73 4 18.49 4S9 8.246 9 13.483c0 4.838 3.625 8.83 8.31 9.41a4.7 4.7 0 0 0 1.28.072c5.195-.053 9.39-4.278 9.39-9.482m-1.357.134a9 9 0 0 0-.185-1.386q.012-.242.006-.455a8.2 8.2 0 0 1 .179 1.841m-16.267-.134q.002-.864.173-1.677c.351.376 1.18.367 1.381-.194.362.215.847.254.847.685 0 1.42.05 2.943 1.341 2.966.037 0 .72.26 1.045 1.103.113.291.557 0 1.045 0 .244 0 0 .41 0 1.297q0 .884 1.905 2.244c-.008.585.016 1.058.064 1.436a3.2 3.2 0 0 0-1.077.146c-3.82-.667-6.724-3.997-6.724-8.006m10.137 7.88c-.043-.207-.227-.32-.564-.231.269-1.144.4-1.785.96-2.271.811-.703.097-1.485-.52-1.393-.487.073-.18-.603-.614-.64-.434-.036-1.001-.9-1.626-1.197-.332-.158-.657-.58-1.168-.598-.453-.018-1.115.383-1.115.074 0-.994-.1-1.704-.121-1.987-.017-.228-.149-.077.463-.062.333.009.17-.67.5-.696.324-.026 1.096.303 1.293.172.182-.122 1.342 3.045 1.342.524 0-.3-.154-.82 0-1.103.613-1.12 1.187-2.033 1.136-2.166-.03-.075-.627-.137-1.106.023-.161.054.052.307-.18.36-.869.201-1.636-.233-1.367-.642.275-.419 1.272-.183 1.36-1.023.05-.481.091-1.038.12-1.453 1.168.183 1.04-1.517-.699-1.699a8.14 8.14 0 0 1 7.59 5.464.33.33 0 0 0-.194-.088c-.525-1.313-1.8-.363-1.368.795-2.319 1.782-1.725 3.025-.963 3.737.4.374.782.937 1.031 1.341-.27.79.998.474 1.624-.866a8.15 8.15 0 0 1-5.814 5.625" style="mix-blend-mode:passthrough"/></svg>