<svg xmlns="http://www.w3.org/2000/svg" fill="none" width="20.301" height="19.917"><g fill="#2F2F30"><path d="M19.65 8.97c-.133-3.32-2.145-6.096-4.97-7.29C10.439-.352 5.567.747 2.439 4.126c-2.29 2.659-2.363 6.593-.315 9.37l-.715 5.164 4.11-2.47c4.084 2.009 8.775 1.11 11.95-1.95 1.43-1.441 2.158-3.343 2.182-5.27z"/><path d="m17.925 14.703.005-.005q2.328-2.346 2.37-5.72v-.033q-.106-2.647-1.591-4.788-1.448-2.088-3.761-3.07-3.34-1.595-6.938-.85Q4.474.97 1.96 3.685l-.007.008-.008.009Q.088 5.858.004 8.748q-.08 2.72 1.44 4.915l-.866 6.254 4.976-2.99q3.068 1.398 6.39.83 3.42-.585 5.976-3.048l.005-.006zm-.913-.925q-2.266 2.18-5.288 2.698-3.081.527-5.92-.87l-.318-.156-3.247 1.952.564-4.079-.157-.213q-1.413-1.915-1.343-4.324.071-2.423 1.62-4.227 2.228-2.402 5.35-3.049 3.176-.657 6.127.756l.014.007.014.006q1.975.834 3.212 2.62 1.265 1.823 1.36 4.08-.041 2.833-1.988 4.799z" fill-rule="evenodd"/></g><path d="M12.341 6.194c.437 0 .873.118 1.2.354.606.426.885 1.253.8 1.997-.06.52-.29.993-.642 1.37-1.164 1.064-2.388 2.14-3.552 3.203-1.163-1.063-2.387-2.127-3.551-3.202a2.502 2.502 0 0 1-.642-1.37c-.073-.745.206-1.572.812-1.998a2.1 2.1 0 0 1 1.2-.354c.375 0 .751.083 1.078.26q.534.283 1.103 1.335.57-1.052 1.103-1.347a2.42 2.42 0 0 1 1.091-.248zm0-.84c-.533 0-1.042.13-1.49.367-.255.13-.485.343-.691.58a2.6 2.6 0 0 0-.691-.58 3.192 3.192 0 0 0-1.491-.366c-.643 0-1.249.189-1.71.52-.836.579-1.284 1.666-1.163 2.753.073.662.376 1.323.849 1.843.012.024.036.036.048.047.582.544 1.188 1.076 1.794 1.62.594.531 1.188 1.063 1.77 1.594.17.154.375.225.594.225.218 0 .424-.071.594-.225.581-.531 1.175-1.063 1.77-1.595.593-.531 1.2-1.075 1.781-1.607.024-.012.036-.035.048-.047a3.29 3.29 0 0 0 .849-1.843c.121-1.087-.327-2.174-1.152-2.765a3.002 3.002 0 0 0-1.709-.52z" fill="#E56A17"/></svg>