<svg xmlns="http://www.w3.org/2000/svg" width="53" height="53" fill="none"><defs><clipPath id="a"><rect width="36" height="36" x="9" y="9" rx="0"/></clipPath></defs><circle cx="26.5" cy="26.5" r="26.5" fill="#5AACFE"/><g clip-path="url(#a)"><path fill="#FFF" d="M27 9c-8.57 0-15.545 6.855-15.545 15.274-.01 3.106.95 6.139 2.742 8.676.08.158.18.298.282.437L25.83 44.484A1.56 1.56 0 0 0 27 45c.444 0 .848-.178 1.21-.574l11.292-11.04c.12-.138.201-.297.262-.397a15.06 15.06 0 0 0 2.781-8.715C42.545 15.854 35.57 9 27 9m0 21.273a5.744 5.744 0 0 1-5.727-5.737A5.727 5.727 0 1 1 27 30.273" style="mix-blend-mode:passthrough"/></g></svg>