<svg class="icon" viewBox="0 0 1024 1024" xmlns="http://www.w3.org/2000/svg" width="128" height="128"><path d="M528.981 148.992a30.592 30.592 0 0 1 20.992-7.979c8.022 0 15.019 2.987 20.992 8.96 5.974 5.974 9.003 13.014 9.003 20.992 0 8.022-2.987 15.019-8.96 20.992L258.987 512l311.978 320c5.974 5.973 9.003 13.184 9.003 21.504a27.733 27.733 0 0 1-8.96 20.992 29.739 29.739 0 0 1-21.035 8.533 30.379 30.379 0 0 1-20.992-8.021L197.973 533.973a32.853 32.853 0 0 1-8.96-22.485 29.44 29.44 0 0 1 8.96-21.504l331.008-340.992zm256 0a30.592 30.592 0 0 1 20.992-7.979c8.022 0 15.019 2.987 20.992 8.96 5.974 5.974 9.003 13.014 9.003 20.992 0 8.022-2.987 15.019-8.96 20.992L514.987 512l311.978 320c5.974 5.973 9.003 13.184 9.003 21.504a27.733 27.733 0 0 1-8.96 20.992 29.739 29.739 0 0 1-21.035 8.533 30.379 30.379 0 0 1-20.992-8.021L453.973 534.016a32.853 32.853 0 0 1-8.96-22.485 29.44 29.44 0 0 1 8.96-21.504l331.008-340.992z" fill="#08080A" fill-opacity=".96"/></svg>