<svg class="icon" viewBox="0 0 1024 1024" xmlns="http://www.w3.org/2000/svg" width="128" height="128"><path d="M452.992 148.992q8.992-8 20.992-8t20.992 8l331.008 340.992q8.992 8.992 8.992 22.016t-8.992 22.016L494.976 875.008q-8.992 8-20.992 8t-20.992-8.992T444 853.024t8.992-20.992l312-320-312-320Q444 183.04 444 171.04t8.992-22.016zm-256 0q8.992-8 20.992-8t20.992 8l331.008 340.992q8.992 8.992 8.992 22.016t-8.992 22.016L238.976 875.008q-8.992 8-20.992 8t-20.992-8.992T188 853.024t8.992-20.992l312-320-312-320Q188 183.04 188 171.04t8.992-22.016z"/></svg>