<svg xmlns="http://www.w3.org/2000/svg" fill="none" width="20" height="20"><defs><clipPath id="a"><rect width="20" height="20" rx="0"/></clipPath></defs><g clip-path="url(#a)"><path d="m15.936 6.485-2.418-2.42 1.25-1.252c.418-.417 1.085-.417 1.419 0l1 1.001c.417.418.417 1.085 0 1.42l-1.25 1.25zm-7.004 7.01-2.419-2.42 6.588-6.51 2.418 2.42-6.587 6.51zm-4.337 2.002 1.501-3.922 2.419 2.42-3.92 1.502zm12.32.835a.57.57 0 0 1 .585.584.57.57 0 0 1-.584.584H3.084c-.365 0-.584-.25-.584-.584a.57.57 0 0 1 .584-.584h13.832z" fill="#044DA5" style="mix-blend-mode:passthrough"/></g></svg>