<svg xmlns="http://www.w3.org/2000/svg" fill="none" width="16" height="16"><defs><clipPath id="a"><rect width="16" height="16" rx="0"/></clipPath></defs><g clip-path="url(#a)"><path d="M1.333 2c0-.368.299-.667.667-.667h4.667c.368 0 .666.299.666.667v4.667a.667.667 0 0 1-.666.666H2a.667.667 0 0 1-.667-.666V2zm1.334.667V6H6V2.667H2.667zm6-.667c0-.368.298-.667.666-.667H14c.368 0 .667.299.667.667v4.667a.667.667 0 0 1-.667.666H9.333a.667.667 0 0 1-.666-.666V2zM10 2.667V6h3.333V2.667H10zM1.333 9.333c0-.368.299-.666.667-.666h4.667c.368 0 .666.298.666.666V14a.667.667 0 0 1-.666.667H2A.667.667 0 0 1 1.333 14V9.333zM2.667 10v3.333H6V10H2.667zm6-.667c0-.368.298-.666.666-.666H14c.368 0 .667.298.667.666V14a.667.667 0 0 1-.667.667H9.333A.667.667 0 0 1 8.667 14V9.333zM10 10v3.333h3.333V10H10z" fill-rule="evenodd" fill="#FFF"/></g></svg>