<svg xmlns="http://www.w3.org/2000/svg" fill="none" width="18" height="18"><defs><clipPath id="a"><rect width="18" height="18" rx="0"/></clipPath></defs><g clip-path="url(#a)"><path d="M2.909 1.409A2.25 2.25 0 0 1 4.5.75h6a.75.75 0 0 1 .53.22l4.5 4.5c.14.14.22.331.22.53v9a2.25 2.25 0 0 1-2.25 2.25h-9A2.25 2.25 0 0 1 2.25 15V3c0-.597.237-1.169.659-1.591zM4.5 2.25a.75.75 0 0 0-.75.75v12a.75.75 0 0 0 .75.75h9a.75.75 0 0 0 .75-.75V6.75H10.5A.75.75 0 0 1 9.75 6V2.25H4.5zm6.75 1.06 1.94 1.94h-1.94V3.31zm-6 3.44A.75.75 0 0 1 6 6h1.5a.75.75 0 0 1 0 1.5H6a.75.75 0 0 1-.75-.75zm0 3A.75.75 0 0 1 6 9h6a.75.75 0 1 1 0 1.5H6a.75.75 0 0 1-.75-.75zm0 3A.75.75 0 0 1 6 12h6a.75.75 0 0 1 0 1.5H6a.75.75 0 0 1-.75-.75z" fill-rule="evenodd" fill="#000"/></g></svg>