<svg xmlns="http://www.w3.org/2000/svg" xmlns:xlink="http://www.w3.org/1999/xlink" fill="none" version="1.1" width="18" height="16" viewBox="0 0 18 16"><g><g><path d="M12.3994,0C14.9563,0,17.1622,1.75869,17.8109,4.22147C17.9364,4.69831,18,5.19133,18,5.69205C18,6.81367,17.691,7.79047,17.126,8.77342C17.0013,8.99066,16.7654,9.12701,16.5063,9.1324C16.248,9.13779,16.0057,9.00992,15.8713,8.79807C15.7377,8.58623,15.7313,8.322,15.856,8.10476C16.3115,7.31208,16.5506,6.55638,16.5506,5.69129C16.5506,5.30457,16.5007,4.92557,16.4049,4.55965C15.914,2.6962,14.2706,1.38585,12.3978,1.38585C11.3226,1.38585,10.2997,1.81261,9.5207,2.58912C9.38469,2.7247,9.19637,2.80173,8.9992,2.80173C8.80283,2.80173,8.6145,2.72547,8.47769,2.58989C7.7067,1.8234,6.66047,1.38662,5.60055,1.38662C3.32299,1.38662,1.44863,3.30785,1.44863,5.69205C1.44863,6.86143,1.79308,7.6364,2.67996,8.94444C3.38415,9.99056,4.61146,11.237,6.14862,12.5504C6.59125,12.9286,7.0363,13.293,7.4717,13.6358L7.88697,13.9586L8.21372,14.2066L8.52678,14.4393L8.57426,14.474C8.69981,14.5664,8.84467,14.6142,9.0008,14.6142C9.15774,14.6142,9.3026,14.5664,9.43378,14.4686L9.7396,14.2405L10.0647,13.9925L10.4446,13.6967C10.7536,13.4532,11.21,13.4956,11.4643,13.7914C11.7186,14.0872,11.6743,14.524,11.3653,14.7675L10.9717,15.074L10.4921,15.4384L10.3158,15.5686C9.94,15.849,9.47724,16.0008,9.0008,16C8.56541,16.0008,8.14048,15.8737,7.78235,15.6364L7.64553,15.5393L7.31959,15.2974L6.88661,14.9662C6.30797,14.5186,5.73978,14.058,5.18448,13.5842C3.55719,12.1945,2.25342,10.8711,1.46392,9.69706C0.437003,8.18334,0,7.20038,0,5.69205C0,2.56293,2.50049,0,5.60055,0C6.80694,0,7.98837,0.40674,8.9501,1.13317L8.99839,1.17015L9.0507,1.13009C9.97138,0.430621,11.0828,0.0346654,12.2465,0.002311L12.3994,0Z" fill="#666666" fill-opacity="1"/></g><g><path d="M16.034698921813966,11.090609550476074C16.422608921813964,11.090609550476074,16.742108921813966,11.384109550476074,16.758208921813964,11.755414550476074C16.774298921813966,12.126719550476075,16.481358921813964,12.444099550476075,16.094248921813964,12.474909550476074L16.034698921813966,12.477229550476075L11.896450921813965,12.477229550476075C11.508539921813965,12.477229550476075,11.189038221813965,12.183729550476075,11.172941350813964,11.812419550476074C11.156845721813966,11.441114550476074,11.449789921813965,11.123733650476074,11.836895921813966,11.092920480476074L11.896450921813965,11.090609550476074L16.034698921813966,11.090609550476074Z" fill="#666666" fill-opacity="1"/></g><g><path d="M13.966377522338867,9.110060691833496C14.343023522338868,9.110060691833496,14.656893522338867,9.386612691833497,14.688273522338868,9.746362691833497L14.690693522338867,9.803368691833496L14.690693522338867,13.764460691833495C14.690693522338867,14.135770691833496,14.384063522338867,14.441590691833497,13.996154522338868,14.457000691833496C13.608243522338867,14.472410691833495,13.276669022338867,14.192000691833496,13.244477802338867,13.821470691833497L13.242063522338867,13.764460691833495L13.242063522338867,9.803367691833497C13.242063522338867,9.420508691833495,13.566396522338867,9.110060691833496,13.966377522338867,9.110060691833496Z" fill="#666666" fill-opacity="1"/></g></g></svg>
