<svg xmlns="http://www.w3.org/2000/svg" fill="none" width="13.815" height="35.894"><path d="M7.93 17.018c1.61.004 2.918 1.606 2.93 3.584v.04c-.012.835-.568 1.51-1.249 1.51h-.868L6.18 13.494l-2.365 1.06 2.246 7.598H5.89c-1.618 0-2.935-1.62-2.935-3.61V5.174c0-.847.56-1.536 1.248-1.536h3.722c1.618 0 2.935 1.62 2.935 3.612 0 .848-.56 1.537-1.249 1.537-1.618 0-2.932-1.619-2.934-3.61l-.239.107-1.207.54-.567.254-.85.38c.475 3.263 2.73 5.775 5.477 5.955h.002c.106.007.21.012.318.012 2.319 0 4.204-2.321 4.204-5.175 0-3.997-2.642-7.25-5.89-7.25H4.203C1.885 0 0 2.323 0 5.174v13.368c0 3.995 2.644 7.248 5.89 7.248H9.61c.112 0 .224-.004.336-.016-1.043 2.804-2.92 5.048-5.23 6.258l-.013.007a8.787 8.787 0 0 1-.963.432l1.009 3.407.004.016a11.92 11.92 0 0 0 2.3-1.221c4.02-2.728 6.753-7.993 6.761-14.032v-.04c-.01-3.544-2.098-6.497-4.843-7.105l-.52 1.761-.521 1.76-.004.015.004-.014z" fill="#646464"/></svg>