<svg xmlns="http://www.w3.org/2000/svg" fill="none" width="18" height="18"><defs><clipPath id="a"><rect width="18" height="18" rx="0"/></clipPath></defs><g clip-path="url(#a)"><path d="M5.43 2.25h7.14a2.252 2.252 0 0 1 2.014 1.248l2.587 5.166A.75.75 0 0 1 17.25 9v4.5A2.25 2.25 0 0 1 15 15.75H3A2.25 2.25 0 0 1 .75 13.5V9a.75.75 0 0 1 .08-.336L3.415 3.5v-.001A2.25 2.25 0 0 1 5.43 2.25zm0 1.5a.75.75 0 0 0-.67.416l-.002.002L2.714 8.25H6a.75.75 0 0 1 .624.334L7.901 10.5H10.1l1.277-1.916A.75.75 0 0 1 12 8.25h3.286l-2.044-4.082-.001-.002a.75.75 0 0 0-.671-.416H5.43zm10.32 6h-3.349l-1.277 1.916A.75.75 0 0 1 10.5 12h-3a.75.75 0 0 1-.624-.334L5.599 9.75H2.25v3.75a.75.75 0 0 0 .75.75h12a.75.75 0 0 0 .75-.75V9.75z" fill-rule="evenodd" fill="#000"/></g></svg>