<svg xmlns="http://www.w3.org/2000/svg" fill="none" width="33.526" height="29.071"><path d="M32.864 23.847c-1.68 2.435-3.552 4.648-5.374 5.123v.102H25.47c.226-.02.45-.053.672-.102-1.83-.476-4.377-2.694-6.057-5.133a5.16 5.16 0 0 1-.264-.44l-.391.389H7.978c-.02 2.371-.63 3.502-2.643 3.523-.199-.021-1.34.012-1.539 0-2.281 0-2.863-1.742-2.865-4.404.039-.587.039-1.175 0-1.762a9.89 9.89 0 0 1 1.463-10.64c.011-.123.03-.246.056-.367-1.416-.969-4.281-3.363-.643-4.85 1.033.012 1.775.01 2.208.006C5.168 2.68 6.948.06 9.405 0h12.622c2.415.06 4.195 2.676 5.36 5.286.13 0 1.036.02 2.62 0 3.97 1.622.199 4.323-.986 5.078.008.053.017.116.017.14.36.589.682 1.2.964 1.83v.269c2.05.57 3.506 1.921 3.524 2.52v6.974a4.708 4.708 0 0 1-.663 1.75zM29.12 7.93c.771.137 1.674-.84.881-.881-.709.007-.856 0-.88 0a4.614 4.614 0 0 0 0 .88zM2.693 7.048c-.025 0-.172.005-.881 0-.793.041.11 1.018.88.88a4.603 4.603 0 0 0 0-.88zm18.516-5.286H10.084c-2.89.072-4.721 4.253-5.588 7.048h22.288c-.884-2.795-2.734-6.976-5.575-7.048zm6.181 9.487a5.039 5.039 0 0 0-.124-.678H4.024c-.056.223-.096.45-.121.678-3.612 4.677-1.478 8.253-1.233 8.606.034.632.034 1.265 0 1.898 0 2.404-.42 3.794 1.59 3.795.177.01.441-.02.617 0 .95-.048 1.375-.323 1.341-1.762v-1.762h13.213v-6.9c.023-.764 2.393-2.79 5.373-2.79h2.908a1.855 1.855 0 0 1-.322-1.085zm4.374 5.049c-.017-.606-1.794-2.203-4.027-2.203H25.22c-2.233 0-4.01 1.596-4.027 2.203v5.506c.037.493.207.968.491 1.373 1.26 1.926 3.172 3.677 4.542 4.052a3.56 3.56 0 0 1-.503.08h1.51v-.08c1.37-.375 2.773-2.122 4.033-4.044.254-.424.423-.893.498-1.381v-5.506zm-1.907 5.582q-.345.55-.544.894a4.522 4.522 0 0 1-1.548-1.58v1.975h-.978v-1.93a6.6 6.6 0 0 1-1.618 1.618 7.71 7.71 0 0 0-.523-.826 5.886 5.886 0 0 0 1.634-1.396H24.84v-.785h1.948v-.617h-1.498v-2.574h4.033v2.574h-1.557v.617h2.009v.785h-1.58a4.13 4.13 0 0 0 1.663 1.245zm-1.453-3.468v-.936h-2.202v.936h2.202zm-3.82 4.757h-.867v-3.063q-.23.396-.482.757c-.05-.44-.125-.877-.227-1.308.547-1 .95-2.073 1.198-3.186l.922.275a16.894 16.894 0 0 1-.544 1.645v4.88zm-7.796-3.788h-4.405a.881.881 0 0 1 0-1.762h4.405a.881.881 0 0 1 0 1.762zm0-3.524h-3.524a.88.88 0 0 1 0-1.762h3.524a.88.88 0 0 1 0 1.762zM7.098 18.5a2.643 2.643 0 1 1 0-5.286 2.643 2.643 0 0 1 0 5.286zm0-3.524a.881.881 0 1 0 0 1.762.881.881 0 0 0 0-1.762z" fill="#044DA5"/></svg>