<svg xmlns="http://www.w3.org/2000/svg" fill="none" width="29" height="29"><defs><clipPath id="a"><rect width="29" height="29" rx="0"/></clipPath></defs><g clip-path="url(#a)"><path d="M23.538 16.288c.435-.676.29-1.595-.435-2.03-.966-.628-2.03-1.111-3.093-1.546 1.402-1.354 2.32-3.239 2.32-5.365A7.343 7.343 0 0 0 14.983 0c-4.06 0-7.395 3.287-7.395 7.347 0 2.078.919 4.011 2.32 5.316C4.253 14.742.242 20.155.242 26.487c0 .821.676 1.45 1.45 1.45.773 0 1.45-.677 1.45-1.45 0-6.477 5.268-11.794 11.793-11.794 2.32 0 4.592.677 6.525 1.982.725.483 1.643.29 2.078-.387zM10.537 7.347a4.414 4.414 0 0 1 4.398-4.399 4.414 4.414 0 0 1 4.398 4.399c0 2.416-1.933 4.446-4.35 4.446-2.416 0-4.446-1.981-4.446-4.446z" fill="#044DA5"/><path d="M25.568 24.408h3.094v-1.256h-3.867v-1.45h2.948v-4.495h-7.25v4.495h2.9v1.45h-3.915v1.256h3.094c-.774 1.16-1.934 2.079-3.384 2.9.194.194.484.532.822 1.015a7.937 7.937 0 0 0 3.383-3.286V29h1.402v-4.012c.628 1.257 1.692 2.32 3.238 3.19.049-.096.194-.29.339-.58.193-.29.29-.483.338-.58-1.45-.725-2.562-1.595-3.142-2.61zm-3.721-3.866v-2.079h4.591v2.079h-4.591zm-3.384-3.819a23.477 23.477 0 0 1-2.32 5.8c.049.194.097.532.145.967.049.29.097.58.145.773.435-.58.774-1.16 1.112-1.691V29h1.305v-9.135c.387-.918.677-1.837.918-2.803l-1.305-.339z" fill="#044DA5"/></g></svg>