<svg xmlns="http://www.w3.org/2000/svg" fill="none" width="20" height="20"><defs><clipPath id="a"><rect width="20" height="20" rx="0"/></clipPath></defs><g clip-path="url(#a)"><path d="M6.817 4.735c-.368-.041-.572.122-.654.408-.245 1.306-.571 2.367-1.02 3.224-.204.327-.286.613-.286.817.123.49.409.612.898.367v4.286c.041.367.205.53.572.53.367-.04.53-.204.571-.571V7.184c.123-.409.245-1.02.408-1.878 0-.326-.163-.53-.49-.571zm7.755 5.02c0-.367-.164-.53-.53-.571h-2.735v-.53h1.713c.613.04.94-.246.858-.858V5.96c.04-.613-.246-.94-.94-.899H8.695c-.694-.04-1.061.245-1.02.857v1.878c-.082.653.285.939 1.06.857h1.388v.53H7.837c-.408.042-.612.205-.653.572.04.367.245.53.653.571h1.877c-.612.899-1.428 1.715-2.326 2.45-.326.285-.367.53-.123.816.327.245.653.245.98 0 .612-.367 1.265-1.02 1.877-1.877v2.122c.041.367.246.53.613.53.367-.04.53-.245.571-.612v-2c.776.857 1.429 1.47 1.918 1.796.45.367.858.367 1.143 0 .164-.204.123-.449-.122-.694-1.143-.857-2-1.673-2.694-2.53h2.367c.45-.042.613-.205.654-.572zm-5.43-2.204c-.203.04-.325-.041-.285-.245v-.898c-.04-.163.082-.245.286-.245h3.347c.163 0 .245.082.245.245v.939c.04.163-.041.245-.245.204H9.143z" fill="#646464"/><path d="M17.184 2.45 10.857.366a3.061 3.061 0 0 0-1.714 0L2.816 2.45a2.378 2.378 0 0 0-1.632 2.286v4.571a9.513 9.513 0 0 0 3.755 7.551c.04.041.122.082.204.123.163.081.286.204.49.326.49.368.98.694 1.47 1.02.04.041.04.041.122.041C9.265 19.796 9.55 19.96 10 19.96c.49 0 .775-.204 2.775-1.592.082 0 .082 0 .123-.04.49-.327.98-.694 1.47-1.02.163-.123.326-.246.49-.327q.081-.082.162-.123a9.431 9.431 0 0 0 3.796-7.55V4.693c0-1.02-.653-1.959-1.632-2.245zm.163 6.856a7.869 7.869 0 0 1-3.184 6.327q-3.918 2.816-4.204 2.816-.245 0-4.204-2.816c-1.918-1.47-3.102-3.837-3.102-6.327V4.98c0-.53.327-1.02.857-1.184l6-1.96c.33-.122.691-.122 1.02 0l6 1.96c.49.164.858.653.858 1.184v4.326h-.041z" fill="#646464"/></g></svg>