<svg xmlns="http://www.w3.org/2000/svg" xmlns:xlink="http://www.w3.org/1999/xlink" fill="none" version="1.1" width="15" height="18" viewBox="0 0 15 18"><defs><mask id="master_svg0_63_0724"><g><rect x="0" y="0" width="15" height="18" rx="0" fill="#FFFFFF" fill-opacity="1"/></g></mask></defs><g><g><g mask="url(#master_svg0_63_0724)"><g><path d="M1.78314,1.638326941293031C1.71806,1.638326941293031,1.664,1.690416941293031,1.664,1.755286941293031L1.664,15.564596941293031L3.67641,14.15329694129303C3.96576,13.949896941293032,4.35423,13.949896941293032,4.64357,14.15329694129303L7.48799,16.14739694129303L10.3324,14.15329694129303C10.6217,13.949896941293032,11.0102,13.949896941293032,11.2996,14.15329694129303L13.312,15.564596941293031L13.312,1.755286941293031C13.312,1.691396941293031,13.2589,1.638326941293031,13.1928,1.638326941293031L1.78314,1.638326941293031ZM0,1.755286941293031C0,0.789188941293031,0.797958,0.005896941293030977,1.78314,0.005896941293030977L13.1928,0.005896941293030977C14.177,0.005896941293030977,14.976,0.789188941293031,14.976,1.755286941293031L14.976,17.15089694129303C14.976,17.456496941293032,14.8018,17.73759694129303,14.5254,17.877196941293032C14.2481,18.01669694129303,13.9147,17.993096941293032,13.6604,17.81519694129303L10.816,15.821096941293032L7.97157,17.81519694129303C7.68222,18.01869694129303,7.29375,18.01869694129303,7.0044,17.81519694129303L4.15999,15.821096941293032L1.31558,17.81519694129303C1.06227,17.993096941293032,0.727873,18.01669694129303,0.451541,17.877196941293032C0.174209,17.73659694129303,0,17.456496941293032,0,17.15089694129303L0,1.755286941293031Z" fill="#666666" fill-opacity="1"/></g></g></g><g><path d="M4.635562053131103,4.437346935272217C4.338205053131103,4.437346935272217,4.063876053131104,4.592629935272217,3.9146970531311034,4.845209935272217C3.7655181531311035,5.0977889352722165,3.7655181531311035,5.409336935272217,3.9146970531311034,5.661916935272217C4.062875053131103,5.914496935272217,4.338205053131103,6.069776935272217,4.635562053131103,6.069776935272217L10.340413053131105,6.069776935272217C10.637763053131103,6.069776935272217,10.912093053131104,5.914496935272217,11.061273053131103,5.661916935272217C11.210453053131104,5.409337935272217,11.210453053131104,5.0977889352722165,11.061273053131103,4.845209935272217C10.913093053131103,4.592629935272217,10.637763053131103,4.437346935272217,10.340413053131105,4.437346935272217L4.635562053131103,4.437346935272217ZM4.635562053131103,8.170026935272217C4.176011053131104,8.170026935272217,3.8035639241311037,8.535626935272216,3.8035639241311037,8.986736935272216C3.8035639241311037,9.437836935272216,4.176011053131104,9.803436935272217,4.635562053131103,9.803436935272217L10.340413053131105,9.803436935272217C10.799963053131105,9.803436935272217,11.172403053131102,9.437836935272216,11.172403053131102,8.986736935272216C11.172403053131102,8.535626935272216,10.799963053131105,8.170026935272217,10.340413053131105,8.170026935272217L4.635562053131103,8.170026935272217Z" fill="#666666" fill-opacity="1"/></g></g></svg>
