<svg xmlns="http://www.w3.org/2000/svg" fill="none" width="26" height="26"><defs><linearGradient x1=".071" y1=".071" x2=".929" y2=".929" id="a"><stop offset="0%" stop-color="#FAA37C"/><stop offset="100%" stop-color="#E6791E"/></linearGradient></defs><path d="M19.696 26H6.304A6.305 6.305 0 0 1 0 19.696V6.304A6.305 6.305 0 0 1 6.304 0h13.392A6.305 6.305 0 0 1 26 6.304v13.392A6.305 6.305 0 0 1 19.696 26z" fill="url(#a)"/><path d="M19.216 8.937 13.19 6.043a.433.433 0 0 0-.377 0L6.779 8.937a.299.299 0 0 0-.153.267c0 .113.06.218.153.268l6.013 3.394c.137.08.302.08.439 0l5.999-3.394a.3.3 0 0 0 .145-.272.301.301 0 0 0-.159-.263zm-5.402 12.016 6.064-3.434a.299.299 0 0 0 .121-.244v-6.666a.271.271 0 0 0-.112-.236.24.24 0 0 0-.247-.02l-6.064 3.345a.29.29 0 0 0-.14.255v6.76a.277.277 0 0 0 .119.246.241.241 0 0 0 .259.005v-.01zM6 10.61v6.664c0 .096.046.186.122.24l6.064 3.436c.079.053.18.054.259.003a.273.273 0 0 0 .118-.248v-6.746a.292.292 0 0 0-.14-.256L6.36 10.354a.24.24 0 0 0-.247.018.281.281 0 0 0-.113.237z" fill="#FFF"/></svg>