<svg xmlns="http://www.w3.org/2000/svg" fill="none" width="18.135" height="18.051"><path d="m1.523 16.745 4.69-.018 4.258.311 2.04-.49.435-2.28-5.807-.625-3.275-.014-2.665.12-.255 1.45.257 1.528.322.018z" fill="#FBC501"/><path d="m10.251 3.13-.088 1.352 1.996.13.17-2.603L8.78 0 5.788.465 3.736 2.62v1.838h2V3.42l1.031-1.082 1.634-.254 1.85 1.048z" fill-rule="evenodd" fill="#333"/><path d="M1.27 3.637.014 15.045 0 15.178l.414 2.61 5.704-.105 4.613.368 2.567-.64 1.429-6.897.307-6.877H1.27zm.747 11.493.1.626 4.063-.075 4.384.35 1.03-.257 1.142-5.509.207-4.628H3.06L2.017 15.13z" fill-rule="evenodd" fill="#333"/><path d="m17.15 11.966-2.2-7.607-1.922.556 2.168 7.494.558 3.38-3.248-.195-.12 1.996 5.749.345-.985-5.969z" fill-rule="evenodd" fill="#333"/><path stroke="#333" stroke-width="2" d="M1.225 12.862h2.876" transform="matrix(.9998 -.01975 .04012 .9992 -.556 .035)"/><path stroke="#333" stroke-width="2" d="M7.012 12.804h5.927" transform="matrix(.99504 .0995 -.20023 .97975 2.799 -.418)"/><path d="m7.077 7.885-.414-.012-.022.288c.23.009.426-.115.436-.276zM7.973 10.38c-.226-.009-.449-.013-.67-.027-.398-.034-.715-.251-.77-.53a.462.462 0 0 1-.007-.132l.088-1.126c.008-.223.251-.407.568-.43a.57.57 0 0 1 .079 0c.22.009.44.008.658.028.322.027.596.177.71.39.049.088.07.183.058.277q-.045.559-.087 1.118c-.037.568-.569 1.062-1.34 1.245-.031.008-.066.014-.1.021-.033.007-.025 0-.03-.012-.039-.09-.076-.18-.117-.27-.008-.018.007-.017.023-.02a1.82 1.82 0 0 0 .497-.17c.178-.092.325-.21.432-.345l.008-.018z" fill="#333"/></svg>