<svg width="80" height="87.66" xmlns="http://www.w3.org/2000/svg" version="1.1" fill="none">
 <g>
  <g id="svg_1">
   <g id="svg_2">
    <path id="svg_3" fill="#EBB831" d="m30.33318,0.3808l-7.573,0l0,7.591c4.182,0 7.574,-3.401 7.574,-7.591"/>
   </g>
   <g id="svg_4">
    <path id="svg_5" fill="#0D4C99" d="m44.80718,45.3298c4.472,0.011 8.112,3.635 8.144,8.11l0,0.091a3.479,3.479 0 0 1 -3.471,3.418l-2.415,0l-7.126,-19.59l-6.577,2.399l6.245,17.191l-0.475,0c-4.498,0 -8.159,-3.667 -8.159,-8.168l0,-30.247a3.476,3.476 0 0 1 3.47,-3.477l10.349,0c4.498,0 8.159,3.667 8.159,8.173a3.476,3.476 0 0 1 -3.471,3.477c-4.498,0 -8.154,-3.662 -8.159,-8.169l-0.665,0.244l-3.355,1.22l-1.577,0.575l-2.362,0.862c1.32,7.381 7.589,13.065 15.227,13.473l0.005,0c0.295,0.016 0.585,0.026 0.885,0.026c6.446,0 11.688,-5.251 11.688,-11.706c0,-9.047 -7.347,-16.405 -16.377,-16.405l-10.348,0c-6.445,0 -11.688,5.256 -11.688,11.707l0,30.247c0,9.039 7.353,16.399 16.377,16.399l10.348,0q0.467,0.001 0.934,-0.038a28.167,28.167 0 0 1 -14.542,14.159l-0.037,0.016c-0.87,0.369 -1.768,0.698 -2.68,0.977l2.806,7.709l0.011,0.037a36.22,36.22 0 0 0 6.397,-2.763c11.178,-6.17 18.778,-18.084 18.799,-31.746l0,-0.091c-0.026,-8.019 -5.833,-14.703 -13.465,-16.076l-1.445,3.983l-1.45,3.983zl-0.011,0.032l0.011,-0.032z"/>
   </g>
  </g>
 </g>
</svg>
