<svg xmlns="http://www.w3.org/2000/svg" fill="none" width="19.339" height="18"><path d="m3.307 6.768 4.644.369 3.969-.438 3.807.004 2.394-.552-1.24 7.89-2.729-.657-2.232-.22-7.806.227" fill="#FBC501"/><path d="M19.049 3.205 15.209.61l-1.12 1.657.376.254-3.538 1.088-5.888-.306-.797-.503L6.053 2H11.3V0H5.631L0 2.488l4.413 2.785 6.763.351 7.873-2.42z" fill-rule="evenodd" fill="#333"/><path d="m15.01 18 2.294-14.912-1.977-.304L13.294 16H5.586L3.854 4.576l-1.977.3L3.866 18H15.01z" fill-rule="evenodd" fill="#333"/><path d="m11.954 12.163-7.869.229.058 1.999 7.742-.225 2.1.206 3.715.895L19.34 4.843l-3.725.86-3.749-.004-3.93.434-4.549-.362-.158 1.994 4.738.376 4.008-.442 3.867.004 1.062-.245-.842 5.357-1.742-.42-2.365-.232z" fill-rule="evenodd" fill="#333"/><path d="M8.888 8.452h-.317v.28c.175 0 .317-.125.317-.28zM9.73 10.844h-.52c-.306-.019-.56-.218-.62-.485a.566.566 0 0 1-.013-.13V9.135c-.007-.217.169-.405.412-.439a.368.368 0 0 1 .06-.005c.17 0 .34-.009.508 0 .363.027.64.298.632.62v1.09c.005.554-.374 1.054-.956 1.26l-.076.025c-.013.005-.02 0-.024-.01l-.106-.256c-.007-.018 0-.018.016-.022.136-.04.262-.103.372-.183a1.07 1.07 0 0 0 .31-.351l.004-.019z" fill="#333"/></svg>