<svg xmlns="http://www.w3.org/2000/svg" fill="none" width="40.8" height="42.05"><path d="M33.696 34.618h-2.524v1.937l-.764-1.937h-2.54v6.986h2.51V39.62l.792 1.984h2.526v-6.986zm-1.724.8v1.232l.349 3.036h-.773l-1.685-4.268h-1.195v5.386h.91v-1.22l-.333-3.035h.77l1.697 4.255h1.184v-5.386h-.924zM27.503 41.604l-2.315-6.986H22.416l-2.315 6.986h2.712l.34-1.458h1.232l.34 1.458h2.778zm-2.893-6.186 1.785 5.386H25.36l-.34-1.458h-2.502l-.34 1.458h-.97l1.786-5.386h1.616zm-1.994 3.336h2.287l-.844-2.783h-.636l-.807 2.783zm1.208-.8-.073-.242-.07.242h.143zM5.697 34.618H0v2.323h1.554v2.352H0v2.31h5.697v-2.31h-1.54v-2.352h1.54v-2.323zm-4.897.8v.723h1.554v3.952H.8v.71h4.097v-.71h-1.54v-3.952h1.54v-.723H.8zM12.906 39.46q-.001 1.095-.833 1.827-.867.763-2.284.763-1.654 0-2.9-1.083l-.295-.256 1.528-1.847.306.237q.758.586 1.492.586.208 0 .318-.034-.11-.091-.525-.256l-.132-.053-.882-.339q-.764-.265-1.206-.816Q7 37.576 7 36.725q0-1.08.858-1.807.85-.72 2.14-.72 1.511 0 2.6 1.028l.265.252-1.355 1.718-.307-.203q-.654-.432-1.307-.432-.266 0-.266.06 0 .044.824.347l.768.288q1.705.628 1.686 2.204zm-1.068-.897q.275.332.268.888v.006q0 .735-.562 1.23-.64.563-1.755.563-1.156 0-2.068-.646l.534-.646q.82.53 1.665.53.502 0 .796-.178.385-.233.36-.657-.029-.423-.45-.704-.189-.125-.619-.296l-.14-.055-.894-.344-.006-.003Q7.8 37.848 7.8 36.725q0-.71.575-1.197.626-.53 1.623-.53 1.005 0 1.772.575l-.445.563q-.702-.375-1.431-.375-.424 0-.696.175-.37.237-.37.684 0 .444.484.73.227.135.86.367l.772.29q.625.23.894.556zM16.667 39.293h2.899v2.31h-5.501v-6.985h2.602v4.675zm-.8-3.875v4.675h2.899v.71h-3.901v-5.385h1.002zM39.74 40.854q1.06-.886 1.06-2.776 0-3.46-3.717-3.46h-2.359v6.986h2.463q1.657 0 2.554-.75zm-.517-4.898q.777.613.777 2.122 0 1.516-.773 2.162-.673.564-2.04.564h-1.663v-5.386h1.559q1.46 0 2.14.538zm-.881 3.882q.617-.474.617-1.747 0-1.285-.622-1.733-.392-.282-1.346-.282h-.465v4.083h.465q.934 0 1.351-.321zm-.473-2.83q.29.208.29 1.083 0 .879-.305 1.113-.145.111-.528.143v-2.462q.41.026.543.122z" fill-rule="evenodd" fill="#727171"/><g><path d="M12.574 0v4.281h.65q1.494 0 2.55-1.068Q16.825 2.15 16.825.65V0h-4.251zm1.3 2.893q.544-.158.975-.594.436-.44.591-.999h-1.566v1.593z" fill-rule="evenodd" fill="#727171"/><path d="m22.396 14.74-.63 1.751-.001.005-.32.91-1.12-3.093-3.239 1.19V10.35q.59 1.547 1.89 2.71 1.507 1.349 3.42 1.682zm1.84.083q1.783-.185 3.1-1.51 1.53-1.537 1.53-3.707 0-2.927-2.067-5.005-2.067-2.08-4.982-2.08h-4.035q-2.161 0-3.692 1.54-1.53 1.538-1.53 3.707v11.859q0 2.927 2.067 5.005 2.068 2.08 4.983 2.08h3.324q-.698 1.192-1.704 2.176-1.341 1.312-3.036 2.066h-.01l-.121.051q-.512.218-.976.356l-.661.197 1.293 3.561v.785l.846-.266q1.334-.42 2.613-1.128 3.484-1.93 5.548-5.355 2.127-3.531 2.127-7.664v-.039q-.011-2.578-1.668-4.546-1.235-1.466-2.949-2.083zm-5.47 19.372q.905-.337 1.783-.823 3.18-1.76 5.063-4.888 1.94-3.221 1.94-6.993v-.039q-.008-2.102-1.361-3.708-1.16-1.377-2.834-1.836l-.366 1.02-.278.792q1.025.232 1.821 1.028 1.12 1.12 1.132 2.7v.043q-.014.83-.597 1.407-.587.583-1.41.583h-1.397l-2.715-7.497-1.352.497 2.538 7h-1.11q-1.593 0-2.715-1.129-1.122-1.128-1.122-2.725V7.767q0-.829.59-1.421.59-.594 1.419-.594h4.035q1.592 0 2.715 1.13 1.121 1.127 1.121 2.724 0 .83-.589 1.422-.59.594-1.419.594-1.592 0-2.715-1.129-.795-.8-1.026-1.835l-.791.286-.602.232-.404.148q.434 1.614 1.722 2.766 1.499 1.34 3.483 1.45.076 0 .198.008.09.005.122.005 1.62 0 2.77-1.156 1.15-1.158 1.15-2.79 0-2.392-1.687-4.09-1.687-1.696-4.061-1.696h-4.035q-1.62 0-2.77 1.157-1.151 1.157-1.151 2.79v11.859q0 2.39 1.688 4.088 1.687 1.697 4.06 1.697h4.036q.212 0 .294-.01l1.14-.127-.477 1.044q-.903 1.973-2.463 3.499-1.562 1.528-3.552 2.383l-.123.053h-.016q-.171.07-.338.133l.656 1.808zM17.086 8.32l.971-.358.626-.24 1.312-.475.553-.195h-2.753q-.288 0-.498.21-.21.213-.21.506v.552zm4.036-1.268v.716q0 1.061.743 1.809.741.745 1.793.745.288 0 .497-.21.211-.212.211-.506 0-1.061-.743-1.808-.741-.746-1.793-.746h-.708zm.874 11.877 1.178 3.252h.484q.289 0 .496-.205.207-.206.212-.485v-.034q-.008-1.046-.751-1.79-.684-.683-1.619-.738zm-4.91.698v-2.39l1.75 4.826q-.56-.178-1.007-.628-.743-.747-.743-1.808z" fill-rule="evenodd" fill="#727171"/></g></svg>