<svg xmlns="http://www.w3.org/2000/svg" fill="none" width="27" height="26"><defs><linearGradient x1=".07" y1=".07" x2=".93" y2=".93" id="a"><stop offset="0%" stop-color="#5F9FE7"/><stop offset="100%" stop-color="#1F65B1"/></linearGradient></defs><path d="M20.524 26H6.47C2.897 26 0 23.21 0 19.769V6.231C0 2.79 2.897 0 6.469 0h14.062C24.104 0 27 2.79 27 6.231v13.545C26.993 23.21 24.097 26 20.524 26z" fill="url(#a)"/><path d="M18.8 12.987c-.014.006-.034.006-.055.006h-.055c-.014 0-.035-.006-.056-.006-.013-.007-.034-.007-.055-.014l-.048-.02c-.014-.006-.034-.02-.048-.026-.014-.013-.028-.02-.049-.033l-.04-.04-.042-.04c-.014-.013-.021-.033-.035-.046-.007-.02-.02-.034-.027-.047-.007-.02-.021-.033-.028-.053l-.02-.06a.188.188 0 0 1-.014-.06c0-.02-.007-.04-.007-.06 0-.02 0-.04-.007-.06v-.06c0-.019 0-.039.007-.059 0-.02.007-.04.007-.06 0-.02.006-.04.013-.06l.021-.06a.196.196 0 0 1 .028-.052.12.12 0 0 1 .034-.047.12.12 0 0 1 .035-.046l.041-.04a.181.181 0 0 1 .041-.033c.014-.014.028-.02.049-.034.013-.013.034-.02.048-.026a.486.486 0 0 1 .11-.033c.014-.007.035-.007.055-.007h.056c.013 0 .034.007.055.007.014.006.034.006.055.013a.486.486 0 0 0 .055.02c.014.006.035.013.048.026.014.014.035.02.049.034.013.013.027.02.041.033l.041.04a.12.12 0 0 1 .035.046c.014.013.02.033.034.047.007.02.021.033.028.053.007.02.014.033.02.06.008.02.014.04.014.06.007.02.007.04.014.06 0 .02.007.039.007.059v.12a.378.378 0 0 1-.014.093c-.007.033-.02.06-.027.093-.014.026-.028.06-.042.086a.296.296 0 0 1-.055.073c-.02.027-.041.04-.062.066-.02.02-.048.034-.069.047-.027.013-.055.026-.076.033-.055 0-.082.007-.11.007zm3.02.013c0-.618-.461-1.754-1.468-2.777a6.373 6.373 0 0 0-1.931-1.355c-.014-.006-.021-.006-.035-.006-.014 0-.027.006-.034.006l-.035.02c-.007.013-.014.02-.02.033 0 .014-.007.02-.014.034l-.31.597c-.063.133-.125.266-.18.399-.062.133-.11.272-.159.412-.048.14-.096.279-.137.425-.042.14-.076.286-.118.432-.034.146-.062.292-.09.438a4.93 4.93 0 0 0-.061.445l-.042.452c-.007.153-.014.299-.014.452 0 .152 0 .305.014.451.007.153.02.3.042.452.013.153.041.299.062.445.027.146.055.292.09.439a10.15 10.15 0 0 0 .255.857 7.362 7.362 0 0 0 .337.81l.007.013.283.605a.139.139 0 0 0 .028.04c.013.013.027.02.041.026a.103.103 0 0 0 .048.013c.014 0 .028-.006.049-.013 2.351-1.09 3.393-3.188 3.393-4.145zM15.945 13a8.911 8.911 0 0 1 .531-3.102c.117-.326.248-.645.407-.95V8.94l.152-.285c.006-.014.006-.02.013-.034.007-.013.007-.026.007-.033v-.033c0-.013 0-.027-.007-.033 0-.014-.007-.02-.013-.033a.092.092 0 0 0-.021-.027.095.095 0 0 0-.028-.02.053.053 0 0 0-.027-.013 7.347 7.347 0 0 0-1.262-.206.258.258 0 0 1-.138-.06c-.621-.551-1.849-1.515-3.097-1.76-.02-.007-.041-.007-.062-.007-.02 0-.041 0-.062.007-.02.006-.041.006-.062.013l-.062.02c-.02.007-.042.02-.062.026-.021.014-.042.027-.055.04-.021.014-.035.027-.056.047-.013.02-.034.033-.048.053l-.041.06c-.014.02-.021.04-.035.066l-.027.067-.021.073c0 .026-.007.046-.007.073v.073c0 .026 0 .053.007.073a.23.23 0 0 0 .014.073l.345 1.395c0 .02.006.033 0 .06 0 .02-.007.033-.014.053-.007.02-.014.033-.028.04a.145.145 0 0 1-.041.026c-1.18.512-2.2 1.455-2.945 2.173-.007.013-.02.02-.034.026l-.042.02a.1.1 0 0 1-.041.013c-.014.007-.028.007-.042.007-.013 0-.027 0-.041-.007-.014-.006-.028-.006-.041-.013l-.042-.02c-.014-.007-.027-.02-.034-.026l-.31-.28a5.567 5.567 0 0 0-2.835-1.235c-.02 0-.041-.007-.055 0-.02.007-.042.007-.055.007-.021.006-.042.006-.062.013a.487.487 0 0 0-.056.02c-.02.006-.034.02-.055.033a.38.38 0 0 1-.055.04c-.014.013-.034.026-.048.04-.014.013-.028.033-.042.046-.013.02-.027.033-.034.06-.007.02-.02.04-.028.06-.007.02-.014.04-.027.066-.007.02-.014.04-.021.067-.007.02-.007.046-.007.066v.146c0 .027.007.047.007.067.014.073.297 1.528 1.02 2.69a.327.327 0 0 1 .035.086c.007.034.014.06.014.093 0 .034 0 .067-.014.093-.027.034-.034.06-.048.087-.724 1.162-1 2.617-1.02 2.69 0 .02-.008.047-.008.066v.147c0 .026.007.046.007.066.007.02.007.047.02.066.008.02.015.04.028.067.007.02.021.04.028.06.007.02.02.04.035.06.013.02.027.033.04.046.015.013.029.033.05.04.013.013.034.026.054.04.014.013.035.02.056.033.02.007.034.02.055.02.02.006.041.013.062.013.02.007.041.007.055.007h.055c.062-.007 1.559-.153 2.828-1.236.103-.086.207-.18.303-.272.014-.013.02-.02.035-.027l.041-.02c.014-.006.028-.013.041-.013.014-.007.028-.007.042-.007a.09.09 0 0 1 .041.007c.014.007.028.007.042.013l.04.02c.015.007.029.02.035.027.745.717 1.766 1.66 2.952 2.179.014.006.028.02.042.026.013.014.02.027.027.04.007.02.014.033.014.053v.053l-.345 1.395c-.007.027-.007.054-.014.073 0 .027-.007.054-.007.074v.073l.007.073c0 .026.007.046.021.073a.195.195 0 0 0 .028.066c.006.02.02.04.034.067l.041.06c.014.02.028.033.049.053.013.02.034.033.055.046.02.013.034.027.055.04.02.013.041.02.055.026.014.007.042.014.062.02a.21.21 0 0 0 .062.014c.021.006.042.006.062.006.021 0 .042-.006.062-.006.552-.113 1.67-.485 3.083-1.76a.233.233 0 0 1 .138-.06c.42-.034.842-.1 1.262-.2l.028-.013c.007-.007.014-.013.027-.02a.092.092 0 0 0 .021-.027c.007-.013.007-.02.014-.026l.007-.033v-.067l-.007-.033-.145-.312a8.986 8.986 0 0 1-.407-.95 9.903 9.903 0 0 1-.296-1.003 10.02 10.02 0 0 1-.18-1.043c-.013-.339-.034-.69-.034-1.043z" fill="#FFF"/></svg>