<svg xmlns="http://www.w3.org/2000/svg" fill="none" width="35" height="36.233"><path d="m27.276 31.834.262 2.31h-.045l-1.474-3.772h-1.634v5.466h1.496v-1.45l-.25-2.31h.045l1.485 3.76h1.623v-5.466h-1.508v1.462zM19.517 30.372l-1.794 5.466h1.611l.297-1.288h1.634l.297 1.288h1.668l-1.793-5.466h-1.92zm.388 2.948.503-1.753h.034l.526 1.753h-1.063zM0 31.718h1.36v2.785H0v1.335h4.285v-1.335H2.937v-2.785h1.348v-1.346H0v1.346zM9.347 32.681l-.674-.255c-.594-.22-.949-.36-.949-.638 0-.279.24-.407.583-.407.572 0 .903.151 1.337.441l.789-1.01A2.971 2.971 0 0 0 8.399 30c-1.36 0-2.274.848-2.274 1.88 0 .87.525 1.428 1.257 1.683l.777.302c.365.15.811.29.834.627.011.197-.183.36-.663.36-.537 0-1.074-.244-1.52-.592l-.902 1.102c.674.592 1.53.87 2.308.87 1.542 0 2.377-.916 2.377-1.938.011-.858-.435-1.311-1.246-1.613zM13.883 30.372h-1.576v5.466h4.113v-1.335h-2.537v-4.131zM32.098 30.372h-1.714v5.466h1.805c1.611 0 2.811-.627 2.811-2.762 0-2.136-1.2-2.704-2.902-2.704zm-.08 4.19h-.058V31.66h.058c.765 0 1.37.012 1.37 1.427 0 1.405-.616 1.474-1.37 1.474z" fill="#2F2F30"/><g><path d="M13.803 0h-2.582v2.634c1.428 0 2.582-1.183 2.582-2.634z" fill="#E56A17"/><path d="M18.751 15.575c1.531 0 2.777 1.265 2.788 2.808v.035a1.2 1.2 0 0 1-1.188 1.184h-.823l-2.434-6.79-2.25.836 2.136 5.954h-.16c-1.542 0-2.788-1.265-2.788-2.832V6.29c0-.661.537-1.207 1.188-1.207h3.531c1.543 0 2.788 1.265 2.788 2.832 0 .662-.537 1.207-1.188 1.207-1.543 0-2.788-1.265-2.788-2.832l-.229.081-1.142.418-.537.21-.812.3c.446 2.554 2.594 4.527 5.2 4.666.102 0 .205.012.297.012 2.205 0 3.999-1.822 3.999-4.062 0-3.134-2.514-5.687-5.6-5.687h-3.53c-2.205 0-4 1.822-4 4.062v10.48c0 3.134 2.514 5.687 5.6 5.687h3.53c.103 0 .218 0 .32-.012a9.746 9.746 0 0 1-4.97 4.91h-.012a8.647 8.647 0 0 1-.914.336l.96 2.67v.01a11.865 11.865 0 0 0 2.183-.95 12.603 12.603 0 0 0 6.421-11.003v-.035c-.011-2.774-1.988-5.095-4.605-5.57l-.49 1.38-.48 1.382z" fill="#2F2F30"/></g></svg>