<svg xmlns="http://www.w3.org/2000/svg" fill="none" width="16" height="19"><path d="M5.968 3.36q.176-.096.208.016.24.816.24.928-.016.016-.016.04t.016.04q.048.016.048.08 0 .112-.096.192l-.416.112q-.192.016-.504.112t-.36.128l-.032.736-.032.704h.416q.512 0 .64-.016l.368-.048.144-.032v.928q0 .352-.032.384h-.032q-.128 0-.224-.016-.144-.016-.72-.016l-.464.016V7.792q0 .096.288.368.192.192.344.304.152.112.408.24.128.064.64.288.224.064.264.104.04.04-.04.12-.256.224-.68.552-.424.328-.456.328-.032-.016-.072-.072-.04-.056-.088-.152l-.272-.384q-.304-.448-.336-.448-.016 0 .008 1.488t.072 2.64l.016.464q.032.544 0 .576l-.288.016q-.224 0-1.024.064l-.768.048q-.144 0-.144-.032 0-.016.096-.144.272-.352.456-.936.184-.584.328-1.56.048-.24.08-.776t.032-.952q0-.256-.016-.256t-.696.68q-.68.68-1.064 1.08-.288.352-.352.352-.048 0-.16-.176t-.24-.464q-.128-.272-.328-.88t-.2-.688q0-.048.048-.048l.144.032q.192.032.336.032.352 0 .712-.08t.552-.192q.16-.08.648-.504t.536-.52q.048-.128.048-.432 0-.192-.032-.224-.064-.016-.592.032t-.768.096q-.4.08-.432.048-.096-.224-.28-.776-.184-.552-.184-.632 0-.048.96.08.8.08.928.08.192 0 .288-.008.096-.008.112-.072Q4 6.416 4 5.904q0-.272-.032-.464-.032-.144-.064-.144-.08 0-.512.24-.448.208-.528.208-.08 0-.184-.12t-.168-.28l-.192-.432q-.256-.528-.208-.576l.256-.032.592-.096q.736-.112.864-.128.736-.176.88-.224.288-.08.704-.24.416-.16.56-.256zm6.672 1.52q.448-.064.576-.064.096-.016.12 0 .024.016.008.096l-.032.704q-.064 1.248-.128 1.888l-.048.864q0 .16-.008.248t-.072.12q-.128.064-.52.096t-1.4.048l-1.36.032q-.096.016-.248.016t-.296.016q-.352.032-.48.032-.528.048-.56.064-.08.048-.112 0 0-.032-.016-.296t-.032-.968q0-.816-.064-1.584-.048-.608-.088-.888-.04-.28-.072-.344l-.016-.048q0-.032.144-.016.528.08 1.936.08h.576q.864 0 1.224-.016t.968-.08zm-.816 1.232q-.176-.016-1.264-.016-1.04 0-1.152.016-.048.016-.112.016t-.112.016l-.144.016v1.776l.736-.016q1.056 0 1.456-.032L12 7.856l.08-.096q.064-.08.08-.2.016-.12.016-.664v-.768l-.352-.016zm-2.976 4.064q.016-.048.04-.048t.16.08q.136.08.36.24l.384.272-.064.128q-.016.048-.144.328t-.256.632q-.368.928-.528 1.248-.16.32-.368.528-.208.24-.352.24-.112 0-.384-.192-.192-.128-.648-.592-.456-.464-.456-.496 0-.048.064-.048.096 0 .36-.088t.456-.2q.368-.176.824-.784.456-.608.52-.992 0-.128.032-.256zm2.928.016q.032-.032.24.176.672.528 1.424.912l.56.24q.016 0 .08.032t.192.064q.16.096.512.24.272.096.272.128 0 .016-1.248.976-.624.48-.88.48-.08 0-.176-.2-.096-.2-.368-.968-.688-1.968-.608-2.08z" fill="#FFF"/></svg>