<svg id="图层_1" data-name="图层 1" xmlns="http://www.w3.org/2000/svg" viewBox="0 0 218.18 230.29"><defs><linearGradient id="未命名的渐变_2" x1="32.13" y1="198.16" x2="186.05" y2="44.23" gradientUnits="userSpaceOnUse"><stop offset="0" stop-color="#a25f20"/><stop offset=".36" stop-color="#e9af66"/></linearGradient><linearGradient id="未命名的渐变_303" x1="46.28" y1="171.65" x2="171.9" y2="46.03" gradientUnits="userSpaceOnUse"><stop offset=".02" stop-color="#ffdd6b"/><stop offset=".09" stop-color="#ffe693"/><stop offset=".16" stop-color="#ffefb9"/><stop offset=".24" stop-color="#fff6d8"/><stop offset=".31" stop-color="#fffbee"/><stop offset=".38" stop-color="#fffefb"/><stop offset=".45" stop-color="#fff"/><stop offset=".52" stop-color="#fffdf7"/><stop offset=".64" stop-color="#fff9e0"/><stop offset=".79" stop-color="#fff3bb"/><stop offset=".96" stop-color="#ffe989"/><stop offset="1" stop-color="#ffe77c"/></linearGradient><clipPath id="clip-path" transform="translate(-1710.64 538.39)"><circle cx="1819.73" cy="-429.55" r="88.58" style="fill:none"/></clipPath><style>.cls-6{fill:#bc7426}.cls-9{fill:#fccd64}.cls-10{fill:#a46911}</style></defs><circle cx="109.09" cy="121.19" r="108.84" style="stroke-miterlimit:10;stroke-width:.5px;stroke:#684916;fill:url(#未命名的渐变_2)"/><circle cx="109.09" cy="108.84" r="108.84" style="fill:#fbe6a3"/><circle cx="109.09" cy="108.84" r="88.58" style="stroke:url(#未命名的渐变_303);stroke-miterlimit:10;stroke-width:.5px;fill:none"/><path class="cls-6" d="M1740.31-456.37a84.85 84.85 0 0 1 24-35.95c21.87-19.26 46.78-20.69 53.56-20.86A84.19 84.19 0 0 1 1869-497.5a84 84 0 0 1 30.76 43.13c-17.39-36.35-54.91-57.4-91.9-52.56-45.19 5.93-66.02 47.38-67.55 50.56z" transform="translate(-1710.64 538.39)"/><path d="M1863.25-464.53c11.11 33.66 5.38 35.91-9.68 24.38-12.08-9.24 18.73 68.07-25.24 87.13a76.88 76.88 0 0 0 52.59-29.54c19.23-24.93 22.21-58.71 6.69-83.89-11.92-19.34-33.87-26.89-24.36 1.92z" transform="translate(-1710.64 538.39)" style="fill:#e8a04b"/><path class="cls-6" d="M1887.61-466.45c.58.94 1.13 1.9 1.66 2.87a43 43 0 0 0-.29 10.69c2.71 35.34-3.38 36.15-15.24 21.35-9.51-11.87 1.85 70.57-45.41 78.52a76.83 76.83 0 0 1-55.5-15.57 76.73 76.73 0 0 1-24.74-33c20.54 31 72.92 27.59 79.44 1.19 5.33-21.6 20-15.3 25.44.51.48-23.59-6.14-45.39.6-40.24 15.06 11.53 20.79 9.28 9.68-24.38-9.51-28.83 12.44-21.28 24.36-1.94zM1853-399.27v-.6.6z" transform="translate(-1710.64 538.39)"/><path d="M1853-399.87v.34-.34z" transform="translate(-1710.64 538.39)" style="fill:#036eb7"/><path class="cls-9" d="M1760.48-419c10.45 9.24 11.8 26.83 36.91 34.23h-.91c-16.56-.17-29.09-6.23-38.78-15.23-13.96-12.94-9.94-30.22 2.78-19z" transform="translate(-1710.64 538.39)"/><circle class="cls-9" cx="1834.77" cy="-432.75" r="8.57" transform="rotate(-13.28 3292.245 7183.699)"/><circle class="cls-10" cx="1816.19" cy="-405.47" r="5.31" transform="rotate(-13.28 3273.655 7211.006)"/><circle class="cls-10" cx="140.26" cy="73.85" r="5.31"/><circle class="cls-10" cx="1820.28" cy="-478.58" r="11.38" transform="rotate(-13.28 3277.729 7137.866)"/></svg>