<?xml version="1.0" encoding="UTF-8"?>
<svg id="_图层_1" data-name="图层 1" xmlns="http://www.w3.org/2000/svg" xmlns:xlink="http://www.w3.org/1999/xlink" viewBox="0 0 594.83 557.34">
  <defs>
    <style>
      .cls-1 {
        fill: url(#_未命名的渐变_14-2);
      }

      .cls-1, .cls-2, .cls-3, .cls-4, .cls-5, .cls-6, .cls-7, .cls-8 {
        stroke-width: 0px;
      }

      .cls-2 {
        fill: none;
      }

      .cls-3 {
        fill: #fff;
      }

      .cls-4 {
        fill: url(#_未命名的渐变_21-2);
      }

      .cls-5 {
        fill: #595959;
      }

      .cls-6 {
        fill: #48da9f;
      }

      .cls-7 {
        fill: url(#_未命名的渐变_21);
      }

      .cls-8 {
        fill: url(#_未命名的渐变_14);
      }
    </style>
    <linearGradient id="_未命名的渐变_14" data-name="未命名的渐变 14" x1="549.73" y1="51.37" x2="560.49" y2="70.56" gradientUnits="userSpaceOnUse">
      <stop offset="0" stop-color="#25f5a1"/>
      <stop offset="1" stop-color="#25baa1"/>
    </linearGradient>
    <linearGradient id="_未命名的渐变_21" data-name="未命名的渐变 21" x1="286.72" y1="557.34" x2="286.72" y2="0" gradientUnits="userSpaceOnUse">
      <stop offset="0" stop-color="#69f4c2"/>
      <stop offset="1" stop-color="#42d699"/>
    </linearGradient>
    <linearGradient id="_未命名的渐变_21-2" data-name="未命名的渐变 21" x1="243.54" y1="171.55" x2="379.41" y2="413.86" xlink:href="#_未命名的渐变_21"/>
    <linearGradient id="_未命名的渐变_14-2" data-name="未命名的渐变 14" x1="531.6" y1="77.46" x2="534.65" y2="82.91" xlink:href="#_未命名的渐变_14"/>
  </defs>
  <path class="cls-5" d="m438.26,56.41h-2.44c-11.32,0-22.72.73-34.2,1.55,7.74-2.77,15.63-5.21,23.69-7.33l12.95,5.78Z"/>
  <path class="cls-8" d="m563.74,67.08c-1.3-1.06-2.6-2.12-3.91-3.09-4.07-3.01-8.31-5.7-12.7-7.98,4.4,2.28,8.63,4.89,12.7,7.9,1.3,1.06,2.61,2.04,3.91,3.17Z"/>
  <g>
    <path class="cls-6" d="m401.58,57.98c11.51-.84,22.93-1.53,34.26-1.55,5.66-.05,11.3.07,16.89.32,5.59.32,11.14.69,16.61,1.32,5.47.62,10.87,1.44,16.16,2.44,5.28,1.05,10.45,2.31,15.44,3.81,9.98,2.99,19.22,7.1,26.95,12.32,1.24.83,2.43,1.71,3.58,2.6v-6.17c0-11.39-8.9-21.15-21.13-23.12-9.63-1.55-22.23-3.87-37.1-7.24-1.22.07-2.44.14-3.65.23-23.8,1.9-46.51,7.38-68.01,15.03Z"/>
    <g>
      <path class="cls-2" d="m543.1,170.6c3.75-8.72,6.74-17.54,8.61-26.32,1.92-8.77,2.62-17.49,1.82-25.78-.42-4.14-1.21-8.18-2.45-12.06-1.24-3.88-2.93-7.6-5.05-11.16-3.58-5.97-8.49-11.37-14.56-16.04v114.26c4.36-7.52,8.28-15.16,11.63-22.9Z"/>
      <path class="cls-7" d="m492.57,323.01l-.98,3.66c8.47-8.22,16.69-16.77,24.51-25.57,3.83-4.32,7.57-8.63,11.24-13.03,1.38-1.71,2.77-3.42,4.15-5.13v24.27c0,72.06-39.17,139.32-104.39,179.47l-93.72,57.65c-28.17,17.34-65.06,17.34-93.32,0l-83.3-51.22c9.2-.81,18.24-2.04,27.28-3.5l-6.27-2.85s-17.18-16.04-37.62-35.01c-1.06.16-2.12.33-3.17.49-2.61.33-5.13.65-7.74.9-5.13.49-10.34.89-15.39,1.06-3.01.08-5.94.16-8.87.08-40.06-39.49-63.03-91.93-63.03-147.06V73.1c0-11.4,8.96-21.17,21.17-23.13,24.75-3.99,69.13-13.03,121.49-32.08,65.63-23.86,138.67-23.86,204.22,0,32,11.64,61.07,19.54,84.44,24.84-1.22.08-2.44.16-3.67.24-15.23,1.22-29.97,3.83-44.3,7.65-8.06,2.12-15.96,4.56-23.69,7.33,11.48-.82,22.88-1.55,34.2-1.55h2.44c4.88,0,9.69.08,14.49.33,5.54.33,11.15.73,16.61,1.3,5.46.65,10.83,1.47,16.12,2.44,5.29,1.06,10.5,2.36,15.47,3.83,9.93,3.01,19.22,7.08,26.95,12.38,1.22.81,2.44,1.63,3.58,2.52v114.32c-5.46,9.36-11.64,18.65-18.24,27.61-4.07,5.46-8.31,10.83-12.62,16.12l-8.06,85.74Z"/>
      <path class="cls-4" d="m594.36,149.32c-.57,6.03-1.47,11.97-2.69,17.75-1.14,5.78-2.69,11.48-4.48,17.02-6.92,22.39-17.51,42.99-29.64,62.45-6.11,9.61-12.62,19.05-19.62,28.09-1.71,2.28-3.42,4.56-5.21,6.84-.41.49-.81.98-1.22,1.47-1.38,1.71-2.77,3.42-4.15,5.13-3.66,4.48-7.41,8.79-11.24,13.03-30.45,34.2-65.55,64.25-103.5,90.63-9.44,6.6-19.13,12.95-28.99,19.05-9.85,6.11-19.95,11.97-30.13,17.59-20.52,11.24-41.61,21.5-63.51,30.45-2.77,1.06-5.46,2.2-8.22,3.26-2.77,1.06-5.54,2.12-8.31,3.18-5.54,2.12-11.16,4.07-16.86,5.94-11.24,3.91-22.72,7.25-34.36,10.34-2.93.73-5.86,1.47-8.71,2.2-3.01.65-5.94,1.3-8.88,1.95-2.93.65-5.94,1.3-8.87,1.87-3.01.57-6.03,1.14-8.96,1.63-12.05,2.04-24.18,3.66-36.56,4.4-6.19.49-12.38.73-18.65.73s-12.54-.16-18.81-.57c-12.62-.9-25.41-2.69-37.95-6.19-6.35-1.71-12.54-3.83-18.65-6.43s-11.97-5.7-17.59-9.36c-5.54-3.66-10.83-7.82-15.47-12.54-4.64-4.72-8.71-9.85-11.97-15.39-6.6-11.07-10.1-23.21-10.91-34.93-.9-11.81.65-23.21,3.5-33.96,2.85-10.83,7.09-21.09,12.13-30.78,5.13-9.69,10.99-18.89,17.59-27.6-3.58,10.1-6.84,20.19-9.12,30.29-2.36,10.1-3.91,20.28-4.23,30.21-.33,9.93.57,19.71,3.1,28.66,2.44,8.96,6.76,17.02,12.46,23.61,5.78,6.68,13.03,11.89,21.17,15.72,4.15,1.87,8.47,3.5,12.95,4.72,4.56,1.3,9.28,2.28,14.09,2.93,9.61,1.47,19.71,1.87,29.97,1.47,5.05-.08,10.26-.49,15.39-1.06,2.6-.24,5.13-.57,7.74-.9s5.21-.65,7.74-1.14c20.76-3.26,41.37-8.63,61.64-15.39,10.1-3.34,20.11-7,30.05-10.91,4.97-2.04,9.93-4.07,14.82-6.19,2.52-1.06,4.97-2.12,7.41-3.18,2.44-1.06,4.89-2.2,7.33-3.34,38.84-17.91,75.97-39.49,110.9-63.68,34.93-24.27,67.59-51.14,96.58-80.69,3.58-3.75,7.08-7.49,10.58-11.24,1.71-1.95,3.5-3.83,5.13-5.7,1.79-1.95,3.42-3.91,5.13-5.78,6.6-7.82,12.95-15.72,18.97-23.78,6.6-9.04,12.78-18.24,18.24-27.69.16-.24.33-.57.49-.89.98-1.55,1.87-3.18,2.69-4.8,1.06-1.87,2.04-3.75,3.01-5.7,1.95-3.75,3.75-7.65,5.46-11.48,3.75-8.71,6.68-17.59,8.55-26.3,1.95-8.79,2.69-17.51,1.87-25.81-.41-4.15-1.22-8.14-2.44-12.05-1.3-3.91-2.93-7.57-5.05-11.16-2.69-4.48-6.19-8.63-10.26-12.38-1.39-1.38-2.85-2.52-4.32-3.75v-6.11c0-11.4-8.96-21.17-21.17-23.13-9.61-1.55-22.23-3.91-37.05-7.25,4.72-.33,9.53-.41,14.33-.41,6.11.16,12.21.57,18.4,1.3,8.47,1.06,17.1,2.85,25.49,5.7.16.08.33.08.49.16,1.71.57,3.42,1.22,5.13,1.95,1.87.73,3.83,1.47,5.62,2.36,1.47.73,2.93,1.38,4.4,2.2,4.4,2.28,8.63,4.97,12.7,7.98,1.3.98,2.61,2.04,3.91,3.09,1.3,1.06,2.52,2.2,3.75,3.34,2.44,2.28,4.72,4.72,6.84,7.25,8.63,10.26,14.49,22.47,17.51,34.85,3.1,12.38,3.5,24.84,2.52,36.81Z"/>
    </g>
    <path class="cls-1" d="m535.81,82.96c-1.39-1.3-2.85-2.52-4.32-3.66v-.08c1.47,1.22,2.93,2.36,4.32,3.75Z"/>
  </g>
  <path class="cls-3" d="m291.48,159.79c-59.82,0-108.32,48.49-108.32,108.32s48.49,108.31,108.32,108.31,108.31-48.49,108.31-108.31-48.49-108.32-108.31-108.32h0Zm9.25,7.67s6.78-3.93,9.15-1.57c2.36,2.36,10.63-.39,31.88,12.2,0,0-4.68,4.99-5.7,4.69.6,1.09,2.43,4.39,3.74,6.44,1.57,2.47,1.97,2.64,1.97,2.64l-1.57,2.36,1.57.39c-1.57-.39-2.36,4.33-4.64,5.12-2.28.79.71,5.12-.08,5.9-.79.79.39,7.87,0,12.04-.39,4.17-1.97.55-3.94,0-1.97-.55-5.12-1.81-5.38-2.99-.27-1.18-.91-4.72-.13-6.69.79-1.97-2.36-3.93-3.94-5.38-1.57-1.44-7.87.26-9.05,0-1.18-.26-1.97-3.67-1.97-6.82s5.51.39,8.61,0c3.1-.39,3.59-8.24,3.59-8.24l-.18-6.67c-1.27-.51-1.48-1.17.57-2.01,0,0-6.69-1.57-8.26,1.97-1.57,3.54-2.36,3.2-2.75,6.71-.39,3.52-6.56.42-8,0-1.44-.42-5.38-5.14-5.38-5.14,1.18-2.75,1.97-4.72,1.97-4.72l-2.06-4.72v-5.51Zm-62.08,36.6c.67-.89,5.12-8.66,10.63-6.3,5.51,2.36,9.05-2.75,9.05-2.75,0,0,8.09-8.26,8.57-7.08l.48,1.18c-.48-1.18,6.69-3.15,7.48.79.79,3.93,5.51,5.91,5.51,5.91,0,0-2.75,4.71-1.97,8.25.79,3.54,3.54,4.33,1.97,7.48-1.57,3.15-4.72,4.33-5.51,5.9-.79,1.57-7.26-5.12-7.96-7.48-.7-2.36-4.16-4.72-7.15-3.93-2.99.79-10.86,2.75-12.44,1.97-1.57-.79-10.5-1.48-8.66-3.94h0Zm105.46,115.69c-3.15,8.26-10.62,22.43-14.56,26.36-3.94,3.94-8.66,11.41-12.2,14.17-3.54,2.75-3.54,7.87-7.87,7.48-4.33-.39-9.44-12.59-8.26-15.74,1.18-3.15-21.64-8.66-21.64-8.66,0,0-9.84-1.18-11.8-20.07-.35-3.36-.58-5.75-.71-7.4-2.96-1.31-14.55-6.11-21.72-4.4-8.26,1.97-10.23-2.62-17.31-3.67l-12.2-11.28s-20.07-23.22-17.71-27.15c2.36-3.94,2.36-14.56,2.75-16.92.39-2.36-3.14-17.31-2.95-19.28.19-1.97-2.95-9.44-2.95-9.44,0,0,7.48-15.74,8.66-15.74s5.51,13.38,9.84,13.77c4.33.39,16.13-.39,17.9-2.36,1.77-1.97,3.34-4.33,5.31-4.33s1.97-1.18,5.51.39c3.54,1.57,7.48,3.93,9.05,6.3,1.57,2.36-1.18,7.08,7.08,7.08s8.26-1.97,9.45,3.54c1.18,5.51,2.58,17.71-.87,18.5-3.45.79-13.69,12.77-12.9,16.61.79,3.85.79,9.75-.79,13.29-1.57,3.54-2.75,4.72-8.66,4.33-5.9-.39-10.89-3.54-12.53,1.18-1.64,4.72-4.77,15.36.73,14.29,0,0,8.66-2.64,11.8,0,3.15,2.64,23.22,11.29,23.22,11.29,0,0,18.1-19.68,46.43-7.08l4.72,3.15,7.87-1.71s10.23-3.01,13.77-2.22l3.54.79v-1.58s3.15,8.26,0,16.53h0Zm46.04-44.86s-2.36-3.54-2.36-7.27-2.75-3.36-2.75-8.08-3.54-3.15-5.9-6.3c-2.36-3.15-3.54,1.18-5.51,1.57-1.97.39-1.58,3.54-3.54,7.28-1.97,3.74-7.08,6.1-8.66,5.4-1.57-.7-7.48-5.99-7.87-7.17-.39-1.18-8.26-7.87-8.05-9.44.22-1.58-2.19-9.84-3.76-13.77-1.57-3.94,0-19.44,0-19.44-2.36-1.34,21.64-11.26,18.5-12.44s-4.72-14.17-4.72-14.17l11.45,5.9c11.46,5.9,25.93,52.73,25.93,52.73v13.38l-2.75,11.81Zm0,0"/>
</svg>