<svg xmlns="http://www.w3.org/2000/svg" xmlns:xlink="http://www.w3.org/1999/xlink" fill="none" version="1.1" width="18" height="20" viewBox="0 0 18 20"><defs><mask id="master_svg0_63_0719"><g><rect x="0" y="0" width="18" height="20" rx="0" fill="#FFFFFF" fill-opacity="1"/></g></mask></defs><g><g><g mask="url(#master_svg0_63_0719)"><g><path d="M12.211813360393792,17.91554660192728C11.987413360393793,18.065046601927282,11.687113360393793,18.13984660192728,11.462713360393792,18.065046601927282C11.238213360393793,17.990246601927282,11.012813360393793,17.76504660192728,11.012813360393793,17.46604660192728C10.938013360393793,17.16604660192728,11.087613360393792,16.94174660192728,11.312113360393793,16.792246601927282C14.834313360393793,13.871846601927281,16.558013360393794,11.32624660192728,16.558013360393794,9.07960660192728C16.558013360393794,4.8864066019272805,13.185413360393792,1.5165066019272804,9.063643360393792,1.5165066019272804C4.941863360393793,1.5165066019272804,1.4944133603937924,4.8864066019272805,1.4944133603937924,9.00485660192728C1.4944133603937924,11.70094660192728,4.042103360393792,14.92034660192728,9.213283360393792,18.589346601927282C9.588343360393793,18.813546601927282,9.663163360393792,19.263146601927282,9.362913360393792,19.63784660192728C9.138463360393793,20.01264660192728,8.688583360393793,20.08734660192728,8.313523360393793,19.78734660192728C2.8440533603937923,15.893246601927281,-0.0038858982882076093,12.37374660192728,-0.0038858982882076093,9.00485660192728C-0.0038858982882076093,4.06213660192728,4.043073360393793,0.018446601927280426,8.988823360393793,0.018446601927280426C13.934613360393792,0.018446601927280426,17.98151336039379,4.06213660192728,17.98151336039379,9.07863660192728C17.98151336039379,11.77474660192728,16.03331336039379,14.69514660192728,12.211813360393792,17.91554660192728Z" fill="#666666" fill-opacity="1"/></g></g></g><g><path d="M8.988828456420897,5.485436916351318C10.937008456420898,5.485436916351318,12.511088456420898,7.0582569163513185,12.511088456420898,9.004856916351319C12.511088456420898,10.951456916351319,10.937008456420898,12.52426691635132,8.988828456420897,12.52426691635132C7.040648456420898,12.52426691635132,5.466558456420898,10.951456916351319,5.466558456420898,9.004856916351319C5.466558456420898,7.057276916351318,7.040648456420898,5.485436916351318,8.988828456420897,5.485436916351318ZM8.988828456420897,6.982526916351318C7.8646184564208985,6.982526916351318,6.9658284564208985,7.881556916351318,6.9658284564208985,9.003886916351318C6.9658284564208985,10.127186916351318,7.865588456420898,11.025246916351318,8.988828456420897,11.025246916351318C10.113038456420899,11.025246916351318,11.011818456420897,10.127186916351318,11.011818456420897,9.003886916351318C11.0127884564209,7.881556916351318,10.113038456420899,6.982526916351318,8.988828456420897,6.982526916351318Z" fill="#666666" fill-opacity="1"/></g></g></svg>
