<svg xmlns="http://www.w3.org/2000/svg" id="_图层_1" data-name="图层 1" viewBox="0 0 307.69 336.56"><defs><style>.cls-1{fill:#71c9e9;stroke-width:0}</style></defs><path d="M189.1 0h-29.14v29.14c16.1 0 29.14-13.05 29.14-29.14M244.76 172.58c17.2.04 31.2 13.96 31.32 31.14v.34c-.12 7.26-6.07 13.12-13.35 13.12h-9.29l-27.4-75.22-25.3 9.21 24.02 66.01h-1.83c-17.3 0-31.38-14.08-31.38-31.36V69.69c0-7.36 5.98-13.35 13.35-13.35h39.8c17.3 0 31.38 14.08 31.38 31.38 0 7.36-5.98 13.35-13.35 13.35-17.3 0-31.36-14.06-31.38-31.36l-2.56.93-12.9 4.69-6.07 2.21-9.09 3.31c5.07 28.34 29.19 50.16 58.56 51.73h.02c1.14.06 2.25.1 3.41.1 24.79 0 44.95-20.16 44.95-44.95 0-34.73-28.26-62.98-62.98-62.98h-39.8c-24.79 0-44.95 20.18-44.95 44.95v116.13c0 34.71 28.28 62.96 62.98 62.96h39.8c1.2 0 2.39-.04 3.59-.14-11.16 24.36-31.22 43.86-55.93 54.36l-.14.06c-3.35 1.42-6.8 2.68-10.3 3.75l10.79 29.6.04.14c8.6-2.76 16.82-6.33 24.61-10.61 42.98-23.69 72.21-69.44 72.3-121.89v-.34c-.1-30.79-22.44-56.45-51.79-61.73l-5.56 15.29-5.58 15.29-.04.12.04-.12ZM160.05 267.38l1.51 13.33h-.21l-8.71-21.76h-9.57v31.59h8.81v-8.43l-1.46-13.34h.22l8.71 21.77h9.52v-31.59h-8.82zM114.53 258.95l-10.54 31.59h9.46l1.71-7.42h9.58l1.71 7.42h9.78l-10.54-31.59h-11.18Zm2.29 17.02 2.98-10.14h.22l3.08 10.14zM0 266.69h7.96v16.11H0v7.74h25.16v-7.74H17.2v-16.11h7.96v-7.74H0zM54.83 272.28l-3.97-1.46c-3.49-1.29-5.54-2.09-5.54-3.7s1.4-2.36 3.44-2.36c3.34 0 5.32.86 7.85 2.53l4.62-5.81c-3.38-3.17-7.8-4.68-11.93-4.68-7.96 0-13.33 4.89-13.33 10.86 0 5.05 3.09 8.22 7.36 9.73l4.54 1.71c2.15.86 4.78 1.66 4.87 3.6.05 1.13-1.08 2.05-3.87 2.05-3.17 0-6.29-1.4-8.92-3.39l-5.27 6.34c3.92 3.39 8.98 5 13.55 5 9.03 0 13.98-5.27 13.98-11.18 0-4.84-2.58-7.46-7.36-9.23ZM81.45 258.95h-9.24v31.59h24.13v-7.74H81.45z" class="cls-1"/><path d="M188.33 258.95h-10.06v31.59h10.59c9.46 0 16.5-3.59 16.5-15.96s-7.04-15.64-17.04-15.64Zm-.49 24.18h-.32v-16.76h.32c4.46 0 8.07.05 8.07 8.22s-3.6 8.54-8.07 8.54" class="cls-1"/></svg>