<svg id="_图层_1" data-name="图层 1" xmlns="http://www.w3.org/2000/svg" viewBox="0 0 490.5 432.54"><defs><linearGradient id="_未命名的渐变_17" data-name="未命名的渐变 17" x1="245.25" y1="0" x2="245.25" y2="432.54" gradientUnits="userSpaceOnUse"><stop offset="0" stop-color="#ffab59"/><stop offset="1" stop-color="#ffd46f"/></linearGradient><style>.cls-2{stroke-width:0;fill:#fff}</style></defs><path d="M395.24 254.89c15.3 0 30.65-4.02 43.92-10.94.38 1.2.6 2.46.6 3.77v138.96c.2 25.33-23.52 45.85-52.77 45.85H97.69c-29.25 0-52.98-20.52-52.98-45.85V247.72c0-1.31.22-2.57.6-3.77 13.24 6.92 28.55 10.94 43.85 10.94 28.53 0 53.69-13.64 68.42-34.37 14.72 20.72 56.14 34.37 84.67 34.37s69.95-13.64 84.67-34.37c14.73 20.72 39.78 34.37 68.31 34.37zm-5.33-243.34c26.44 0 48.53 15.08 54.79 35.28 0 0 22.09 18.62 44.61 111.62 9.34 38.26-38.12 70.66-85.17 70.66-29.63 0-55.65-12.56-70.94-31.65-15.29 19.09-58.3 31.65-87.93 31.65s-72.64-12.56-87.93-31.65c-15.3 19.09-41.42 31.65-71.05 31.65-47.04 0-94.19-32.4-85.17-70.66 22.3-94.76 44.6-111.61 44.6-111.61 6.37-20.21 28.35-35.28 54.8-35.28h289.39zM386.9-.01z" style="stroke-width:0;fill:url(#_未命名的渐变_17)"/><path class="cls-2" d="M289.64 298.77c11.11 33.66 5.39 35.9-9.68 24.38-12.08-9.24 18.73 68.07-25.24 87.12 20.09-2.21 39.28-12.27 52.59-29.54 19.22-24.93 22.21-58.71 6.69-83.89-11.92-19.34-33.87-26.88-24.36 1.93z"/><path class="cls-2" d="M314 296.84c.58.94 1.14 1.9 1.67 2.87-.5 2.71-.63 6.23-.29 10.69 2.71 35.34-3.39 36.15-15.24 21.34-9.51-11.87 1.85 70.57-45.41 78.52-19.12 2.11-39.06-2.89-55.5-15.57-11.52-8.88-19.83-20.38-24.74-33.02 20.54 31 72.93 27.59 79.44 1.19 5.33-21.6 20.03-15.3 25.44.51.48-23.59-6.14-45.39.6-40.23 15.06 11.52 20.79 9.28 9.68-24.38-9.51-28.81 12.44-21.26 24.36-1.93zm-34.65 67.19c0-.2 0-.4.01-.6 0 .2 0 .4-.01.6zM279.36 363.43v.34-.34z"/><path class="cls-2" d="M186.88 344.33c10.45 9.24 11.8 26.83 36.91 34.23h-.91c-16.56-.17-29.09-6.23-38.79-15.23-13.96-12.97-9.94-30.25 2.78-18.99z"/><circle class="cls-2" cx="261.17" cy="330.54" r="8.57" transform="rotate(-13.28 261.238 330.616)"/><circle class="cls-2" cx="242.58" cy="357.83" r="5.31" transform="rotate(-13.28 242.654 357.88)"/><circle class="cls-2" cx="277.3" cy="298.75" r="5.31"/><circle class="cls-2" cx="246.67" cy="284.71" r="11.38" transform="rotate(-13.28 246.723 284.783)"/></svg>