<svg xmlns="http://www.w3.org/2000/svg" fill="none" width="20" height="20"><defs><clipPath id="a"><rect width="20" height="20" rx="0"/></clipPath></defs><g clip-path="url(#a)"><path d="M14.565 9.702a.789.789 0 0 0-.781-.751H6.12a.775.775 0 0 0-.76.768c0 .417.348.769.76.769h7.684c.413 0 .761-.352.761-.769v-.017zM8.189 3.737h3.57c.542 0 1-.523 1-1.143 0-.63-.458-1.142-1.022-1.142H8.19c-.564 0-1.022.512-1.022 1.142 0 .63.458 1.143 1.022 1.143zM13.805 6.092H6.121a.775.775 0 0 0-.76.768c0 .417.348.769.76.769h7.684c.413 0 .761-.352.761-.769a.775.775 0 0 0-.76-.768zM13.784 12.051H6.12a.775.775 0 0 0-.76.769c0 .416.348.768.76.768h7.684c.413 0 .761-.352.761-.768v-.017a.789.789 0 0 0-.782-.752z" fill="#044DA5"/><path d="M17.285 2.633c-.409-.442-.995-.675-1.695-.675h-1.023c-.408 0-.848.268-.848.702 0 .41.42.813.848.813h1.023c.476 0 .785.31.785.793v11.896c0 .482-.309.793-.785.793H4.575c-.494 0-1.046-.339-1.046-.793V4.266c0-.482.308-.793.785-.793h1.284c.377 0 .63-.327.63-.813 0-.44-.235-.702-.63-.702H4.314c-1.43 0-2.285.87-2.285 2.33v11.764c0 1.469.94 2.418 2.394 2.418H15.48c1.543 0 2.393-.859 2.393-2.418V4.288c0-.665-.204-1.237-.59-1.655z" fill="#646464"/></g></svg>