<svg xmlns="http://www.w3.org/2000/svg" fill="none" width="15" height="18"><path d="M.5 15.5 1 17l1 .5h11l1-1 .5-1V5h-4L10 4V.5H2Q1 .5.5 2v13.5z" fill="#2F2F30"/><path d="M12.691 18H2.307C1.034 18 0 16.992 0 15.75V2.254C0 1.01 1.033.003 2.307.003H9.23c.774-.011 1.08.016 1.154.016V.003L15 4.503v11.249C15 16.992 13.966 18 12.691 18zM10.384 1.128v2.25c0 .622.516 1.125 1.155 1.125h2.307l-3.462-3.375zm3.461 4.5h-2.307c-1.275 0-2.309-1.007-2.309-2.251q-.025-.903-.016-2.25H2.307c-.636 0-1.153.503-1.153 1.126V15.75c0 .62.516 1.126 1.153 1.126h10.385c.638 0 1.154-.505 1.154-1.126V5.628z" fill="#2F2F30"/><rect x="4" y="9.474" width="7" height=".947" rx=".474" fill="#E56A17"/><rect x="4" y="12.316" width="7" height=".947" rx=".474" fill="#E56A17"/></svg>