<svg xmlns="http://www.w3.org/2000/svg" fill="none" width="26.75" height="23.5"><defs><linearGradient x1="14.5" y1="6.75" x2="14.5" y2="7.75" gradientUnits="userSpaceOnUse" id="a"><stop offset="0%" stop-color="#3182DB"/><stop offset="100%" stop-color="#266CB8"/></linearGradient><linearGradient x1="30.5" y1="6.75" x2="30.5" y2="7.75" gradientUnits="userSpaceOnUse" id="b"><stop offset="0%" stop-color="#3182DB"/><stop offset="100%" stop-color="#266CB8"/></linearGradient><linearGradient x1=".5" y1="0" x2=".5" y2="1" id="c"><stop offset="0%" stop-color="#3182DB"/><stop offset="100%" stop-color="#2467B0"/></linearGradient><linearGradient x1="0" y1="0" x2=".5" y2="1" id="d"><stop offset="0%" stop-color="#3284DE"/><stop offset="97.143%" stop-color="#2467B0"/></linearGradient></defs><path stroke="url(#a)" stroke-width="1.5" stroke-linecap="ROUND" stroke-linejoin="round" d="M10 6h9" transform="rotate(180 10 6.75)"/><path stroke="url(#b)" stroke-width="1.5" stroke-linecap="ROUND" stroke-linejoin="round" d="M26 6h9" transform="rotate(180 26 6.75)"/><path d="M17.75 14.75v-14q0-.074-.014-.146-.015-.073-.043-.141-.028-.068-.07-.13-.04-.061-.093-.113-.052-.053-.113-.094-.062-.04-.13-.069-.068-.028-.14-.043Q17.073 0 17 0t-.146.014q-.073.015-.141.043-.068.028-.13.07-.061.04-.113.093-.053.052-.094.113-.04.062-.069.13-.028.068-.043.14-.014.073-.014.147v12.736l-2.316-1.265q-.081-.044-.17-.068-.09-.023-.183-.024-.092 0-.182.021-.09.022-.172.065L10.75 13.51V.75q0-.074-.014-.146-.015-.073-.043-.141-.028-.068-.07-.13-.04-.061-.093-.113-.052-.053-.113-.094-.062-.04-.13-.069-.068-.028-.14-.043Q10.073 0 10 0t-.146.014Q9.78.03 9.713.057q-.068.028-.13.07-.061.04-.113.093-.053.052-.094.113-.04.062-.069.13-.028.068-.043.14Q9.25.677 9.25.75v14q0 .184.085.348.07.132.184.228.115.095.257.14.142.044.291.031.149-.013.28-.082l3.22-1.685 3.074 1.678q.168.092.359.092.074 0 .146-.014.073-.015.141-.043.068-.028.13-.07.061-.04.113-.093.053-.052.094-.113.04-.062.069-.13.028-.068.043-.14.014-.073.014-.147z" fill-rule="evenodd" fill="url(#c)"/><path d="M1.75 18.11v-3.704q0-.074-.014-.146-.015-.073-.043-.141-.028-.068-.07-.13-.04-.061-.093-.113-.052-.053-.113-.094-.062-.04-.13-.069-.068-.028-.14-.043-.073-.014-.147-.014t-.146.014q-.073.015-.141.043-.068.028-.13.07-.061.04-.113.093-.053.052-.094.113-.04.062-.069.13-.028.068-.043.14-.014.073-.014.147v3.742q0 .037.004.074.27 2.713 1.818 4.056 1.545 1.341 4.236 1.21h14.643q.036 0 .072-.003 2.794-.268 4.247-1.729 1.48-1.488 1.48-4.093V5.583q0-.04-.004-.078-.268-2.557-1.643-3.952Q23.709.139 21.279 0L21.237 0H5.567Q2.694 0 1.225 2.127q-.51.74-.773 1.647Q.25 4.475.25 5.028v5.478q0 .074.014.146.015.073.043.141.028.068.07.13.04.061.093.114.052.052.113.093.062.04.13.07.068.027.14.042.073.014.147.014t.146-.014q.073-.015.141-.043.068-.028.13-.07.061-.04.113-.092.053-.053.094-.114.04-.062.069-.13.028-.068.043-.14.014-.073.014-.147V5.028q0-.34.144-.838.194-.672.565-1.21Q3.481 1.5 5.567 1.5h15.648q1.837.11 2.82 1.106.996 1.011 1.215 3.017v12.04q0 1.986-1.044 3.036-1.063 1.068-3.291 1.29H6.252q-2.103.106-3.197-.844-1.088-.944-1.305-3.035z" fill-rule="evenodd" fill="url(#d)"/><circle cx=".75" cy="12.5" fill="#3284DE" r=".75"/></svg>