<svg xmlns="http://www.w3.org/2000/svg" fill="none" width="16" height="16"><defs><clipPath id="a"><rect width="16" height="16" rx="0"/></clipPath></defs><g clip-path="url(#a)"><path d="M11.325 4.91c.044.024.086.05.128.08l.128.087.002.153c.006.445-.047.822-.163 1.11-.108.266-.267.465-.48.583-.145.518-.315.997-.556 1.4-.278.465-.644.82-1.162 1.013-.232.084-.824.125-1.393.116-.55-.008-1.101-.063-1.32-.164-.47-.218-.801-.582-1.053-1.036-.216-.388-.369-.84-.502-1.316-.22-.116-.385-.313-.496-.58-.122-.292-.179-.675-.17-1.128v-.155l.129-.085c.033-.022.066-.043.098-.061-.143-1.783-.089-2.443.572-3.196 1.29-1.058 4.25-1.02 5.558-.06.89.84.953 1.782.68 3.238zm-2.711 5.154.019.408-.243.4.338 2.216 1.381-2.97 2.105-.073c1.087 1.028 1.784 3.45 1.612 5.03H2.096c.03-1.387.285-3.756 1.666-4.962l1.902.017 1.781 2.937.334-2.197-.242-.398.02-.408a7.47 7.47 0 0 1 1.057 0zm1.573-5.787c-.836.164-2.08.306-3.065-.247-.378-.213-.933.223-1.386.178-.14.278-.246.583-.307.906l-.05.267-.268-.026a.482.482 0 0 0-.23.05c.008.297.048.542.125.726.067.163.163.267.284.307l.158.048.044.158c.131.489.28.95.487 1.325.193.348.44.625.782.783.143.065.6.103 1.078.11.508.008 1.014-.02 1.181-.08.377-.14.647-.409.858-.76.226-.378.387-.858.528-1.384l.04-.15.15-.052c.12-.042.212-.15.276-.313.073-.182.114-.425.12-.715a.386.386 0 0 0-.066-.027.408.408 0 0 0-.151-.023l-.263.017-.048-.258c-.06-.3-.152-.581-.277-.84z" fill="#044DA5"/></g></svg>