<svg t="1737545410677" class="icon" viewBox="0 0 1024 1024" version="1.1" xmlns="http://www.w3.org/2000/svg" p-id="8347" width="200" height="200"><path d="M1021.91752 825.112a151.656 151.656 0 0 1-38.768 107.152l-1.04 1.16c-0.472 0.528-0.96 1.056-1.464 1.56C922.48552 993.24 841.26952 1024 745.62152 1024l-2.24-0.008c-70.8-0.352-150.4-18.776-230.216-53.264a40.024 40.024 0 0 1-20.848-52.568 39.896 39.896 0 0 1 52.464-20.88c70.04 30.256 138.848 46.416 198.992 46.712l1.832 0.008c73.6 0 135.04-22.4 177.856-64.864l0.28-0.32a72.048 72.048 0 0 0-3.624-100.208C812.93352 675.048 762.32552 682.56 715.48552 728.32l-74.544 74.144a39.88 39.88 0 0 1-44.368 8.144c-4.216-1.88-104.648-47.424-217.824-160.808l-5.248-5.264c-113.2-113.408-158.64-214.04-160.52-218.272a40.064 40.064 0 0 1 8.128-44.448l74.016-74.704c45.664-46.928 53.152-97.624-50.208-205.024a71.72 71.72 0 0 0-100.024-3.616l-0.304 0.272C101.86152 142 79.47752 204.224 79.84552 278.784c0.72 143.704 82.04 310.592 217.536 446.512l0.376 0.368c25.872 25.92 55.424 51.696 87.84 76.6a40.04 40.04 0 0 1 7.384 56.08 39.864 39.864 0 0 1-55.976 7.4c-35.016-26.904-67.088-54.872-95.328-83.12l-0.376-0.384C91.02952 631.68 0.82952 443.616 0.00552 279.176c-0.48-96.8 30.24-179.008 88.84-237.72a39.44 39.44 0 0 1 1.552-1.48l1.144-1.032A151.072 151.072 0 0 1 198.50952 0.104 151.064 151.064 0 0 1 302.38952 46.56c53.76 55.864 84.8 102.664 97.672 147.288 17.736 61.504 1.6 118.456-47.944 169.28l-0.224 0.24-53.576 54.08c18.992 33.76 60.744 99.488 131.616 170.504l5.256 5.256c71.344 71.496 136.576 113.056 170.136 131.952l54.032-53.728 0.24-0.232c50.72-49.64 107.56-65.8 168.944-48.032 44.536 12.896 91.248 43.992 147 97.864a151.6 151.6 0 0 1 46.376 104.08zM656.71752 244h123.76V368c0 22.096 17.88 40 39.92 40a39.96 39.96 0 0 0 39.92-40V244h123.76a39.96 39.96 0 0 0 39.92-40c0-22.096-17.864-40-39.92-40h-123.76V40c0-22.096-17.864-40-39.92-40a39.96 39.96 0 0 0-39.92 40v124H656.72552a39.96 39.96 0 0 0-39.92 40c0 22.096 17.88 40 39.92 40z" fill="#4A90E2" p-id="8348"></path></svg>
