<svg xmlns="http://www.w3.org/2000/svg" fill="none" width="94" height="103"><path d="M57.77 0h-8.898v8.92c4.914 0 8.899-3.997 8.899-8.92z" fill="#EBB831"/><path d="M74.776 52.816c5.255.012 9.531 4.271 9.569 9.529v.106a4.087 4.087 0 0 1-4.078 4.016h-2.838l-8.373-23.019-7.728 2.819 7.338 20.2h-.558c-5.286 0-9.587-4.308-9.587-9.597V21.33a4.084 4.084 0 0 1 4.077-4.085h12.16c5.286 0 9.587 4.309 9.587 9.604a4.084 4.084 0 0 1-4.078 4.085c-5.286 0-9.581-4.302-9.587-9.598l-.781.286-3.942 1.434-1.853.676-2.776 1.012c1.55 8.673 8.918 15.352 17.892 15.83h.006c.347.019.688.031 1.04.031C87.84 40.605 94 34.435 94 26.85 94 16.22 85.367 7.574 74.757 7.574H62.598c-7.573 0-13.733 6.176-13.733 13.756v35.54c0 10.621 8.64 19.269 19.243 19.269h12.159c.365 0 .731-.013 1.097-.044a33.102 33.102 0 0 1-17.086 16.637l-.043.019c-1.023.434-2.077.82-3.149 1.148l3.297 9.058.013.043a42.615 42.615 0 0 0 7.517-3.247C85.045 92.503 93.975 78.504 94 62.451v-.106c-.031-9.423-6.854-17.276-15.822-18.89l-1.698 4.68-1.704 4.681-.012.037.012-.037zM48.896 81.825l.465 4.079h-.068l-2.659-6.655H43.71v9.665h2.69v-2.582l-.44-4.079h.062l2.658 6.661h2.913V79.25h-2.696v2.576zM34.99 79.249l-3.223 9.665h2.894l.52-2.272h2.926l.52 2.272h2.988l-3.217-9.665H34.99zm.7 5.208.911-3.104h.068l.942 3.104H35.69zM0 81.614h2.43v4.93H0v2.37h7.685v-2.37h-2.43v-4.93h2.43V79.25H0v2.365zM16.751 83.327l-1.214-.447c-1.066-.397-1.692-.639-1.692-1.136 0-.496.427-.726 1.053-.726 1.017 0 1.624.26 2.399.776l1.413-1.775a5.37 5.37 0 0 0-3.644-1.434c-2.43 0-4.072 1.496-4.072 3.32 0 1.547.942 2.515 2.25 2.98l1.388.522c.657.26 1.462.51 1.487 1.099.012.347-.328.627-1.184.627-.966 0-1.92-.429-2.726-1.037l-1.612 1.943c1.196 1.037 2.746 1.527 4.14 1.527 2.758 0 4.27-1.614 4.27-3.42-.006-1.478-.793-2.278-2.256-2.819zM24.882 79.249h-2.82v9.665h7.369v-2.37h-4.549v-7.295z" fill="#0D4C99"/><path d="M57.535 79.249h-3.074v9.665h3.235c2.888 0 5.045-1.098 5.045-4.885 0-3.78-2.15-4.78-5.206-4.78zm-.148 7.393h-.1v-5.127h.1c1.363 0 2.466.012 2.466 2.514s-1.103 2.613-2.466 2.613z" fill="#0D4C99"/></svg>