<svg xmlns="http://www.w3.org/2000/svg" xmlns:xlink="http://www.w3.org/1999/xlink" fill="none" version="1.1" width="22" height="22" viewBox="0 0 22 22"><defs><clipPath id="master_svg0_427_9964"><rect x="0" y="0" width="22" height="22" rx="0"/></clipPath></defs><g clip-path="url(#master_svg0_427_9964)"><g><path d="M10.3125,10.3125L6.1875,10.3125L6.1875,11.6875L10.3125,11.6875L10.3125,15.8125L11.6875,15.8125L11.6875,11.6875L15.8125,11.6875L15.8125,10.3125L11.6875,10.3125L11.6875,6.1875L10.3125,6.1875L10.3125,10.3125Z" fill="#FFFFFF" fill-opacity="1" style="mix-blend-mode:passthrough"/></g><g><path d="M19.9375,11C19.9375,15.9362,15.9362,19.9375,11,19.9375C6.06375,19.9375,2.0625,15.9362,2.0625,11C2.0625,6.06375,6.06375,2.0625,11,2.0625C15.9362,2.0625,19.9375,6.06375,19.9375,11ZM18.5625,11C18.5625,6.82344,15.1766,3.4375,11,3.4375C6.82344,3.4375,3.4375,6.82344,3.4375,11C3.4375,15.1766,6.82344,18.5625,11,18.5625C15.1766,18.5625,18.5625,15.1766,18.5625,11Z" fill="#FFFFFF" fill-opacity="1" style="mix-blend-mode:passthrough"/></g></g></svg>