<svg xmlns="http://www.w3.org/2000/svg" fill="none" width="24" height="24"><path d="M10.98.627c-.129-.415-.392-.628-.846-.627-3.027.008-6.054.004-9.08.007C.41.007.005.418.003 1.07V9.81c0 .896.256 1.18 1.162 1.26.296.025.597.023.895.015 2.158-.06 4.317-.048 6.476-.014.511.008 1.023.032 1.533.009.597-.028.83-.245.958-.834.04-.178.055-.365.056-.548.003-2.757.002-5.515.003-8.272.001-.272-.026-.54-.106-.8zm-2 7.972c.003.323-.085.393-.397.39-2.045-.015-4.09-.016-6.135.001-.329.003-.398-.091-.395-.404.013-2.046.014-4.092-.002-6.138-.003-.324.087-.402.404-.395 1.022.022 2.045.008 3.067.007 1.023 0 2.045.008 3.068-.006.276-.003.395.043.392.364A403.283 403.283 0 0 0 8.981 8.6zM22.807.004h-4.435c-1.493.001-2.985 0-4.478.002-.554 0-.807.192-.95.723a2.08 2.08 0 0 0-.077.546 509.78 509.78 0 0 1 0 8.317c-.009 1.237.313 1.535 1.553 1.506 2.586-.06 5.172-.078 7.758-.002.283.008.57.01.85-.028.61-.084.919-.458.919-1.078.002-2.943.002-5.886 0-8.83 0-.764-.388-1.155-1.14-1.156zM21.55 8.99c-1.05-.012-2.101-.006-3.152-.006v-.001c-1.037 0-2.073-.006-3.11.004-.25.003-.373-.022-.37-.334.016-2.088.013-4.176.001-6.265-.001-.274.093-.332.343-.33 2.1.007 4.203.006 6.304 0 .217-.002.297.052.297.28a828.7 828.7 0 0 0 .001 6.351c.001.244-.08.303-.314.3zM11.078 14.075c-.034-.84-.337-1.143-1.165-1.217a5.036 5.036 0 0 0-.68-.007c-2.202.104-4.405.032-6.607.042-.525.003-1.048-.068-1.575-.018-.712.068-1.05.416-1.05 1.125v4.437c0 1.493-.003 2.985.001 4.479.002.584.41 1.029.962 1.03 3.042.006 6.084.006 9.125.003.537 0 .789-.224.93-.753.06-.224.066-.448.066-.676-.004-2.204-.008-4.408-.01-6.613 0-.611.027-1.222.003-1.832zm-2.436 7.84a493.974 493.974 0 0 0-6.263 0c-.283.001-.326-.103-.325-.346.007-2.089.01-4.178-.002-6.266-.002-.293.101-.353.37-.352 2.073.01 4.147.014 6.22-.002.316-.003.338.125.336.374-.01 1.05-.004 2.103-.004 3.154 0 1.023-.01 2.046.006 3.068.004.265-.039.371-.338.37zM12.861 18.388c.034-1.323.02-2.645-.021-3.967-.038-1.225.259-1.515 1.483-1.517 1.649-.005 3.298.01 4.946-.012.366-.004.443.11.437.453-.022 1.137.001 2.276-.015 3.413-.004.297.077.398.378.384.497-.023.995-.02 1.492-.002.252.01.303-.079.303-.316-.002-1.195.022-2.389.022-3.583 0-.251.067-.374.332-.355.141.012.285-.006.426-.001 1.027.037 1.305.323 1.303 1.34-.004 1.577-.019 3.154-.013 4.732 0 .279-.075.363-.358.362a507.846 507.846 0 0 0-6.142 0c-.315.002-.39-.11-.367-.394.022-.254-.013-.513.01-.768.03-.303-.056-.442-.388-.43-.51.02-1.023.011-1.533-.008-.292-.01-.227.18-.228.34-.006 1.82-.02 3.64-.005 5.46.002.355-.09.498-.447.432-.069-.013-.142-.003-.212-.003-1.103-.003-1.397-.295-1.402-1.421-.005-1.381 0-2.76 0-4.14zM21.527 22.755c-.002-.409-.125-.923.106-1.192.223-.26.746-.078 1.137-.083.378-.005.87-.16 1.104.071.236.234.068.726.071 1.104.01.977-.317 1.303-1.293 1.287-.363-.005-.843.167-1.054-.076-.18-.206-.058-.673-.07-1.025l-.001-.086z" fill="#2F2F30"/><path d="M19.37 22.789c-.043.338.17.842-.084 1.09-.234.228-.73.064-1.11.062-.35-.001-.797.155-1.027-.059-.236-.217-.06-.669-.076-1.017-.016-.368.013-.736.012-1.104-.001-.211.068-.298.297-.29.567.017 1.134.016 1.7.002.222-.005.302.062.292.287-.015.324-.004.65-.004 1.029zM5.594 4.145c-.852-.02-1.447.545-1.45 1.374-.004.808.581 1.425 1.361 1.434.803.01 1.44-.61 1.445-1.406a1.38 1.38 0 0 0-1.356-1.402zM18.449 4.139c-.844-.003-1.42.57-1.42 1.409.001.838.558 1.41 1.37 1.405.797-.005 1.372-.595 1.377-1.415.006-.818-.543-1.397-1.327-1.4zM5.51 17.038c-.845.011-1.418.592-1.41 1.432.006.755.655 1.345 1.471 1.338.795-.007 1.38-.588 1.379-1.366-.004-.822-.612-1.415-1.44-1.404z" fill="#2F2F30"/></svg>