<svg xmlns="http://www.w3.org/2000/svg" xmlns:xlink="http://www.w3.org/1999/xlink" fill="none" version="1.1" width="16" height="19" viewBox="0 0 16 19"><g><path d="M6.96,2.304Q7.504,2.304,7.92,2.288Q8.32,2.288,8.472,2.296Q8.624,2.304,8.608,2.336Q8.432,2.736,8.376,3.152Q8.32,3.568,8.32,4.528Q8.32,5.04,8.328,5.256Q8.336,5.472,8.4,5.472L9.232,5.392Q10.176,5.312,11.152,5.168Q11.472,5.104,11.504,5.136L11.424,5.584L11.296,6.176Q11.264,6.352,11.184,6.368Q11.04,6.416,9.664,6.416L8.944,6.416Q8.672,6.384,8.504,6.4Q8.336,6.416,8.336,6.416Q8.304,6.544,8.248,6.8Q8.192,7.056,8.16,7.216Q8.16,7.248,8.488,7.264Q8.816,7.28,9.248,7.28Q10.352,7.28,11.424,7.2Q12.208,7.136,12.672,7.08Q13.136,7.024,13.024,7.024Q13.056,7.024,13.056,7.152Q13.056,7.376,13.024,7.616Q13.008,7.856,12.984,8.056Q12.96,8.256,12.96,8.384L12.96,8.576L12.672,8.56L11.504,8.496Q10.56,8.464,10.464,8.448L10.288,8.432L10.48,8.592Q10.544,8.656,10.624,8.712Q10.704,8.768,10.768,8.832Q11.056,9.072,11.04,9.056Q11.36,9.296,11.952,9.592Q12.544,9.888,13.04,10.064L13.44,10.208L14.208,10.208Q14.992,10.208,14.992,10.224Q14.992,10.272,14.8,10.592Q14.608,10.912,14.464,11.088Q14.176,11.488,13.84,11.752Q13.504,12.016,13.216,12.08Q13.152,12.096,13.056,12.096Q12.976,12.096,12.816,12.016Q12.416,11.824,11.696,11.152Q11.136,10.672,10.944,10.48L10.528,10.112L10.432,10.032L10.384,10.128Q10.336,10.32,10.256,11.008Q10.176,11.696,10.128,12.48Q10.096,13.136,10.056,13.504Q10.016,13.872,9.936,14.144Q9.776,14.768,9.584,15.04Q9.392,15.312,9.104,15.312Q8.912,15.312,8.312,15.072Q7.712,14.832,7.296,14.576Q7.152,14.48,7.12,14.44Q7.088,14.4,7.152,14.384Q7.36,14.336,7.584,14.224Q7.808,14.112,7.952,14Q8.096,13.872,8.328,13.536Q8.56,13.2,8.624,13.056Q8.688,12.896,8.808,12.232Q8.928,11.568,8.976,11.184Q8.976,11.136,8.832,11.136L8.544,11.152Q8.064,11.184,7.944,11.224Q7.824,11.264,7.696,11.504Q7.632,11.632,7.488,11.824L7.264,12.176Q7.072,12.4,6.768,12.88Q6.448,13.328,6.144,13.64Q5.84,13.952,5.44,14.208Q5.264,14.336,5.048,14.384Q4.832,14.432,4.432,14.432Q4.112,14.432,3.952,14.352Q3.792,14.272,3.472,13.952L3.136,13.616L3.504,13.584L4.032,13.52Q4.448,13.408,5.04,12.96Q5.488,12.624,6.152,11.984Q6.816,11.344,6.816,11.264Q6.816,11.216,6.704,11.216L6.48,11.232Q6.144,11.232,5.856,11.328Q5.568,11.392,5.504,11.392Q5.36,11.392,5.288,11.288Q5.216,11.184,5.136,10.88L5.056,10.544Q5.04,10.512,4.416,10.832Q3.824,11.12,3.376,11.264Q2.992,11.392,2.44,11.52Q1.888,11.648,1.776,11.648Q1.648,11.648,1.592,11.592Q1.536,11.536,1.448,11.256Q1.36,10.976,1.248,10.496Q1.008,9.456,1.024,9.456Q1.04,9.44,1.192,9.504Q1.344,9.568,1.488,9.632Q2.032,9.872,2.32,9.952Q2.608,10.032,3.024,10.032Q3.76,10.032,4.432,9.616Q4.992,9.28,5.512,8.8Q6.032,8.32,6,8.192Q5.952,8.144,4.656,8.4Q3.984,8.544,3.656,8.6Q3.328,8.656,3.312,8.624Q3.248,8.56,2.944,7.296Q2.928,7.216,2.944,7.208Q2.96,7.2,3.056,7.2Q3.248,7.2,3.728,7.28Q4.896,7.44,6.144,7.408L6.832,7.408L6.928,7.056L7.072,6.608L7.088,6.464L6.832,6.48Q6.8,6.496,6.144,6.576Q5.648,6.64,5.168,6.672L4.512,6.768Q4.368,6.784,4.312,6.688Q4.256,6.592,4.176,6.128L4.096,5.52L4.512,5.584Q4.944,5.664,5.84,5.664Q6.608,5.664,6.96,5.6L7.184,5.568L7.184,5.216Q7.216,4.56,7.056,3.472Q6.96,2.976,6.832,2.688L6.704,2.336L6.96,2.304ZM8.272,8.256Q8.16,8.208,7.936,8.208Q7.824,8.208,7.728,8.24Q7.68,8.24,7.488,8.464Q7.312,8.704,6.904,9.104Q6.496,9.504,6.24,9.68Q5.952,9.904,5.936,9.936Q5.936,9.952,5.808,10.032L5.68,10.112L5.936,10.16Q6.336,10.208,6.824,10.256Q7.312,10.304,7.696,10.32Q8.144,10.32,8.736,10.224Q9.328,10.128,9.872,9.968Q10.064,9.904,10.088,9.888Q10.112,9.872,10.08,9.808L9.744,9.488Q8.944,8.768,8.944,8.768Q8.688,8.528,8.528,8.4Q8.368,8.272,8.272,8.256ZM9.808,2.96Q9.92,2.688,9.944,2.648Q9.968,2.608,10.032,2.64Q10.256,2.88,10.648,3.36Q11.04,3.84,11.088,3.92Q11.168,4.08,11.168,4.128Q11.168,4.208,11.008,4.272Q10.576,4.496,9.736,4.832Q8.896,5.168,8.784,5.168Q8.784,5.168,8.776,5.16Q8.768,5.152,8.768,5.152Q8.768,5.104,8.912,4.896Q8.96,4.816,9.072,4.64Q9.184,4.464,9.232,4.368Q9.328,4.208,9.504,3.816Q9.68,3.424,9.68,3.36L9.808,2.96ZM5.104,3.376Q5.168,3.28,5.216,3.224Q5.264,3.168,5.296,3.152Q5.328,3.168,5.384,3.216Q5.44,3.264,5.472,3.344L5.824,3.824L6.224,4.416L6.448,4.72Q6.496,4.72,6.496,4.752Q6.496,4.848,6.592,4.944Q6.784,5.184,6.624,5.168Q6.544,5.12,6.192,5.088Q5.632,4.992,5.096,4.888Q4.56,4.784,4.368,4.736Q4.352,4.72,4.632,4.208Q4.912,3.696,5.104,3.376Z" fill="#FFFFFF" fill-opacity="1"/></g></svg>