<svg xmlns="http://www.w3.org/2000/svg" width="18" height="18" fill="none"><defs><clipPath id="a"><rect width="18" height="18" rx="0"/></clipPath></defs><g clip-path="url(#a)"><path fill="#7B7B7B" d="M8.006 13.973h1.491v-1.491H8.006zm2.288-4.674c-.747.499-1.095 1.095-1.095 1.742v.446H8.004v-.546c-.049-.896.399-1.691 1.194-2.289.896-.645 1.343-1.292 1.243-1.89-.099-.894-.596-1.391-1.541-1.442-1.095-.05-1.79.597-2.039 1.94l-1.343-.348c.398-1.989 1.642-2.934 3.63-2.885 1.742.1 2.636.945 2.836 2.588.05.993-.498 1.89-1.691 2.684M9 1.043c-4.376 0-7.957 3.58-7.957 7.957S4.623 16.958 9 16.958 16.957 13.376 16.957 9 13.377 1.043 9 1.043m0 16.909C4.077 17.952.047 13.924.047 9 .047 4.077 4.077.047 9 .047S17.953 4.077 17.953 9 13.923 17.953 9 17.953z" style="mix-blend-mode:passthrough"/></g></svg>