<svg xmlns="http://www.w3.org/2000/svg" fill="none" width="13" height="15"><path d="M0 .736V.575C.015.55.006.522.009.496.029.314.154.211.305.133.473.046.656.015.845.01c.315-.01.629-.005.943-.007.486-.004.915.147 1.283.455.229.191.407.424.54.686.385.758.778 1.513 1.162 2.272.284.564.58 1.123.863 1.688.242.485.493.964.738 1.447.036.07.077.138.126.2.033.043.054.041.086-.001a.797.797 0 0 0 .072-.123c.755-1.49 1.527-2.97 2.29-4.456.173-.34.347-.679.523-1.018.126-.242.28-.464.484-.651.272-.251.596-.406.962-.474.124-.023.253-.023.379-.023.337-.002.674-.016 1.01.02.197.022.38.086.533.22.115.099.153.22.16.363.013.276-.074.522-.217.753-.255.414-.528.816-.792 1.224-.3.463-.602.925-.903 1.387-.259.398-.52.795-.778 1.193-.364.56-.73 1.117-1.093 1.677l-.385.59c-.012.019-.035.037-.024.06.014.028.045.018.069.018.564 0 1.127-.006 1.691.003.35.006.701.023 1.036.145a.867.867 0 0 1 .4.268.625.625 0 0 1-.206.92 1.787 1.787 0 0 1-.602.188 3.17 3.17 0 0 1-.49.042H8.24c-.162 0-.168.006-.168.163v.943c0 .15.007.158.166.158.838 0 1.677-.004 2.516.002.321.002.639.046.938.174a.799.799 0 0 1 .27.184.624.624 0 0 1-.158.965 1.655 1.655 0 0 1-.567.185 4.896 4.896 0 0 1-.806.055H8.142c-.041.003-.063.025-.069.063-.005.03-.003.059-.003.088 0 .507.005 1.014-.002 1.522a1.678 1.678 0 0 1-.18.773c-.158.301-.41.496-.741.595-.124.037-.25.039-.376.048-.025.002-.05-.007-.074.007h-.346c-.093-.014-.188-.01-.281-.02a1.181 1.181 0 0 1-.777-.4c-.2-.228-.286-.501-.317-.796-.05-.494-.017-.99-.027-1.485v-.29c-.001-.091-.014-.103-.11-.104h-2.35c-.31 0-.617-.023-.919-.097a1.127 1.127 0 0 1-.516-.26c-.21-.194-.215-.595-.056-.794.129-.161.303-.247.495-.304.272-.078.551-.11.833-.11.823-.002 1.645 0 2.468-.002.15 0 .155-.004.155-.15v-.984c0-.115-.012-.127-.131-.127-.853 0-1.705.002-2.558-.002a2.665 2.665 0 0 1-.816-.124.89.89 0 0 1-.439-.28.528.528 0 0 1-.115-.277c-.033-.317.105-.557.403-.691.222-.1.459-.146.702-.165.678-.052 1.357-.016 2.036-.027.016 0 .032.002.048 0 .033-.004.078.015.096-.019.015-.029-.019-.058-.035-.083-.374-.57-.745-1.14-1.117-1.71L1.67 3.622C1.33 3.102.989 2.582.65 2.06c-.17-.263-.353-.52-.5-.798A1.222 1.222 0 0 1 0 .736z" fill="#1c1c1c"/></svg>