<svg
  xmlns="http://www.w3.org/2000/svg"
  xmlns:xlink="http://www.w3.org/1999/xlink"
  fill="none"
  version="1.1"
  width="13"
  height="15"
  viewBox="0 0 13 15"
>
  <g>
    <path
      d="M0,0.736499C0,0.682568,0,0.628636,0,0.574705C0.0150381,0.549987,0.00578387,0.521897,0.0086758,0.496055C0.0289193,0.314037,0.153851,0.211231,0.30481,0.133143C0.472542,0.0460663,0.656469,0.0151682,0.845602,0.00898854C1.15967,-0.000561793,1.47373,0.00449426,1.78779,0.00224713C2.27422,-0.00168536,2.70338,0.149435,3.07123,0.457292C3.2997,0.648299,3.47784,0.880878,3.61087,1.14267C3.99607,1.90108,4.38938,2.65555,4.77285,3.41509C5.05742,3.97912,5.35355,4.53753,5.6358,5.10268C5.87757,5.5875,6.12917,6.06671,6.3744,6.54984C6.41026,6.62063,6.45075,6.68804,6.50049,6.7504C6.53346,6.79253,6.5537,6.79141,6.58551,6.74871C6.61385,6.71051,6.63699,6.66838,6.65781,6.62624C7.41318,5.13695,8.18533,3.65553,8.94707,2.16961C9.12116,1.83029,9.29525,1.49098,9.47108,1.15222C9.59659,0.91009,9.75102,0.688186,9.95462,0.50055C10.227,0.249994,10.5509,0.0949416,10.9171,0.0269657C11.0408,0.00393257,11.1698,0.00449435,11.2959,0.00393257C11.6325,0.00224722,11.9703,-0.0123592,12.3058,0.0241568C12.503,0.0455046,12.6852,0.11011,12.839,0.243253C12.9536,0.342688,12.9917,0.464034,12.9987,0.607289C13.012,0.882563,12.9246,1.12919,12.7823,1.36008C12.5273,1.77355,12.2543,2.17635,11.99,2.58421C11.6898,3.04712,11.3879,3.5089,11.0871,3.97125C10.828,4.369,10.5677,4.76618,10.3086,5.16448C9.94478,5.72346,9.57866,6.28131,9.21602,6.84085C9.08819,7.03803,8.95921,7.23466,8.83081,7.43184C8.81924,7.44982,8.79553,7.46836,8.8071,7.49139C8.82098,7.51892,8.85163,7.50937,8.87592,7.50937C9.43985,7.50993,10.0032,7.50319,10.5671,7.51218C10.9171,7.5178,11.2681,7.53521,11.603,7.65656C11.7603,7.71386,11.8986,7.79419,12.0021,7.92453C12.1941,8.16553,12.1831,8.63125,11.7968,8.84529C11.6088,8.94978,11.4052,9.00034,11.1947,9.03349C11.0327,9.05933,10.8696,9.07394,10.7059,9.0745C9.88347,9.07562,9.06101,9.07506,8.23854,9.07506C8.07659,9.07506,8.07081,9.08068,8.07081,9.23798C8.07081,9.55202,8.07081,9.86662,8.07081,10.1807C8.07081,10.3312,8.07833,10.3385,8.23681,10.3385C9.07547,10.3385,9.91413,10.3346,10.7528,10.3408C11.0744,10.343,11.3919,10.3874,11.6909,10.5149C11.7933,10.5587,11.8858,10.6183,11.9616,10.6986C12.2097,10.9604,12.186,11.4441,11.8031,11.6638C11.6273,11.7649,11.4347,11.816,11.2357,11.8486C10.9691,11.893,10.6996,11.9036,10.4295,11.9036C9.69723,11.9042,8.96499,11.9036,8.23218,11.9036C8.2021,11.9036,8.17203,11.9036,8.14195,11.9048C8.10088,11.907,8.07891,11.9289,8.07312,11.9671C8.06849,11.9963,8.07023,12.0256,8.07023,12.0548C8.07023,12.5621,8.07486,13.0693,8.06849,13.5766C8.06502,13.8452,8.01644,14.1081,7.88862,14.3502C7.72956,14.6513,7.47854,14.8457,7.14655,14.9451C7.02335,14.9822,6.89726,14.9839,6.77117,14.9929C6.7463,14.9946,6.72085,14.9862,6.69714,14.9996C6.58146,14.9996,6.46636,14.9996,6.35069,14.9996C6.25757,14.9862,6.16271,14.9906,6.06959,14.98C5.75784,14.9429,5.49583,14.812,5.2934,14.5805C5.09385,14.3525,5.00652,14.0789,4.97644,13.7845C4.92612,13.2896,4.95851,12.7935,4.94925,12.2986C4.94752,12.202,4.94983,12.1053,4.94868,12.0093C4.94752,11.9177,4.93537,11.9059,4.83878,11.9048C4.72773,11.9036,4.61726,11.9048,4.50621,11.9048C3.83412,11.9048,3.16146,11.9048,2.48937,11.9048C2.17936,11.9048,1.87166,11.8823,1.57032,11.8081C1.37887,11.761,1.20246,11.6862,1.0544,11.5486C0.844443,11.3537,0.838659,10.9531,0.998294,10.7537C1.1267,10.593,1.30079,10.5065,1.49339,10.4503C1.76466,10.3717,2.04402,10.3396,2.32627,10.3391C3.14874,10.338,3.9712,10.3391,4.79367,10.3385C4.94463,10.3385,4.94925,10.334,4.94925,10.1874C4.94925,9.85988,4.94983,9.53179,4.94925,9.20428C4.94925,9.08855,4.93711,9.07675,4.81796,9.07675C3.96542,9.07619,3.11288,9.079,2.26033,9.07506C1.98271,9.07394,1.70798,9.03686,1.44365,8.95091C1.27303,8.89529,1.1186,8.81271,1.00524,8.67058C0.939878,8.58856,0.901126,8.49586,0.890136,8.39362C0.85659,8.07677,0.994824,7.83689,1.29269,7.70263C1.51479,7.60263,1.75193,7.55656,1.99486,7.53802C2.67272,7.48578,3.35175,7.52173,4.03078,7.51106C4.04697,7.51106,4.06317,7.51274,4.07936,7.5105C4.11233,7.50656,4.15686,7.52623,4.17479,7.49196C4.18983,7.46331,4.15629,7.43409,4.13951,7.40881C3.76588,6.83973,3.39513,6.26895,3.02323,5.69874C2.57093,5.0055,2.11979,4.31394,1.6698,3.62238C1.33029,3.10161,0.989042,2.5814,0.650685,2.0595C0.480061,1.79602,0.296712,1.53985,0.150381,1.26121C0.0630442,1.09492,0.00751903,0.923011,0,0.736499Z"
      fill="#8E8E8E"
      fill-opacity="1"
    />
    <!-- <path
      d="M0,0.736499C0,0.682568,0,0.628636,0,0.574705C0.0150381,0.549987,0.00578387,0.521897,0.0086758,0.496055C0.0289193,0.314037,0.153851,0.211231,0.30481,0.133143C0.472542,0.0460663,0.656469,0.0151682,0.845602,0.00898854C1.15967,-0.000561793,1.47373,0.00449426,1.78779,0.00224713C2.27422,-0.00168536,2.70338,0.149435,3.07123,0.457292C3.2997,0.648299,3.47784,0.880878,3.61087,1.14267C3.99607,1.90108,4.38938,2.65555,4.77285,3.41509C5.05742,3.97912,5.35355,4.53753,5.6358,5.10268C5.87757,5.5875,6.12917,6.06671,6.3744,6.54984C6.41026,6.62063,6.45075,6.68804,6.50049,6.7504C6.53346,6.79253,6.5537,6.79141,6.58551,6.74871C6.61385,6.71051,6.63699,6.66838,6.65781,6.62624C7.41318,5.13695,8.18533,3.65553,8.94707,2.16961C9.12116,1.83029,9.29525,1.49098,9.47108,1.15222C9.59659,0.91009,9.75102,0.688186,9.95462,0.50055C10.227,0.249994,10.5509,0.0949416,10.9171,0.0269657C11.0408,0.00393257,11.1698,0.00449435,11.2959,0.00393257C11.6325,0.00224722,11.9703,-0.0123592,12.3058,0.0241568C12.503,0.0455046,12.6852,0.11011,12.839,0.243253C12.9536,0.342688,12.9917,0.464034,12.9987,0.607289C13.012,0.882563,12.9246,1.12919,12.7823,1.36008C12.5273,1.77355,12.2543,2.17635,11.99,2.58421C11.6898,3.04712,11.3879,3.5089,11.0871,3.97125C10.828,4.369,10.5677,4.76618,10.3086,5.16448C9.94478,5.72346,9.57866,6.28131,9.21602,6.84085C9.08819,7.03803,8.95921,7.23466,8.83081,7.43184C8.81924,7.44982,8.79553,7.46836,8.8071,7.49139C8.82098,7.51892,8.85163,7.50937,8.87592,7.50937C9.43985,7.50993,10.0032,7.50319,10.5671,7.51218C10.9171,7.5178,11.2681,7.53521,11.603,7.65656C11.7603,7.71386,11.8986,7.79419,12.0021,7.92453C12.1941,8.16553,12.1831,8.63125,11.7968,8.84529C11.6088,8.94978,11.4052,9.00034,11.1947,9.03349C11.0327,9.05933,10.8696,9.07394,10.7059,9.0745C9.88347,9.07562,9.06101,9.07506,8.23854,9.07506C8.07659,9.07506,8.07081,9.08068,8.07081,9.23798C8.07081,9.55202,8.07081,9.86662,8.07081,10.1807C8.07081,10.3312,8.07833,10.3385,8.23681,10.3385C9.07547,10.3385,9.91413,10.3346,10.7528,10.3408C11.0744,10.343,11.3919,10.3874,11.6909,10.5149C11.7933,10.5587,11.8858,10.6183,11.9616,10.6986C12.2097,10.9604,12.186,11.4441,11.8031,11.6638C11.6273,11.7649,11.4347,11.816,11.2357,11.8486C10.9691,11.893,10.6996,11.9036,10.4295,11.9036C9.69723,11.9042,8.96499,11.9036,8.23218,11.9036C8.2021,11.9036,8.17203,11.9036,8.14195,11.9048C8.10088,11.907,8.07891,11.9289,8.07312,11.9671C8.06849,11.9963,8.07023,12.0256,8.07023,12.0548C8.07023,12.5621,8.07486,13.0693,8.06849,13.5766C8.06502,13.8452,8.01644,14.1081,7.88862,14.3502C7.72956,14.6513,7.47854,14.8457,7.14655,14.9451C7.02335,14.9822,6.89726,14.9839,6.77117,14.9929C6.7463,14.9946,6.72085,14.9862,6.69714,14.9996C6.58146,14.9996,6.46636,14.9996,6.35069,14.9996C6.25757,14.9862,6.16271,14.9906,6.06959,14.98C5.75784,14.9429,5.49583,14.812,5.2934,14.5805C5.09385,14.3525,5.00652,14.0789,4.97644,13.7845C4.92612,13.2896,4.95851,12.7935,4.94925,12.2986C4.94752,12.202,4.94983,12.1053,4.94868,12.0093C4.94752,11.9177,4.93537,11.9059,4.83878,11.9048C4.72773,11.9036,4.61726,11.9048,4.50621,11.9048C3.83412,11.9048,3.16146,11.9048,2.48937,11.9048C2.17936,11.9048,1.87166,11.8823,1.57032,11.8081C1.37887,11.761,1.20246,11.6862,1.0544,11.5486C0.844443,11.3537,0.838659,10.9531,0.998294,10.7537C1.1267,10.593,1.30079,10.5065,1.49339,10.4503C1.76466,10.3717,2.04402,10.3396,2.32627,10.3391C3.14874,10.338,3.9712,10.3391,4.79367,10.3385C4.94463,10.3385,4.94925,10.334,4.94925,10.1874C4.94925,9.85988,4.94983,9.53179,4.94925,9.20428C4.94925,9.08855,4.93711,9.07675,4.81796,9.07675C3.96542,9.07619,3.11288,9.079,2.26033,9.07506C1.98271,9.07394,1.70798,9.03686,1.44365,8.95091C1.27303,8.89529,1.1186,8.81271,1.00524,8.67058C0.939878,8.58856,0.901126,8.49586,0.890136,8.39362C0.85659,8.07677,0.994824,7.83689,1.29269,7.70263C1.51479,7.60263,1.75193,7.55656,1.99486,7.53802C2.67272,7.48578,3.35175,7.52173,4.03078,7.51106C4.04697,7.51106,4.06317,7.51274,4.07936,7.5105C4.11233,7.50656,4.15686,7.52623,4.17479,7.49196C4.18983,7.46331,4.15629,7.43409,4.13951,7.40881C3.76588,6.83973,3.39513,6.26895,3.02323,5.69874C2.57093,5.0055,2.11979,4.31394,1.6698,3.62238C1.33029,3.10161,0.989042,2.5814,0.650685,2.0595C0.480061,1.79602,0.296712,1.53985,0.150381,1.26121C0.0630442,1.09492,0.00751903,0.923011,0,0.736499Z"
      fill="#FF5201"
      fill-opacity="1"
    /> -->
  </g>
</svg>
