<svg xmlns="http://www.w3.org/2000/svg" fill="none" width="7" height="7"><path d="m6.927 6.653-1.744-1.73a2.89 2.89 0 0 0 .727-1.95A2.96 2.96 0 0 0 2.955 0 2.96 2.96 0 0 0 0 2.973a2.96 2.96 0 0 0 2.955 2.973c.75 0 1.43-.268 1.938-.731l1.744 1.73a.22.22 0 0 0 .29 0c.097-.097.097-.22 0-.292zm-6.54-3.68A2.577 2.577 0 0 1 2.956.39a2.561 2.561 0 0 1 2.567 2.583c0 .682-.266 1.316-.702 1.779-.024 0-.024.024-.048.024-.025.025-.025.025-.025.05-.46.438-1.09.706-1.768.706C1.55 5.556.388 4.386.388 2.973z" fill="#000"/></svg>