<svg xmlns="http://www.w3.org/2000/svg" fill="none" width="18" height="18"><defs><mask id="a"><rect width="18" height="18" rx="0" fill="#FFF"/></mask></defs><g mask="url(#a)"><path d="M16.139 6.436A7.157 7.157 0 0 0 8.99.016a7 7 0 0 0-7.15 6.42A2.681 2.681 0 0 0-.004 8.995v1.795a2.663 2.663 0 0 0 2.597 2.694 2.682 2.682 0 0 0 2.71-2.693V8.995A2.57 2.57 0 0 0 3.785 6.57 5.1 5.1 0 0 1 8.99 1.81a4.998 4.998 0 0 1 5.092 4.76 2.57 2.57 0 0 0-1.518 2.425v1.795c.006.77.341 1.502.922 2.01v1.245a2.153 2.153 0 0 1-2.248 2.133h-.54a.899.899 0 1 0 0 1.796h.54a3.999 3.999 0 0 0 4.013-3.929v-.56a2.764 2.764 0 0 0 2.732-2.695V8.995a2.828 2.828 0 0 0-1.844-2.559zM3.572 10.791a.934.934 0 0 1-.978.898.91.91 0 0 1-.865-.898V8.995a.91.91 0 0 1 .865-.898.928.928 0 0 1 .977.898v1.796zm12.567 0a.91.91 0 0 1-.865.898.936.936 0 0 1-.978-.898V8.995a.93.93 0 0 1 .978-.898.91.91 0 0 1 .865.898v1.796z" fill="#666"/></g></svg>