<svg xmlns="http://www.w3.org/2000/svg" fill="none" width="19" height="18"><defs><mask id="a"><rect width="19" height="18" rx="0" fill="#FFF"/></mask><mask id="b"><rect width="19" height="18" rx="0" fill="#FFF"/></mask></defs><g mask="url(#a)"><path d="M9.495 5.128a3.872 3.872 0 0 0-3.871 3.864 3.872 3.872 0 0 0 3.871 3.864c.208 0 .427-.022.692-.068a.728.728 0 0 0-.125-1.442.722.722 0 0 0-.134.013c-.173.031-.31.046-.431.046a2.416 2.416 0 0 1-2.415-2.411 2.414 2.414 0 0 1 2.411-2.411 2.415 2.415 0 0 1 2.414 2.41c0 .13-.015.266-.045.43a.728.728 0 0 0 .719.858c.352 0 .654-.251.715-.596.047-.252.068-.472.068-.69.001-1.031-.401-2.001-1.133-2.732a3.839 3.839 0 0 0-2.736-1.135z" fill="#666"/></g><g mask="url(#b)"><path d="M18.818 7.216a.646.646 0 0 0-.491-.508 3.294 3.294 0 0 1-2.139-1.574 3.291 3.291 0 0 1-.298-2.632.64.64 0 0 0-.195-.678A9.477 9.477 0 0 0 12.609.046a.65.65 0 0 0-.687.17 3.29 3.29 0 0 1-2.429 1.058 3.293 3.293 0 0 1-2.43-1.06.659.659 0 0 0-.688-.17c-1.141.4-2.18.999-3.083 1.78a.646.646 0 0 0-.194.675A3.284 3.284 0 0 1 2.8 5.132 3.29 3.29 0 0 1 .663 6.706a.651.651 0 0 0-.491.509A9.532 9.532 0 0 0 0 8.99c0 .581.058 1.178.172 1.776.047.25.24.45.491.508a3.296 3.296 0 0 1 2.14 1.573c.464.804.57 1.74.295 2.633a.652.652 0 0 0 .195.676 9.474 9.474 0 0 0 3.085 1.78c.249.085.516.011.685-.17a3.294 3.294 0 0 1 2.43-1.06c.93 0 1.793.377 2.43 1.06a.645.645 0 0 0 .688.17 9.483 9.483 0 0 0 3.085-1.779.65.65 0 0 0 .196-.676 3.273 3.273 0 0 1 .298-2.633 3.282 3.282 0 0 1 2.139-1.573.65.65 0 0 0 .49-.508 9.522 9.522 0 0 0 .172-1.776c0-.58-.059-1.179-.173-1.776zm-4.57 7.851a7.674 7.674 0 0 1-1.862 1.074 4.37 4.37 0 0 0-5.784 0 7.666 7.666 0 0 1-1.863-1.074 4.312 4.312 0 0 0-.496-3.048 4.347 4.347 0 0 0-2.4-1.953 7.6 7.6 0 0 1-.077-1.074c0-.353.026-.714.077-1.074a4.354 4.354 0 0 0 2.895-5.002 7.661 7.661 0 0 1 1.863-1.073 4.356 4.356 0 0 0 2.891 1.096 4.347 4.347 0 0 0 2.892-1.094c.67.27 1.295.63 1.861 1.073a4.341 4.341 0 0 0 .494 3.048 4.352 4.352 0 0 0 2.4 1.954 7.626 7.626 0 0 1 .001 2.147 4.358 4.358 0 0 0-2.4 1.953 4.35 4.35 0 0 0-.493 3.047z" fill="#666"/></g></svg>