<svg xmlns="http://www.w3.org/2000/svg" width="13" height="13" fill="none"><defs><clipPath id="a"><rect width="13" height="13" rx="0"/></clipPath></defs><g clip-path="url(#a)"><path fill="#DC3428" d="M6.494 8.342a.534.534 0 0 0 .53-.532c.005-1.36.37-2.379 1.083-3.026.552-.5 1.354-.809 2.383-.918l.196-.02L9.26 5.373a.53.53 0 0 0 .028.751.53.53 0 0 0 .36.135.53.53 0 0 0 .392-.161l2.204-2.362.002-.002a.64.64 0 0 0 .19-.456.68.68 0 0 0-.208-.481L10 .715a.53.53 0 0 0-.36-.136.54.54 0 0 0-.391.163.534.534 0 0 0 .026.751l1.387 1.293-.163.015c-1.314.123-2.356.525-3.1 1.198-.943.856-1.426 2.14-1.432 3.816a.526.526 0 0 0 .527.527" style="mix-blend-mode:passthrough"/><path fill="#DC3428" d="M11.912 6.039a.53.53 0 0 0-.53.532C11.344 9.223 9.155 11.38 6.5 11.38A4.885 4.885 0 0 1 1.62 6.5c0-2.656 2.162-4.845 4.82-4.88a.534.534 0 0 0 .525-.54.534.534 0 0 0-.54-.523C3.19.6.557 3.267.557 6.5a5.95 5.95 0 0 0 5.944 5.943c3.23 0 5.896-2.636 5.943-5.873a.533.533 0 0 0-.532-.531" style="mix-blend-mode:passthrough"/></g></svg>