<svg xmlns="http://www.w3.org/2000/svg" fill="none" width="34.276" height="31.516"><defs><filter id="b" filterUnits="objectBoundingBox" color-interpolation-filters="sRGB" x="0" y="0" width="1" height="1"><feFlood flood-opacity="0" result="BackgroundImageFix"/><feBlend in="SourceGraphic" in2="BackgroundImageFix" result="shape"/><feGaussianBlur in="BackgroundImageFix" stdDeviation="3"/><feComposite in2="SourceAlpha" operator="in" result="effect1_foregroundBlur"/><feBlend in="SourceGraphic" in2="effect1_foregroundBlur" result="shape"/></filter><filter id="c" filterUnits="objectBoundingBox" color-interpolation-filters="sRGB" x="0" y="0" width="1" height="1"><feFlood flood-opacity="0" result="BackgroundImageFix"/><feBlend in="SourceGraphic" in2="BackgroundImageFix" result="shape"/><feGaussianBlur in="BackgroundImageFix" stdDeviation="3"/><feComposite in2="SourceAlpha" operator="in" result="effect1_foregroundBlur"/><feBlend in="SourceGraphic" in2="effect1_foregroundBlur" result="shape"/></filter><linearGradient x1=".5" y1="0" x2=".5" y2="1" id="a"><stop offset="0%" stop-color="#58ACFF"/><stop offset="100%" stop-color="#4581E8"/></linearGradient></defs><path d="M0 7.842v19.674q0 .196.02.392.019.195.057.388.038.193.095.38.057.189.132.37.076.182.168.355.093.174.202.337.11.163.234.315.125.152.264.291.139.139.29.264.152.124.316.234.163.109.336.201.174.093.355.168.182.075.37.132.188.057.38.096.193.038.389.057.195.02.392.02h26.276q.196 0 .392-.02.195-.019.388-.057.193-.039.38-.096.189-.057.37-.132.182-.075.355-.168.173-.092.337-.201.163-.11.315-.234.152-.125.29-.264.14-.139.264-.29.125-.153.234-.316.11-.163.202-.337.093-.173.168-.355.075-.181.132-.37.057-.187.096-.38.038-.193.057-.388.02-.196.02-.392V7.842q0-.196-.02-.392-.019-.195-.057-.388-.039-.193-.096-.38-.057-.189-.132-.37-.075-.182-.168-.355-.092-.174-.202-.337-.109-.163-.233-.315-.125-.152-.264-.291-.139-.14-.29-.264-.153-.124-.316-.234-.164-.109-.337-.201-.173-.093-.355-.168-.181-.076-.37-.133-.187-.057-.38-.095t-.388-.058q-.196-.019-.392-.019H4q-.197 0-.392.02-.196.019-.388.057-.193.038-.381.095t-.37.133q-.181.075-.355.168-.173.092-.336.201-.164.11-.316.234-.151.125-.29.264-.14.139-.264.29-.125.153-.234.316-.11.163-.202.337-.092.173-.168.354-.075.182-.132.37-.057.188-.095.38-.038.194-.058.39Q0 7.645 0 7.841zm14.322 15.612c.293.322.68.486 1.07.486.324 0 .65-.114.924-.347l9.849-8.356c.66-.561.783-1.604.272-2.33-.51-.725-1.46-.859-2.121-.298l-8.797 7.463-4.282-4.702a1.419 1.419 0 0 0-2.138 0c-.59.649-.59 1.7 0 2.348l5.223 5.736z" fill-rule="evenodd" fill="url(#a)"/><g filter="url(#b)"><rect x="7.4" width="4.1" height="7.685" rx="2.05" fill="#C5E2FF" fill-opacity=".36"/></g><g filter="url(#c)"><rect x="22.775" width="4.1" height="7.685" rx="2.05" fill="#C5E2FF" fill-opacity=".36"/></g></svg>