<svg xmlns="http://www.w3.org/2000/svg" fill="none" width="375" height="95"><defs><clipPath id="a"><rect x="167" y="9" width="44" height="40" rx="0"/></clipPath></defs><path d="M0 23.467V95h375V23.467H231.203q-10.326-1.713-12.907 10.016c-2.581 11.73-14.056 23.6-29.686 23.175-15.63-.425-26.679-8.291-31.984-22.891q-1.858-10.043-12.623-10.39-10.751-.335-144.003.09z" fill="#FFF"/><ellipse cx="188.17" cy="26.535" rx="26.601" ry="26.535" fill="#FFF"/><g><g clip-path="url(#a)"><path d="M200.902 16.403c3.271 9.798 1.586 10.452-2.848 7.097-3.556-2.69 5.515 19.816-7.431 25.362 5.913-.645 11.564-3.573 15.483-8.6 5.659-7.256 6.536-17.09 1.968-24.42-3.51-5.628-9.97-7.825-7.172.561z" fill="#6CDCFF"/><path d="M208.076 15.844c.17.275.334.554.49.836-.146.789-.186 1.813-.085 3.113.797 10.288-.997 10.522-4.488 6.214-2.799-3.455.545 20.543-13.369 22.859-5.63.614-11.5-.842-16.339-4.533A22.378 22.378 0 0 1 167 34.718c6.047 9.023 21.47 8.03 23.387.348 1.57-6.288 5.898-4.455 7.49.146.14-6.866-1.808-13.214.177-11.713 4.434 3.354 6.119 2.7 2.848-7.097-2.798-8.385 3.664-6.188 7.174-.558zm-10.203 19.558.003-.176-.003.176z" fill="#07A8EF"/><path d="m197.878 35.226-.002.098.002-.098z" fill="#036EB7"/><path d="M170.65 29.666c3.075 2.689 3.474 7.81 10.865 9.965a6.958 6.958 0 0 1-.266 0c-4.876-.048-8.566-1.814-11.418-4.436-4.11-3.775-2.928-8.804.818-5.529z" fill="#6CDCFF"/><ellipse cx="192.005" cy="26.293" rx="2.521" ry="2.496" fill="#6CDCFF" transform="matrix(.9738 -.22737 .23227 .97265 -.564 43.734)"/><ellipse cx="186.73" cy="33.991" rx="1.562" ry="1.547" fill="#07A8EF" transform="matrix(.9738 -.22737 .23227 .97265 -2.686 42.99)"/><g><ellipse cx="197.268" cy="16.398" rx="1.563" ry="1.546" fill="#07A8EF"/></g><g transform="matrix(.9738 -.22737 .23227 .97265 2.538 42.157)"><ellipse cx="187.57" cy="13.162" rx="3.347" ry="3.314" fill="#07A8EF"/></g></g></g></svg>