<svg xmlns="http://www.w3.org/2000/svg" fill="none" width="35" height="34"><path d="M22.678 6.217c-1.148.22-2.294.795-3.27 1.643L18.24 8.873a90.642 90.642 0 0 0-9.021 9.022c-1.343 1.546-1.61 3.563-.634 4.791a23.09 23.09 0 0 0 3.729 3.73c1.228.975 3.245.707 4.791-.635a90.633 90.633 0 0 0 9.022-9.021l1.013-1.168c.848-.976 1.424-2.122 1.643-3.27.249-1.306.284-2.586.103-3.788-.197-1.306-1.114-2.223-2.42-2.42-1.202-.181-2.483-.146-3.788.103z" fill="#FBC501"/><path d="M25.5 14c-1.152 0-2.304-.39-3.182-1.17C21.468 12.074 21 11.07 21 10c0-1.069.468-2.074 1.318-2.83 1.754-1.56 4.61-1.56 6.364 0C29.532 7.926 30 8.931 30 10c0 1.07-.468 2.074-1.318 2.83-.85.756-2.03 1.17-3.182 1.17zm0-5.881c-.542 0-1.084.184-1.497.55-.412.367-.62.829-.62 1.332 0 .503.221.975.62 1.33.826.735 2.168.735 2.994 0 .4-.355.62-.827.62-1.33 0-.503-.221-.976-.62-1.331a2.252 2.252 0 0 0-1.497-.551z" fill="#000"/><path d="M14.134 34a7.006 7.006 0 0 1-4.512-1.644 56.728 56.728 0 0 1-6.979-6.979 7.016 7.016 0 0 1-.022-8.997A98.2 98.2 0 0 1 15.39 3.61l1.668-1.385a9.504 9.504 0 0 1 5.56-2.192 19.7 19.7 0 0 1 6.46.697 7.492 7.492 0 0 1 5.191 5.192c.588 2.104.823 4.277.697 6.459a9.504 9.504 0 0 1-2.191 5.56l-1.386 1.668a98.17 98.17 0 0 1-12.77 12.77A7.01 7.01 0 0 1 14.135 34zm8.61-31.81a7.362 7.362 0 0 0-4.305 1.696L16.77 5.27A96.002 96.002 0 0 0 4.282 17.76a4.858 4.858 0 0 0 .016 6.23 54.578 54.578 0 0 0 6.712 6.712 4.86 4.86 0 0 0 6.23.016A96.029 96.029 0 0 0 29.73 18.229l1.385-1.668a7.357 7.357 0 0 0 1.697-4.305 17.557 17.557 0 0 0-.62-5.753 5.354 5.354 0 0 0-3.694-3.694 17.559 17.559 0 0 0-5.753-.62z" fill="#000"/><path d="M2.763 19c-.429 0-.837-.25-1.017-.67a49.022 49.022 0 0 1-1.417-3.688 6.213 6.213 0 0 1 2.86-7.423A84.131 84.131 0 0 1 17.371.966l1.761-.59A8.368 8.368 0 0 1 20.756.01a1.11 1.11 0 0 1 .272 2.204c-.405.05-.807.141-1.194.27l-1.761.59A81.921 81.921 0 0 0 4.264 9.16a3.99 3.99 0 0 0-1.837 4.768 46.787 46.787 0 0 0 1.352 3.52A1.112 1.112 0 0 1 2.763 19z" fill="#000"/></svg>