<svg xmlns="http://www.w3.org/2000/svg" width="40" height="40" fill="none"><defs><clipPath id="a"><rect width="40" height="40" rx="0"/></clipPath></defs><g clip-path="url(#a)"><path fill="#044DA5" fill-opacity=".3" d="M30.25 29c0-1.75-.5-3.5-1.5-4.75-1.75-2-3.75-3-6.25-3H18c-1.75 0-3.25.5-4.75 1.5-1.75 1.25-2.75 3-3 5C10 30 10.25 32.5 10 35c.25 0 .75.25 1 .25 3 .75 5.75 1.5 8.75 1.5 1.75 0 3.75 0 5.5-.25 1.5-.25 3-.75 4.5-1.25.25 0 .25-.25.25-.5.25-2 .25-4 .25-5.75" style="mix-blend-mode:passthrough"/><path fill="#044DA5" fill-opacity=".3" d="M14 20.75c.5-.25.75-.25 1.25-.5-1.5-1.5-2.25-3-2.25-5H7.75c-1 0-2 .25-2.75.5-2.75 1-5 3.75-5 6.75v6.25c0 .25 0 .25.25.5 2 .5 4 1 6 1.25.75 0 1.75.25 2.5.25v-1.5c0-.75 0-1.5.25-2.25.75-3 2.5-5 5-6.25M40 23c0-1-.25-2.25-.75-3.25-1.5-3-3.75-4.5-7-4.5H27.5c0 2-.75 3.75-2.25 5q.25 0 .5.25c1.25.5 2.5 1.25 3.5 2.25q2.25 2.625 2.25 6v1.75c1.25-.25 2.25-.25 3.5-.5 1.5-.25 3.25-.75 4.75-1.5.25 0 .25-.25.25-.5zM20.25 21c3.25 0 6-2.75 5.75-6 0-3.25-2.75-5.75-5.75-5.75-3.25 0-6 2.5-6 5.75.25 3.25 2.75 6 6 6M27.5 14.5c.75.25 1.5.5 2.5.5 3.25 0 6-2.75 5.75-6 0-3.25-2.75-5.75-5.75-5.75-3.25 0-6 2.5-6 5.75 2 1 3.25 3 3.5 5.5M10 15c1 0 2.25-.25 3-.75.25-2 1.25-3.75 2.75-4.75v-.25C15.75 6 13 3.5 10 3.5 6.75 3.5 4 6 4 9.25c0 3 2.75 5.75 6 5.75" style="mix-blend-mode:passthrough"/></g></svg>