<svg xmlns="http://www.w3.org/2000/svg" width="31" height="31" fill="none"><defs><clipPath id="a"><rect width="31" height="31" rx="0"/></clipPath></defs><g clip-path="url(#a)"><path fill="#586168" d="M9.666 18.854a.502.502 0 0 1-.357-.86l2.416-2.415-2.416-2.416a.502.502 0 1 1 .712-.711l2.621 2.621a.717.717 0 0 1 0 1.017l-2.621 2.616a.5.5 0 0 1-.355.148m2.265-3.072h.006z" style="mix-blend-mode:passthrough"/><g style="opacity:.5"><path fill="#586168" d="M14.201 18.854a.502.502 0 0 1-.357-.86l2.416-2.415-2.416-2.416a.502.502 0 1 1 .712-.711l2.621 2.621a.72.72 0 0 1 0 1.017l-2.621 2.622a.5.5 0 0 1-.355.142m2.265-3.072h.006z" style="mix-blend-mode:passthrough"/></g><g style="opacity:.20000000298023224"><path fill="#586168" d="M18.736 18.854a.502.502 0 0 1-.357-.86l2.416-2.415-2.416-2.416a.502.502 0 1 1 .711-.711l2.622 2.621a.72.72 0 0 1 0 1.017l-2.622 2.622a.5.5 0 0 1-.354.142m2.265-3.072h.006z" style="mix-blend-mode:passthrough"/></g></g></svg>