<svg xmlns="http://www.w3.org/2000/svg" fill="none" width="26.75" height="23.5"><defs><linearGradient x1=".5" y1="0" x2=".5" y2="1" id="a"><stop offset="0%" stop-color="#3181DA"/><stop offset="96.429%" stop-color="#2467B0"/></linearGradient><linearGradient x1=".5" y1="0" x2=".5" y2="1" id="b"><stop offset="0%" stop-color="#266BB7"/><stop offset="100%" stop-color="#2467B0"/></linearGradient></defs><path d="M15.25 5.75v5q0 .074.014.146.015.073.043.141.028.068.07.13.04.061.093.113.052.053.113.094.062.04.13.069.068.028.14.043.073.014.147.014h9q.129 0 .25-.043.122-.043.222-.124.057-.046.104-.103.048-.057.083-.122t.057-.135q.022-.07.03-.144.008-.074 0-.147-.006-.074-.027-.145-.02-.07-.055-.136-.034-.065-.08-.123l-4.046-5q-.053-.065-.119-.117-.065-.052-.141-.088-.076-.036-.157-.054Q21.039 5 20.955 5H16q-.074 0-.146.014-.073.015-.141.043-.068.028-.13.07-.061.04-.113.093-.053.052-.094.113-.04.062-.069.13-.028.068-.043.14-.014.073-.014.147zm1.5 4.25h6.679l-2.832-3.5H16.75V10z" fill-rule="evenodd" fill="#2F7DD3"/><circle cx=".75" cy="13.5" fill="#3284DE" r=".75"/><path d="M1.75 15.919v-.169q0-.074-.014-.146-.015-.073-.043-.141-.028-.068-.07-.13-.04-.061-.093-.113-.052-.053-.113-.094-.062-.04-.13-.069-.068-.028-.14-.043Q1.073 15 1 15t-.146.014q-.073.015-.141.043-.068.028-.13.07-.061.04-.113.093-.053.052-.094.113-.04.062-.069.13-.028.068-.043.14-.014.073-.014.147v2.937q0 1.146.749 1.965.775.848 1.887.848H5q.069 0 .136-.013.065-.011.126-.034.06-.023.117-.056.056-.033.106-.075.05-.042.092-.092.041-.05.074-.107.032-.057.054-.118.022-.061.034-.126.011-.064.011-.129 0-.074-.014-.146-.015-.073-.043-.141-.028-.068-.07-.13-.04-.061-.093-.113-.052-.053-.113-.094-.062-.04-.13-.069-.068-.028-.14-.043Q5.073 20 5 20H2.886q-.45 0-.78-.36-.356-.39-.356-.953V15.92z" fill-rule="evenodd" fill="#2366AF"/><path d="M15.25 20H9.5q-.074 0-.146.014-.073.015-.141.043-.068.028-.13.07-.061.04-.113.093-.053.052-.094.113-.04.062-.069.13-.028.068-.043.14-.014.073-.014.147t.014.146q.015.073.043.141.028.068.07.13.04.061.093.113.052.053.113.094.062.04.13.069.068.028.14.043.073.014.147.014H16q.074 0 .146-.014.073-.015.141-.043.068-.028.13-.07.061-.04.113-.093.053-.052.094-.113.04-.062.069-.13.028-.068.043-.14.014-.073.014-.147V3.093q0-1.272-.869-2.176Q15 0 13.748 0H3.252Q2 0 1.119.917.25 1.82.25 3.093v8.281q0 .074.014.146.015.073.043.141.028.068.07.13.04.061.093.113.052.053.113.094.062.04.13.069.068.028.14.043.073.014.147.014t.146-.014q.073-.015.141-.043.068-.028.13-.07.061-.04.113-.093.053-.052.094-.113.04-.062.069-.13.028-.068.043-.14.014-.073.014-.147v-8.28q0-.67.45-1.138Q2.64 1.5 3.252 1.5h10.496q.613 0 1.052.456.45.469.45 1.137V20z" fill-rule="evenodd" fill="url(#a)"/><path d="M24.606 20H22.35q-.074 0-.146.014-.073.015-.141.043-.068.028-.13.07-.061.04-.114.093-.052.052-.093.113-.04.062-.07.13-.027.068-.042.14-.014.073-.014.147t.014.146q.015.073.043.141.028.068.07.13.04.061.092.113.053.053.114.094.062.04.13.069.068.028.14.043.073.014.147.014h2.256q.916 0 1.548-.714.596-.674.596-1.608v-6.856q0-.936-.598-1.61Q25.52 10 24.606 10H16q-.074 0-.146.014-.073.015-.141.043-.068.028-.13.07-.061.04-.113.093-.053.052-.094.113-.04.062-.069.13-.028.068-.043.14-.014.073-.014.147v10q0 .074.014.146.015.073.043.141.028.068.07.13.04.061.093.113.052.053.113.094.062.04.13.069.068.028.14.043.073.014.147.014h1.588q.074 0 .147-.014.072-.015.14-.043.068-.028.13-.07.061-.04.114-.093.052-.052.093-.113.04-.062.07-.13.027-.068.042-.14.014-.073.014-.147t-.014-.146q-.015-.073-.043-.141-.028-.068-.07-.13-.04-.061-.092-.113-.053-.053-.114-.094-.062-.04-.13-.069-.068-.028-.14-.043-.073-.014-.147-.014h-.838v-8.5h7.856q.24 0 .424.208.22.247.22.614v6.856q0 .366-.22.614-.184.208-.424.208z" fill-rule="evenodd" fill="url(#b)"/><circle cx="20" cy="20.75" stroke="#2467B0" stroke-width="1.5" stroke-linecap="ROUND" stroke-linejoin="round" r="2"/><circle cx="7" cy="20.75" stroke="#2467B0" stroke-width="1.5" stroke-linecap="ROUND" stroke-linejoin="round" r="2"/></svg>