<svg xmlns="http://www.w3.org/2000/svg" fill="none" width="27" height="27"><defs><clipPath id="a"><rect width="27" height="27" rx="0"/></clipPath></defs><g clip-path="url(#a)"><path d="M0 0h27v27H0V0z" fill="#202425" style="opacity:.009999999776482582"/><path d="M19.614 2.7a.45.45 0 0 1 .318.131l6.77 6.77a.45.45 0 0 1 .018.616l-12.882 14.6a.45.45 0 0 1-.675 0L.28 10.218A.45.45 0 0 1 .3 9.6l6.77-6.77a.45.45 0 0 1 .317-.131h12.228z" fill="#1A6"/><path d="M13.162 9.513 7.33 2.849a.09.09 0 0 1 .068-.149h12.204a.09.09 0 0 1 .068.15l-5.832 6.663a.45.45 0 0 1-.676 0z" fill="#FA4"/><path d="M6.608 10.122a.9.9 0 0 1 1.269.086l5.623 6.426 5.622-6.426a.9.9 0 0 1 1.356 1.184l-6.3 7.2a.9.9 0 0 1-1.356 0l-6.3-7.2a.9.9 0 0 1 .086-1.269z" fill="#FFF"/></g></svg>
