<svg xmlns="http://www.w3.org/2000/svg" fill="none" width="29.177" height="25.253"><defs><linearGradient x1="-.25" y1=".5" x2="1.153" y2=".5" id="a"><stop offset="0%" stop-color="#3284DE"/><stop offset="99.286%" stop-color="#3283DE"/></linearGradient><linearGradient x1="1.23" y1="1.313" x2=".3" y2="-.204" id="b"><stop offset="0%" stop-color="#2263AA"/><stop offset="99.286%" stop-color="#3284DE"/></linearGradient><linearGradient x1="0" y1=".05" x2="1" y2="1.24" id="c"><stop offset="0%" stop-color="#3284DE"/><stop offset="99.286%" stop-color="#2263AA"/></linearGradient><linearGradient x1="0" y1="0" x2="1" y2="1.196" id="d"><stop offset="0%" stop-color="#3283DD"/><stop offset="100%" stop-color="#2364AB"/></linearGradient></defs><path d="M20.86 4.784v.001q.062.136.171.237.11.102.25.154.126.048.261.048h.027q.15-.006.285-.068.098-.045.18-.115.081-.071.14-.162.058-.09.088-.194.03-.104.03-.211v-.001q0-.163-.067-.31-.854-1.87-1.766-3.132-.615-.85-1.516-1-.83-.14-1.792.354l-8.73 3.39q-.14.053-.247.157-.108.103-.168.24-.064.144-.064.302v.002q0 .139.051.27.054.138.157.246.103.108.24.168.144.064.302.064h.002q.14 0 .27-.051l8.768-3.404q.04-.016.077-.035.537-.283.886-.224.294.05.549.4.824 1.141 1.616 2.874z" fill-rule="evenodd" fill="url(#a)"/><path d="M0 10.018v1.156q0 .074.014.146.015.073.043.141.028.068.07.13.04.061.093.113.052.053.113.094.062.04.13.069.068.028.14.043.073.014.147.014t.146-.014q.073-.015.141-.043.068-.028.13-.07.061-.04.113-.093.053-.052.094-.113.04-.062.069-.13.028-.068.043-.14.014-.073.014-.147V8.931q.334-1.902 1.312-2.813.963-.898 2.654-.898H20.07q.858.095 1.68.411 1.424.55 2.309 1.634.615.754.921 1.71.046.142.142.256.096.113.23.182.16.083.342.083h.013q.11-.002.216-.036.057-.018.11-.045.052-.026.1-.061.048-.035.09-.077.042-.041.077-.09.035-.047.062-.1.027-.052.045-.109.019-.056.028-.114.01-.059.01-.118V8.74q-.002-.114-.037-.223-.393-1.226-1.187-2.2-1.137-1.392-2.932-2.085-1.025-.395-2.101-.508-.04-.004-.078-.004H5.466q-2.282 0-3.677 1.3Q.424 6.294.01 8.743 0 8.804 0 8.867v1.15z" fill-rule="evenodd" fill="url(#b)"/><path d="M1.5 20.061v-4.65q0-.075-.014-.147-.015-.072-.043-.14-.028-.069-.07-.13-.04-.062-.093-.114-.052-.052-.113-.093-.062-.041-.13-.07-.068-.028-.14-.042-.073-.015-.147-.015t-.146.015q-.073.014-.141.042-.068.029-.13.07-.061.04-.113.093-.053.052-.094.114-.04.061-.069.13-.028.068-.043.14Q0 15.336 0 15.41v4.677q0 .026.002.05.288 4.263 4.83 5.103.067.013.136.013h15.583q3.751-.03 5.939-4.462.077-.157.077-.332v-.014q-.002-.103-.032-.202-.03-.099-.085-.186-.055-.087-.132-.156-.077-.069-.169-.114-.157-.078-.332-.078h-.007q-.12.001-.234.04-.141.048-.253.146-.113.099-.178.232-1.78 3.604-4.594 3.626H5.039q-3.32-.644-3.539-3.692z" fill-rule="evenodd" fill="url(#c)"/><path d="M27.86 17.735q1.314-1.293 1.317-3.126v-.002q0-1.831-1.315-3.125-1.31-1.29-3.16-1.29h-4.964q-1.849 0-3.159 1.29-1.315 1.294-1.315 3.125 0 1.832 1.315 3.126 1.31 1.29 3.16 1.29h4.964q1.849 0 3.158-1.288zm-.183-3.129v.001q-.002 1.206-.868 2.059-.871.857-2.106.857h-4.965q-1.234 0-2.106-.859-.868-.853-.868-2.057 0-1.203.868-2.056.872-.859 2.106-.859h4.965q1.235 0 2.107.859.866.853.867 2.055z" fill-rule="evenodd" fill="url(#d)"/><ellipse cx="22.156" cy="14.549" rx="1.675" ry="1.648" fill="#3284DE"/><circle cx=".88" cy="13.5" fill="#3284DE" r=".75"/></svg>