<?xml version="1.0" standalone="no"?><!DOCTYPE svg PUBLIC "-//W3C//DTD SVG 1.1//EN" "http://www.w3.org/Graphics/SVG/1.1/DTD/svg11.dtd"><svg t="1705973736590" class="icon" viewBox="0 0 1024 1024" version="1.1" xmlns="http://www.w3.org/2000/svg" p-id="6968" xmlns:xlink="http://www.w3.org/1999/xlink" width="128" height="128"><path d="M724.48 695.04H555.52c-87.04 0-158.08-71.04-158.08-158.08v-11.52c0-87.04 71.04-158.08 158.08-158.08h264.96c17.92 0 32 14.08 32 32s-14.08 32-32 32H555.52c-51.84 0-94.08 42.24-94.08 94.08v11.52c0 51.84 42.24 94.08 94.08 94.08h168.96c17.92 0 32 14.08 32 32s-14.08 32-32 32z" fill="#515151" p-id="6969"></path><path d="M558.08 527.36m-42.24 0a42.24 42.24 0 1 0 84.48 0 42.24 42.24 0 1 0-84.48 0Z" fill="#515151" p-id="6970"></path><path d="M731.52 919.68H313.6c-67.2 0-121.6-54.4-121.6-121.6V275.84c0-67.2 54.4-121.6 121.6-121.6h418.56c67.2 0 121.6 54.4 121.6 121.6V396.8c0 17.92-14.08 32-32 32s-32-14.08-32-32V275.84c0-32-25.6-57.6-57.6-57.6H313.6c-32 0-57.6 25.6-57.6 57.6v522.24c0 32 25.6 57.6 57.6 57.6h418.56c32 0 57.6-25.6 57.6-57.6V520.96c0-17.92 14.08-32 32-32s32 14.08 32 32v277.76c-0.64 66.56-55.04 120.96-122.24 120.96z" fill="#515151" p-id="6971"></path></svg>
