<svg xmlns="http://www.w3.org/2000/svg" fill="none" width="23" height="23"><defs><clipPath id="a"><rect width="23" height="23" rx="0"/></clipPath></defs><g clip-path="url(#a)"><path d="m20.442 7.131-11.59 6.694-.07.047a.635.635 0 0 1-.303.07.659.659 0 0 1-.584-.35l-.047-.093-1.842-4.014c-.022-.047-.022-.092-.022-.139a.32.32 0 0 1 .328-.328c.07 0 .139.023.208.07l2.17 1.54c.162.093.35.162.56.162a.937.937 0 0 0 .35-.07l10.17-4.525c-1.82-2.143-4.827-3.545-8.234-3.545-5.55 0-10.076 3.758-10.076 8.399 0 2.517 1.352 4.804 3.475 6.345a.69.69 0 0 1 .278.537.64.64 0 0 1-.047.208c-.162.63-.445 1.658-.445 1.703a.852.852 0 0 0-.047.256c0 .186.14.328.328.328.07 0 .14-.023.186-.07l2.193-1.282c.161-.092.35-.162.536-.162.093 0 .21.023.304.047 1.026.303 2.147.467 3.29.467 5.548-.002 10.074-3.76 10.074-8.398 0-1.401-.42-2.729-1.143-3.897z" fill="#09BB07"/></g></svg>