<svg xmlns="http://www.w3.org/2000/svg" data-name="图层 1" viewBox="0 0 73.33 71.95"><defs><linearGradient id="a" x1="36.67" x2="36.67" y1="0" y2="71.95" data-name="未命名的渐变 9" gradientUnits="userSpaceOnUse"><stop offset="0" stop-color="#ff6d63"/><stop offset="1" stop-color="#ffa476"/></linearGradient></defs><path d="M32.52 11.95H18.89c-.94 0-1.67-.2-2.17-.61-.5-.4-.86-.92-1.06-1.54-.2-.62-.3-1.32-.3-2.1s.07-1.51.2-2.19c.07-.68.2-1.43.4-2.24.2-.81.49-1.49.86-2.05.37-.56.86-.93 1.46-1.12.61-.19 1.35-.03 2.22.47 1.01.56 2.15 1.17 3.43 1.82 1.28.65 2.52 1.31 3.74 1.96 1.21.65 2.34 1.25 3.38 1.77 1.04.53 1.83.95 2.37 1.26.67.44 1.18.92 1.51 1.45.34.53.47 1.03.4 1.49-.07.47-.34.86-.81 1.17-.47.31-1.14.47-2.02.47Zm7.87-.09h13.53c.94 0 1.67-.2 2.17-.61.5-.4.86-.92 1.06-1.54.2-.62.3-1.32.3-2.1s-.03-1.51-.1-2.19c-.13-.68-.29-1.42-.45-2.19-.17-.78-.44-1.45-.81-2.01-.37-.56-.86-.93-1.46-1.12-.61-.19-1.35-.06-2.22.37-1.01.56-2.15 1.17-3.43 1.82-1.28.65-2.54 1.31-3.79 1.96-1.25.65-2.39 1.24-3.43 1.77s-1.8.95-2.27 1.26c-.74.44-1.28.92-1.62 1.45-.34.53-.47 1.03-.4 1.49.07.47.34.86.81 1.17.47.31 1.18.47 2.12.47Zm31.78 3.81c-.77-.78-2.23-1.17-4.39-1.17H5.14c-2.15 0-3.54.32-4.18.98-.64.65-.96 1.69-.96 3.13v8.22c0 1.55.35 2.7 1.06 3.45.71.75 2.1 1.12 4.18 1.12h62.85c2.09 0 3.47-.35 4.18-1.07.71-.71 1.06-1.81 1.06-3.31v-8.03c0-1.44-.38-2.55-1.16-3.32ZM3.48 34.16v29.46c0 2.65.98 4.69 2.93 6.15 1.95 1.45 4.98 2.18 9.09 2.18h18.98v-.02h4.49v.02h18.98c4.1 0 7.1-.77 8.99-2.29 1.88-1.53 2.86-3.63 2.93-6.28V34.16H3.48Zm26.91 4.82h2.48a2.48 2.48 0 0 1-2.48 2.48v-2.48Zm7.2 4.79h-3.38c-.63 0-1.13.51-1.13 1.13v9.87c0 1.47 1.2 2.67 2.67 2.67h.16l-2.04-5.61 2.15-.78 2.33 6.39h.79c.62 0 1.12-.5 1.13-1.12v-.03a2.676 2.676 0 0 0-2.66-2.65l.47-1.3.47-1.3c2.49.45 4.39 2.63 4.4 5.25v.03c0 4.46-2.49 8.35-6.14 10.36-.66.36-1.36.67-2.09.9s-.92-2.53-.92-2.53c.3-.09.59-.2.88-.32h.01c2.1-.9 3.8-2.55 4.75-4.63-.1 0-.2.01-.31.01h-3.38c-2.95 0-5.35-2.4-5.35-5.35v-9.87c0-2.1 1.71-3.82 3.82-3.82h3.38c2.95 0 5.35 2.4 5.35 5.35a3.82 3.82 0 0 1-3.82 3.82h-.29a5.358 5.358 0 0 1-4.98-4.4l.77-.28.52-.19 1.1-.4.22-.08c0 1.47 1.2 2.67 2.67 2.67.63 0 1.13-.51 1.13-1.13 0-1.47-1.2-2.67-2.67-2.67Z" style="fill:url(#a);stroke-width:0"/></svg>