<svg xmlns="http://www.w3.org/2000/svg" fill="none" width="33.186" height="28.079"><defs><linearGradient x1=".5" y1="0" x2=".5" y2="1" id="a"><stop offset="0%" stop-color="#4AF2BF"/><stop offset="100%" stop-color="#41D192"/></linearGradient><filter id="b" filterUnits="objectBoundingBox" color-interpolation-filters="sRGB" x="0" y="0" width="1" height="1"><feFlood flood-opacity="0" result="BackgroundImageFix"/><feBlend in="SourceGraphic" in2="BackgroundImageFix" result="shape"/><feGaussianBlur in="BackgroundImageFix" stdDeviation="1"/><feComposite in2="SourceAlpha" operator="in" result="effect1_foregroundBlur"/><feBlend in="SourceGraphic" in2="effect1_foregroundBlur" result="shape"/></filter></defs><path d="M0 14.626v10.9a2.554 2.554 0 0 0 2.553 2.553h28.08a2.554 2.554 0 0 0 2.553-2.553v-10.9H0zm33.186-1.88V7.66a2.552 2.552 0 0 0-2.553-2.553h-3.83V3.83c0-2.056-1.38-3.83-3.262-3.83H9.644C7.763 0 6.383 1.774 6.383 3.83v1.276h-3.83A2.554 2.554 0 0 0 0 7.66v5.087h33.186zM8.936 3.83c0-.767.398-1.277.708-1.277h13.897c.311 0 .709.514.709 1.277v1.276H8.936V3.83z" fill="url(#a)"/><g filter="url(#b)"><rect x="14.692" y="9.225" width="4.1" height="9.225" rx="2.05" fill="#97FFB6" fill-opacity=".01"/></g></svg>