<svg xmlns="http://www.w3.org/2000/svg" fill="none" width="33" height="33"><defs><clipPath id="a"><rect width="33" height="33" rx="0"/></clipPath></defs><g clip-path="url(#a)"><path d="M8.653 8.653a1.375 1.375 0 0 1 1.857-.08l.087.08 13.75 13.75a1.375 1.375 0 0 1-1.857 2.025l-.087-.08-13.75-13.75a1.375 1.375 0 0 1 0-1.945z" fill="#767373" style="mix-blend-mode:passthrough"/><path d="M22.403 8.653a1.375 1.375 0 0 1 2.024 1.857l-.08.087-13.75 13.75a1.375 1.375 0 0 1-2.025-1.857l.08-.087 13.75-13.75z" fill="#767373" style="mix-blend-mode:passthrough"/></g></svg>