<svg xmlns="http://www.w3.org/2000/svg" fill="none" width="38.889" height="95.052"><defs><filter id="a" filterUnits="objectBoundingBox" color-interpolation-filters="sRGB" x="0" y="0" width="1" height="1"><feFlood flood-opacity="0" result="BackgroundImageFix"/><feBlend in="SourceGraphic" in2="BackgroundImageFix" result="shape"/><feColorMatrix in="SourceAlpha" result="hardAlpha" values="0 0 0 0 0 0 0 0 0 0 0 0 0 0 0 0 0 0 127 0"/><feOffset/><feGaussianBlur stdDeviation="2"/><feComposite in2="hardAlpha" operator="arithmetic" k2="-1" k3="1"/><feColorMatrix values="0 0 0 0 1 0 0 0 0 0.9490196108818054 0 0 0 0 0.7882353067398071 0 0 0 0.529411792755127 0"/><feBlend in2="shape" result="effect1_innerShadow"/></filter><mask id="b" style="mask-type:alpha" maskUnits="objectBoundingBox"><g filter="url(#a)"><rect width="38.889" height="95.052" rx="0" fill="#FFF"/></g></mask></defs><g mask="url(#b)" style="opacity:.07000000029802322"><path d="M7.673.002H0v8.233c4.24 0 7.673-3.688 7.673-8.233zM22.326 48.74c4.526.01 8.21 3.943 8.244 8.794v.097c-.034 2.05-1.598 3.708-3.514 3.708h-2.443l-7.217-21.245-6.656 2.602 6.323 18.643h-.48c-4.555 0-8.263-3.979-8.263-8.86V19.686c0-2.08 1.574-3.77 3.513-3.77h10.479c4.554 0 8.258 3.974 8.258 8.86 0 2.082-1.574 3.77-3.514 3.77-4.554 0-8.253-3.968-8.258-8.855l-.675.26-3.394 1.327-1.598.622-2.391.933c1.336 8.003 7.683 14.17 15.413 14.609h.005c.3.02.594.03.898.03 6.528 0 11.834-5.697 11.834-12.695 0-9.809-7.44-17.786-16.578-17.786H11.833C5.31 6.99 0 12.688 0 19.686V52.48c0 9.804 7.445 17.786 16.583 17.786h10.473c.314 0 .633-.015.946-.04-2.938 6.88-8.22 12.384-14.723 15.353l-.034.015c-.884.403-1.792.755-2.714 1.06l2.843 8.36.01.037a35.197 35.197 0 0 0 6.474-2.995c11.315-6.692 19.008-19.612 19.032-34.424v-.097c-.029-8.697-5.905-15.945-13.63-17.435l-1.465 4.32-1.47 4.321-.009.036.01-.036z" fill="#A78A50"/></g></svg>