<svg xmlns="http://www.w3.org/2000/svg" fill="none" width="26" height="26"><defs><linearGradient x1=".07" y1=".07" x2=".93" y2=".93" id="a"><stop offset="0%" stop-color="#6AA9EF"/><stop offset="100%" stop-color="#1F65B1"/></linearGradient></defs><path d="M19.794 26H6.206A6.21 6.21 0 0 1 0 19.789V6.204A6.204 6.204 0 0 1 6.206 0h13.588A6.204 6.204 0 0 1 26 6.204V19.79A6.205 6.205 0 0 1 19.794 26z" fill="url(#a)"/><path d="M19.561 6.789a2.042 2.042 0 0 0-1.7-.432l-4.658.904a.848.848 0 0 1-.366 0L8.14 6.35c-.605-.12-1.23.04-1.701.431-.472.392-.751.977-.745 1.588v7.759c0 .916.612 1.727 1.495 1.98l5.25 1.487c.365.107.757.107 1.122 0l5.25-1.494a2.063 2.063 0 0 0 1.495-1.98V8.377a2.046 2.046 0 0 0-.745-1.588zm-5.893 9.645a.64.64 0 0 1-.645.645.64.64 0 0 1-.644-.645v-6.19a.64.64 0 0 1 .644-.645.64.64 0 0 1 .645.644v6.191z" fill="#FFF"/></svg>